SplineFontDB: 3.2
FontName: SeriousShanns
FullName: Serious Shanns
FamilyName: Serious Shanns
Weight: Book
Copyright: https://github.com/kaBeech/serious-shanns/blob/main/LICENSE
Version: 6.0.0
ItalicAngle: 0
UnderlinePosition: 0
UnderlineWidth: 0
Ascent: 800
Descent: 200
InvalidEm: 0
sfntRevision: 0x00003333
LayerCount: 2
Layer: 0 0 "Back" 1
Layer: 1 0 "Fore" 0
XUID: [1021 45 630387186 12505762]
StyleMap: 0x0040
FSType: 4
OS2Version: 3
OS2_WeightWidthSlopeOnly: 0
OS2_UseTypoMetrics: 0
CreationTime: 1532631502
ModificationTime: 315532800
PfmFamily: 81
TTFWeight: 400
TTFWidth: 5
LineGap: 0
VLineGap: 0
Panose: 0 0 0 0 0 0 0 0 0 0
OS2TypoAscent: 613
OS2TypoAOffset: 0
OS2TypoDescent: -188
OS2TypoDOffset: 0
OS2TypoLinegap: 98
OS2WinAscent: 778
OS2WinAOffset: 0
OS2WinDescent: 308
OS2WinDOffset: 0
HheadAscent: 796
HheadAOffset: 0
HheadDescent: -317
HheadDOffset: 0
OS2SubXSize: 317
OS2SubYSize: 293
OS2SubXOff: 0
OS2SubYOff: 37
OS2SupXSize: 317
OS2SupYSize: 293
OS2SupXOff: 0
OS2SupYOff: 171
OS2StrikeYSize: 0
OS2StrikeYPos: 132
OS2CapHeight: 576
OS2XHeight: 485
OS2Vendor: 'NONE'
OS2CodePages: 00000001.00000000
OS2UnicodeRanges: 00000001.00000000.00000000.00000000
MarkAttachClasses: 1
DEI: 91125
LangName: 1033 "" "" "Normal" "FontForge 2.0 : Serious Shanns : 11-6-2024" "" "Version 0.2.0"
Encoding: UnicodeBmp
Compacted: 1
UnicodeInterp: none
NameList: AGL For New Fonts
DisplaySize: -48
AntiAlias: 1
FitToEm: 0
WinInfo: 0 16 11
BeginPrivate: 8
BlueValues 32 [-40 -6 502 523 708 718 765 769]
OtherBlues 11 [-297 -287]
BlueScale 9 0.0291667
BlueShift 1 2
StdHW 4 [85]
StdVW 4 [96]
StemSnapH 7 [65 85]
StemSnapV 4 [96]
EndPrivate
BeginChars: 65537 97

StartChar: .notdef
Encoding: 65536 -1 0
Width: 650
GlyphClass: 1
Flags: W
HStem: -268 54<164 485> 695 54<164 485>
VStem: 111 53<-214 695> 485 54<-214 695>
LayerCount: 2
Fore
SplineSet
111 -268 m 1
 111 749 l 1
 539 749 l 1
 539 -268 l 1
 111 -268 l 1
164 -214 m 1
 485 -214 l 1
 485 695 l 1
 164 695 l 1
 164 -214 l 1
EndSplineSet
Validated: 1
EndChar

StartChar: exclam
Encoding: 33 33 1
Width: 650
GlyphClass: 2
Flags: HMW
HStem: -24.5727 153.613
VStem: 242.999 164.001 283.999 92.3857
LayerCount: 2
Fore
SplineSet
384.002929688 738 m 0xa0
 384.002929688 732 382.500976562 688.16796875 379.500976562 606.500976562 c 0
 377.423828125 549.961914062 376.385742188 500.692382812 376.385742188 458.692382812 c 0
 376.385742188 440.026367188 376.590820312 422.795898438 377.000976562 407.000976562 c 0
 377.666992188 382.000976562 377.999023438 362.04296875 377.999023438 347.125976562 c 0
 377.999023438 332.208984375 377.666992188 322.333984375 376.999023438 317.5 c 0
 376.111328125 311.056640625 375.666992188 302.022460938 375.666992188 290.397460938 c 0
 375.666992188 284.580078125 375.778320312 278.114257812 376.000976562 271 c 0
 374.666992188 256.333007812 369.000976562 244.833007812 359.000976562 236.5 c 0
 349.741210938 228.784179688 338.768554688 224.926757812 326.081054688 224.926757812 c 0
 325.065429688 224.926757812 324.038085938 224.951171875 323.001953125 225.000976562 c 0
 309.668945312 225.000976562 298.668945312 229.333984375 290.001953125 238.000976562 c 0
 282.490234375 245.512695312 278.733398438 256.029296875 278.733398438 269.55078125 c 0
 278.733398438 271.629882812 278.823242188 273.780273438 279.000976562 276.001953125 c 0
 279.666992188 286.001953125 280.666992188 295.668945312 282.000976562 305.001953125 c 0
 283.333984375 314.334960938 284.166992188 322.16796875 284.499023438 328.500976562 c 0
 284.833007812 334.833984375 285.333007812 349.833984375 285.999023438 373.500976562 c 0
 286.166992188 379.41796875 286.249023438 385.762695312 286.249023438 392.534179688 c 0
 286.249023438 412.846679688 285.499023438 437.001953125 283.999023438 465.000976562 c 0
 283.333007812 491.000976562 282.833007812 518.500976562 282.499023438 547.500976562 c 0
 282.388671875 557.158203125 282.333007812 566.279296875 282.333007812 574.864257812 c 0
 282.333007812 592.059570312 282.555664062 607.10546875 283.000976562 620 c 0
 283.666992188 639.333007812 284.334960938 661.333007812 285.001953125 686 c 0
 285.668945312 710.666992188 286.001953125 727 286.001953125 735 c 0
 286.668945312 753 291.834960938 766.666992188 301.502929688 776 c 0
 311.169921875 785.333007812 323.002929688 790 337.002929688 790 c 0
 338.002929688 790.047851562 338.989257812 790.071289062 339.962890625 790.071289062 c 0
 352.608398438 790.071289062 362.955078125 786.047851562 371.002929688 778 c 0
 379.669921875 769.333007812 384.002929688 756 384.002929688 738 c 0xa0
327.000976562 -23.9990234375 m 0
 323.475585938 -24.3798828125 320.041992188 -24.5703125 316.700195312 -24.5703125 c 0
 296.661132812 -24.5703125 279.927734375 -17.7158203125 266.499023438 -4.0029296875 c 0
 250.833007812 11.9970703125 242.999023438 31.330078125 242.999023438 53.9970703125 c 0
 242.999023438 73.9970703125 251.833007812 91.330078125 269.499023438 105.997070312 c 0
 287.166992188 120.6640625 306.333984375 128.331054688 327.000976562 128.998046875 c 0
 328.038085938 129.02734375 329.067382812 129.041992188 330.088867188 129.041992188 c 0
 352.030273438 129.041992188 370.166992188 122.194335938 384.500976562 108.499023438 c 0
 399.500976562 94.166015625 407.000976562 76.3330078125 407.000976562 55 c 0xc0
 407.000976562 33.6669921875 399.666992188 15.833984375 385.000976562 1.5009765625 c 0
 370.333984375 -12.83203125 351.000976562 -21.33203125 327.000976562 -23.9990234375 c 0
EndSplineSet
Validated: 524289
EndChar

StartChar: quotedbl
Encoding: 34 34 2
Width: 650
GlyphClass: 2
Flags: HMW
VStem: 195.485 101.426 353.437 103.475
LayerCount: 2
Fore
SplineSet
297.912109375 738 m 0
 298.133789062 728.908203125 298.244140625 717.880859375 298.244140625 704.916015625 c 0
 298.244140625 678.904296875 297.797851562 645.09765625 296.908203125 603.498046875 c 0
 295.575195312 541.165039062 293.2421875 498.33203125 289.909179688 474.999023438 c 0
 287.909179688 461.666015625 282.2421875 451.666015625 272.909179688 444.999023438 c 0
 264.424804688 438.938476562 255.114257812 435.908203125 244.977539062 435.908203125 c 0
 243.963867188 435.908203125 242.94140625 435.938476562 241.911132812 435.999023438 c 0
 228.578125 436.666015625 216.745117188 440.833007812 206.412109375 448.5 c 0
 197.259765625 455.291015625 192.68359375 464.565429688 192.68359375 476.32421875 c 0
 192.68359375 480.546875 195.483398438 511.731445312 195.483398438 589.744140625 c 0
 195.483398438 596.965820312 195.459960938 604.383789062 195.412109375 611.999023438 c 0
 195.079101562 665.33203125 193.912109375 709.33203125 191.912109375 743.999023438 c 0
 191.245117188 751.999023438 192.745117188 758.83203125 196.412109375 764.499023438 c 0
 200.079101562 770.166015625 204.912109375 774.333007812 210.912109375 777 c 0
 216.912109375 779.666992188 223.079101562 781.5 229.412109375 782.5 c 0
 235.745117188 783.5 241.912109375 783.666992188 247.912109375 783 c 0
 253.912109375 783 259.579101562 782.333007812 264.912109375 781 c 0
 270.245117188 779.666992188 275.412109375 777.5 280.412109375 774.5 c 0
 285.412109375 771.5 289.579101562 766.833007812 292.912109375 760.5 c 0
 296.245117188 754.166992188 297.912109375 746.666992188 297.912109375 738 c 0
457.908203125 737.997070312 m 0
 458.130859375 728.875976562 458.241210938 717.805664062 458.241210938 704.786132812 c 0
 458.241210938 678.791015625 457.797851562 645.026367188 456.91015625 603.495117188 c 0
 455.577148438 541.162109375 453.577148438 498.329101562 450.91015625 474.99609375 c 0
 448.91015625 461.663085938 443.077148438 451.663085938 433.41015625 444.99609375 c 0
 424.622070312 438.935546875 415.420898438 435.905273438 405.806640625 435.905273438 c 0
 404.844726562 435.905273438 403.87890625 435.935546875 402.909179688 435.99609375 c 0
 389.576171875 436.663085938 377.576171875 440.830078125 366.909179688 448.497070312 c 0
 357.926757812 454.953125 353.435546875 463.654296875 353.435546875 474.6015625 c 0
 353.435546875 476.654296875 353.59375 478.786132812 353.909179688 480.997070312 c 0
 355.409179688 506.49609375 356.159179688 537.432617188 356.159179688 573.805664062 c 0
 356.159179688 585.931640625 356.076171875 598.662109375 355.909179688 611.99609375 c 0
 355.2421875 665.329101562 353.909179688 709.329101562 351.909179688 743.99609375 c 0
 351.909179688 751.99609375 353.7421875 758.829101562 357.409179688 764.49609375 c 0
 361.076171875 770.163085938 365.909179688 774.330078125 371.909179688 776.997070312 c 0
 377.909179688 779.6640625 383.909179688 781.497070312 389.909179688 782.497070312 c 0
 395.909179688 783.497070312 401.909179688 783.6640625 407.909179688 782.997070312 c 0
 413.909179688 782.997070312 419.576171875 782.330078125 424.909179688 780.997070312 c 0
 430.2421875 779.6640625 435.575195312 777.497070312 440.908203125 774.497070312 c 0
 446.241210938 771.497070312 450.408203125 766.830078125 453.408203125 760.497070312 c 0
 456.408203125 754.1640625 457.908203125 746.6640625 457.908203125 737.997070312 c 0
EndSplineSet
Validated: 524289
EndChar

StartChar: numbersign
Encoding: 35 35 3
Width: 650
GlyphClass: 2
Flags: HMW
HStem: 192 82 445 84 697.667 20G
LayerCount: 2
Fore
SplineSet
211.041015625 42 m 0
 206.374023438 28 196.706054688 16.4990234375 182.0390625 7.4990234375 c 0
 171.884765625 1.2685546875 162.209960938 -1.8466796875 153.014648438 -1.8466796875 c 0
 148.927734375 -1.8466796875 144.935546875 -1.2314453125 141.038085938 -0.0009765625 c 0
 128.37109375 2.666015625 119.038085938 11.166015625 113.038085938 25.4990234375 c 0
 109.861328125 33.0869140625 108.2734375 41.095703125 108.2734375 49.5244140625 c 0
 108.2734375 57.0166015625 109.528320312 64.8408203125 112.038085938 72.998046875 c 0
 117.37109375 90.998046875 126.704101562 129.665039062 140.037109375 188.998046875 c 1
 110.037109375 188.998046875 l 2
 93.3701171875 188.998046875 80.703125 192.331054688 72.0361328125 198.998046875 c 0
 59.291015625 208.801757812 58.958984375 221.170898438 58.958984375 228.732421875 c 0
 58.958984375 239.524414062 62.6513671875 248.61328125 70.0361328125 255.998046875 c 0
 78.0361328125 263.998046875 90.703125 268.665039062 108.036132812 269.998046875 c 0
 113.369140625 269.998046875 121.536132812 270.165039062 132.536132812 270.498046875 c 0
 143.536132812 270.831054688 151.703125 270.998046875 157.036132812 270.998046875 c 1
 191.036132812 443.998046875 l 1
 185.703125 443.998046875 178.370117188 443.831054688 169.037109375 443.498046875 c 0
 159.704101562 443.165039062 153.37109375 442.998046875 150.038085938 442.998046875 c 0
 148.704101562 442.944335938 147.39453125 442.91796875 146.109375 442.91796875 c 0
 131.340820312 442.91796875 119.817382812 446.444335938 111.538085938 453.498046875 c 0
 98.28125 464.791015625 97.9658203125 477.244140625 97.9658203125 484.541992188 c 0
 97.9658203125 495.44140625 101.989257812 504.759765625 110.037109375 512.497070312 c 0
 118.704101562 520.830078125 131.704101562 525.330078125 149.037109375 525.997070312 c 0
 161.704101562 526.6640625 181.037109375 526.997070312 207.037109375 526.997070312 c 1
 225.704101562 627.6640625 235.37109375 679.6640625 236.038085938 682.997070312 c 0
 241.37109375 699.6640625 249.704101562 711.331054688 261.037109375 717.998046875 c 0
 268.592773438 722.443359375 276.296875 724.666015625 284.149414062 724.666015625 c 0
 288.075195312 724.666015625 292.038085938 724.110351562 296.038085938 722.999023438 c 0
 310.038085938 720.33203125 320.87109375 713.665039062 328.538085938 702.998046875 c 0
 333.881835938 695.563476562 336.553710938 686.509765625 336.553710938 675.836914062 c 0
 336.553710938 671.197265625 336.048828125 666.250976562 335.0390625 660.999023438 c 2
 308.0390625 528.999023438 l 1
 421.0390625 528.999023438 l 1
 448.0390625 674.999023438 l 2
 453.372070312 692.33203125 461.5390625 704.33203125 472.5390625 710.999023438 c 0
 479.873046875 715.444335938 487.725585938 717.666992188 496.096679688 717.666992188 c 0
 500.28125 717.666992188 504.595703125 717.111328125 509.040039062 716 c 0
 523.70703125 713.333007812 534.70703125 706.666015625 542.040039062 695.999023438 c 0
 546.78515625 689.096679688 549.158203125 680.798828125 549.158203125 671.10546875 c 0
 549.158203125 665.818359375 548.452148438 660.116210938 547.040039062 653.999023438 c 0
 539.70703125 625.999023438 531.374023438 584.999023438 522.041015625 530.999023438 c 1
 533.041015625 530.999023438 l 2
 549.041015625 530.999023438 562.541015625 526.499023438 573.541015625 517.499023438 c 0
 584.541015625 508.499023438 590.374023438 498.999023438 591.041015625 488.999023438 c 0
 591.041015625 476.999023438 587.041015625 466.83203125 579.041015625 458.499023438 c 0
 571.041015625 450.166015625 558.708007812 445.666015625 542.041015625 444.999023438 c 2
 506.041015625 444.999023438 l 1
 477.041015625 273.999023438 l 1
 518.041015625 273.999023438 l 2
 533.374023438 273.999023438 544.041015625 270.499023438 550.041015625 263.499023438 c 0
 556.041015625 256.499023438 559.374023438 247.33203125 560.041015625 235.999023438 c 0
 560.041015625 206.666015625 546.041015625 191.999023438 518.041015625 191.999023438 c 2
 462.041015625 191.999023438 l 1
 448.708007812 115.999023438 439.041015625 64.666015625 433.041015625 37.9990234375 c 0
 427.708007812 23.9990234375 418.208007812 13.166015625 404.541015625 5.4990234375 c 0
 395.559570312 0.4609375 386.650390625 -2.0576171875 377.813476562 -2.0576171875 c 0
 373.203125 -2.0576171875 368.612304688 -1.3720703125 364.041015625 -0.0009765625 c 0
 351.374023438 2.666015625 342.041015625 10.4990234375 336.041015625 23.4990234375 c 0
 332.864257812 30.380859375 331.276367188 37.77734375 331.276367188 45.6875 c 0
 331.276367188 52.71875 332.53125 60.15625 335.041015625 68 c 0
 341.708007812 94.6669921875 350.375 135.666992188 361.041992188 191 c 1
 347.041992188 191 326.708984375 190.833007812 300.041992188 190.5 c 0
 273.375 190.166992188 253.708007812 190 241.041015625 190 c 1
 227.041015625 118 217.041015625 68.6669921875 211.041015625 42 c 0
292.040039062 444.999023438 m 1
 257.041015625 273.998046875 l 1
 284.374023438 274.665039062 323.70703125 274.998046875 375.040039062 274.998046875 c 1
 385.70703125 329.665039062 396.040039062 386.33203125 406.040039062 444.999023438 c 1
 292.040039062 444.999023438 l 1
EndSplineSet
Validated: 524289
EndChar

StartChar: dollar
Encoding: 36 36 4
Width: 650
GlyphClass: 2
Flags: HMW
HStem: -28.9932 84.9932 642.998 79.002
VStem: 98.499 92.001 286.499 87.001 476.501 92.999
LayerCount: 2
Fore
SplineSet
366.5 -99 m 0
 365.16796875 -113.666992188 359.5 -124.993164062 349.5 -132.993164062 c 0
 339.5 -140.993164062 327.833007812 -144.993164062 314.5 -144.993164062 c 0
 301.833007812 -144.993164062 292.333007812 -140.493164062 286 -131.493164062 c 0
 280.76953125 -124.05859375 278.15234375 -114.0078125 278.15234375 -101.340820312 c 0
 278.15234375 -98.6748046875 278.26953125 -95.892578125 278.5 -92.994140625 c 0
 279.388671875 -82.330078125 279.833007812 -69.296875 279.833007812 -53.89453125 c 0
 279.833007812 -46.1875 279.72265625 -37.8876953125 279.5 -28.994140625 c 1
 276.5 -28.994140625 l 2
 252.5 -28.994140625 230 -25.994140625 209 -19.994140625 c 0
 188 -13.994140625 170 -5.994140625 155 4.005859375 c 0
 140 14.005859375 127 24.6728515625 116 36.005859375 c 0
 105 47.3388671875 96.166015625 59.671875 89.5 73.0048828125 c 0
 83.5 86.5048828125 80.5 98.1298828125 80.5 107.879882812 c 0
 80.5 111.129882812 80.83203125 114.171875 81.5 117.004882812 c 0
 84.166015625 128.337890625 91.166015625 136.670898438 102.5 142.00390625 c 0
 110.5 145.336914062 116.83203125 147.669921875 121.5 149.002929688 c 0
 126.166015625 150.3359375 131.333007812 150.668945312 137 150.001953125 c 0
 142.66796875 149.334960938 148.16796875 146.66796875 153.5 142.000976562 c 0
 158.833007812 137.333984375 164.5 130.666992188 170.5 122 c 0
 183.833007812 101.333007812 199.166015625 85.166015625 216.5 73.4990234375 c 0
 233.83203125 61.83203125 254.83203125 55.9990234375 279.5 55.9990234375 c 2
 283.5 55.9990234375 l 1
 284.83203125 167.33203125 285.5 266.665039062 285.5 353.998046875 c 1
 282.166015625 353.998046875 276.333007812 354.665039062 268 355.998046875 c 0
 259.66796875 357.331054688 253.5 357.998046875 249.5 357.998046875 c 0
 225.5 360.665039062 203.5 366.998046875 183.5 376.998046875 c 0
 163.5 386.998046875 147.66796875 399.165039062 136 413.498046875 c 0
 124.333984375 427.831054688 115.166015625 442.831054688 108.5 458.498046875 c 0
 101.83203125 474.165039062 98.5 489.998046875 98.5 505.998046875 c 0
 98.5 529.998046875 102.166015625 552.998046875 109.5 574.998046875 c 0
 116.83203125 596.998046875 128 617.498046875 143 636.498046875 c 0
 158 655.498046875 177.5 671.831054688 201.5 685.498046875 c 0
 225.5 699.165039062 253.83203125 708.665039062 286.5 713.998046875 c 1
 287.166015625 729.998046875 287.5 749.331054688 287.5 771.998046875 c 0
 288.166015625 808.665039062 301.833007812 826.998046875 328.5 826.998046875 c 0
 329.055664062 827.010742188 329.606445312 827.016601562 330.15234375 827.016601562 c 0
 359.05078125 827.016601562 373.5 809.677734375 373.5 774.999023438 c 2
 373.5 721.999023438 l 1
 388.16796875 721.33203125 408.66796875 717.999023438 435 711.999023438 c 0
 461.333007812 705.999023438 480.833007812 700.33203125 493.5 694.999023438 c 0
 506.16796875 690.33203125 515.16796875 682.999023438 520.5 672.999023438 c 0
 524.766601562 664.999023438 526.899414062 656.572265625 526.899414062 647.71875 c 0
 526.899414062 645.505859375 526.766601562 643.266601562 526.5 641 c 0
 525.833007812 633 523.333007812 626.833007812 519 622.5 c 0
 514.66796875 618.166992188 509.333984375 615.5 503.000976562 614.5 c 0
 496.66796875 613.5 490.66796875 613.333007812 485.000976562 614 c 0
 479.333984375 614.666992188 473.16796875 615.666992188 466.5 617 c 0
 460.5 618.333007812 453 621.166015625 444 625.499023438 c 0
 435 629.83203125 424.833007812 633.665039062 413.5 636.998046875 c 0
 402.16796875 640.331054688 388.5 642.331054688 372.5 642.998046875 c 1
 371.833007812 589.665039062 370.5 518.998046875 368.5 430.998046875 c 1
 399.16796875 426.998046875 426.5 419.831054688 450.5 409.498046875 c 0
 474.5 399.165039062 493.66796875 387.33203125 508 373.999023438 c 0
 522.333007812 360.666015625 534.5 345.333007812 544.5 328 c 0
 554.5 310.666992188 561.16796875 293.666992188 564.5 277 c 0
 567.833007812 260.333007812 569.5 243 569.5 225 c 0
 569.5 194.333007812 564.333007812 165.333007812 554 138 c 0
 543.66796875 110.666992188 529.16796875 87 510.5 67 c 0
 491.833007812 47 470.166015625 29.6669921875 445.5 15 c 0
 420.83203125 0.3330078125 393.83203125 -10.6669921875 364.5 -18 c 1
 365.166015625 -58 365.833007812 -85 366.5 -99 c 0
190.5 531.006835938 m 0
 190.5 509.673828125 199.000976562 491.006835938 216.000976562 475.006835938 c 0
 233.000976562 459.006835938 256.16796875 447.673828125 285.500976562 441.006835938 c 1
 286.16796875 487.006835938 286.500976562 551.006835938 286.500976562 633.006835938 c 1
 257.833984375 624.33984375 234.66796875 611.33984375 217 594.006835938 c 0
 199.333007812 576.673828125 190.5 555.673828125 190.5 531.006835938 c 0
476.500976562 208.006835938 m 0
 476.500976562 220.673828125 474.83203125 232.340820312 471.5 243.0078125 c 0
 468.166015625 253.674804688 462.833007812 264.841796875 455.5 276.508789062 c 0
 448.16796875 288.17578125 437.16796875 299.008789062 422.5 309.008789062 c 0
 407.833007812 319.008789062 389.5 327.67578125 367.5 335.008789062 c 1
 367.5 305.67578125 367.333007812 261.508789062 367 202.508789062 c 0
 366.66796875 143.508789062 365.833984375 100.67578125 364.500976562 74.0087890625 c 1
 396.500976562 87.341796875 423.16796875 105.674804688 444.500976562 129.0078125 c 0
 465.833984375 152.340820312 476.500976562 178.673828125 476.500976562 208.006835938 c 0
EndSplineSet
Validated: 524289
EndChar

StartChar: percent
Encoding: 37 37 5
Width: 650
GlyphClass: 2
Flags: HMW
HStem: -28.0313 75.9731 170.999 74 432 75<193.126 201.459 193.126 204.125> 632 73
VStem: 66.1255 71.919 246.188 70.301 334.056 71.992 453.124 88.8789 512.143 71.7321
LayerCount: 2
Fore
SplineSet
182.125 432 m 0xfe
 158.791992188 432 137.958984375 438.5 119.625 451.5 c 0
 101.29296875 464.5 87.79296875 480.833007812 79.125 500.5 c 0
 70.458984375 520.166992188 66.125 541.333984375 66.125 564.000976562 c 0
 66.125 605.333984375 77.625 639.166992188 100.625 665.5 c 0
 123.625 691.833007812 156.125 705 198.125 705 c 0
 214.79296875 705 230.29296875 702.166992188 244.625 696.5 c 0
 258.958984375 690.833007812 271.791992188 682.333007812 283.125 671 c 0
 294.45703125 659.666992188 303.125 644.166992188 309.125 624.5 c 0
 314.034179688 608.408203125 316.48828125 590.197265625 316.48828125 569.866210938 c 0
 316.48828125 565.348632812 316.3671875 560.7265625 316.125 556 c 0
 314.125 515.333007812 302.291992188 484.5 280.625 463.5 c 0
 258.95703125 442.5 226.125 432 182.125 432 c 0xfe
91.125 19 m 0
 105.125 47.6669921875 138.29296875 107.833984375 190.625 199.500976562 c 0
 242.958984375 291.16796875 295.291992188 383.66796875 347.625 477.000976562 c 0
 399.95703125 570.333984375 435.125 637.000976562 453.125 677.000976562 c 0
 461.125 689.000976562 471.625 696.500976562 484.625 699.500976562 c 0
 488.659179688 700.431640625 492.61328125 700.897460938 496.487304688 700.897460938 c 0
 505.095703125 700.897460938 513.30859375 698.598632812 521.124023438 694.000976562 c 0
 527.794921875 691.036132812 542.002929688 683.4609375 542.002929688 665.655273438 c 0xff
 542.002929688 656.331054688 538.04296875 645.446289062 530.125 633.001953125 c 0
 505.45703125 592.334960938 446.625 488.66796875 353.625 322.000976562 c 0
 260.625 155.333984375 199.125 42.6669921875 169.125 -16 c 0
 156.32421875 -39.630859375 141.889648438 -51.4462890625 125.818359375 -51.4462890625 c 0
 120.125 -51.4462890625 114.228515625 -49.9638671875 108.125 -47 c 0
 91.193359375 -38.95703125 82.728515625 -27.15234375 82.728515625 -11.5849609375 c 0
 82.728515625 -2.6337890625 85.52734375 7.5615234375 91.125 19 c 0
193.125 507 m 0
 209.79296875 507 222.291992188 512.333007812 230.625 523 c 0
 243.095703125 538.962890625 246.1875 561.026367188 246.1875 570.180664062 c 0
 246.1875 590.727539062 241.5 606.000976562 232.125 616.000976562 c 0
 222.125 626.66796875 208.125 632.000976562 190.125 632.000976562 c 0
 174.125 632.000976562 161.79296875 626.16796875 153.125 614.500976562 c 0
 150.20703125 610.572265625 138.045898438 592.4140625 138.045898438 562.6015625 c 0
 138.045898438 546.06640625 141.572265625 533.19921875 148.625 524 c 0
 156.29296875 514 171.125 508.333007812 193.125 507 c 0
449.125 -28 m 0
 425.791992188 -28 405.125 -21.5 387.125 -8.5 c 0
 369.125 4.5 355.625 20.8330078125 346.625 40.5 c 0
 338.24609375 58.810546875 334.0546875 78.4208984375 334.0546875 99.3310546875 c 0
 334.0546875 122.313476562 335.23046875 167.287109375 368.125 205.5 c 0
 390.791992188 231.833007812 423.125 245 465.125 245 c 0
 481.791992188 245 497.291992188 242.333007812 511.625 237 c 0
 525.95703125 231.666992188 538.95703125 223.166992188 550.625 211.5 c 0
 562.291992188 199.833007812 571.125 184.166015625 577.125 164.499023438 c 0
 581.625 149.749023438 583.875 133.217773438 583.875 114.905273438 c 0xfe80
 583.875 108.80078125 583.625 102.499023438 583.125 95.9990234375 c 0
 581.125 55.33203125 569.291992188 24.33203125 547.625 2.9990234375 c 0
 526.615234375 -17.6875 495.10546875 -28.0302734375 453.095703125 -28.0302734375 c 0
 451.78125 -28.0302734375 450.458984375 -28.0205078125 449.125 -28 c 0
460.125 48 m 0
 461.0390625 47.9619140625 461.94140625 47.9443359375 462.83203125 47.9443359375 c 0
 477.522460938 47.9443359375 488.953125 53.1298828125 497.125 63.5009765625 c 0
 498.499023438 65.2451171875 512.142578125 83.193359375 512.142578125 108.302734375 c 0
 512.142578125 150.1015625 494.13671875 171.000976562 458.125 171.000976562 c 0
 442.791992188 171.000976562 430.625 165.16796875 421.625 153.500976562 c 0
 418.4765625 149.418945312 406.046875 131.494140625 406.046875 102.913085938 c 0
 406.046875 86.8427734375 409.740234375 74.0380859375 417.125 64.5 c 0
 425.125 54.1669921875 439.45703125 48.6669921875 460.125 48 c 0
EndSplineSet
Validated: 524289
EndChar

StartChar: ampersand
Encoding: 38 38 6
Width: 650
GlyphClass: 2
Flags: HMW
HStem: -41.998 93.998 -40.3768 21G 645.001 79
VStem: 66.3799 100.997 153.379 95.998 387.377 83.002
LayerCount: 2
Fore
SplineSet
550.376953125 -35 m 0xac
 544.510742188 -38.5849609375 538.287109375 -40.3779296875 531.704101562 -40.3779296875 c 0x6c
 524.8203125 -40.3779296875 517.544921875 -38.41796875 509.876953125 -34.4990234375 c 0
 494.876953125 -26.83203125 481.709960938 -13.6650390625 470.376953125 5.001953125 c 0
 469.043945312 8.3349609375 465.2109375 18.3349609375 458.877929688 35.001953125 c 0
 452.544921875 51.6689453125 447.711914062 63.6689453125 444.37890625 71.001953125 c 1
 442.37890625 68.3349609375 438.045898438 62.66796875 431.37890625 54.0009765625 c 0
 424.711914062 45.333984375 419.711914062 39.0009765625 416.37890625 35.0009765625 c 0
 413.045898438 31.0009765625 407.712890625 25.0009765625 400.379882812 17.0009765625 c 0
 393.046875 9.0009765625 386.546875 2.833984375 380.879882812 -1.4990234375 c 0
 375.212890625 -5.83203125 367.879882812 -10.9990234375 358.879882812 -16.9990234375 c 0
 349.879882812 -22.9990234375 341.212890625 -27.4990234375 332.879882812 -30.4990234375 c 0
 324.546875 -33.4990234375 314.546875 -36.166015625 302.879882812 -38.4990234375 c 0
 291.212890625 -40.83203125 279.379882812 -41.9990234375 267.379882812 -41.9990234375 c 0
 230.046875 -41.9990234375 195.879882812 -32.33203125 164.879882812 -12.9990234375 c 0
 133.879882812 6.333984375 109.712890625 31.6669921875 92.3798828125 63 c 0
 75.046875 94.3330078125 66.3798828125 128.333007812 66.3798828125 165 c 0xb4
 66.3798828125 291 118.379882812 376.666992188 222.379882812 422 c 1
 216.379882812 432 209.212890625 444 200.879882812 458 c 0
 192.546875 472 186.379882812 481.833007812 182.379882812 487.5 c 0
 178.379882812 493.166992188 174.046875 500.5 169.379882812 509.5 c 0
 164.712890625 518.5 161.545898438 526.333007812 159.87890625 533 c 0
 158.211914062 539.666992188 156.711914062 547.833984375 155.37890625 557.500976562 c 0
 154.045898438 567.16796875 153.37890625 577.66796875 153.37890625 589.000976562 c 0
 153.37890625 601.000976562 154.87890625 612.833984375 157.87890625 624.500976562 c 0
 160.87890625 636.16796875 166.545898438 648.16796875 174.87890625 660.500976562 c 0
 183.211914062 672.833984375 192.87890625 683.666992188 203.87890625 693 c 0
 214.87890625 702.333007812 229.87890625 709.833007812 248.87890625 715.5 c 0
 267.87890625 721.166992188 289.37890625 724 313.37890625 724 c 0
 332.711914062 724 351.711914062 721 370.37890625 715 c 0
 389.045898438 709 405.87890625 700.166992188 420.87890625 688.5 c 0
 435.87890625 676.833007812 447.87890625 661.5 456.87890625 642.5 c 0
 465.87890625 623.5 470.37890625 602.333007812 470.37890625 579 c 0
 470.37890625 557.666992188 467.711914062 537.833984375 462.37890625 519.500976562 c 0
 457.045898438 501.16796875 450.212890625 485.834960938 441.879882812 473.501953125 c 0
 433.546875 461.168945312 423.046875 449.3359375 410.379882812 438.002929688 c 0
 397.712890625 426.669921875 386.045898438 417.669921875 375.37890625 411.002929688 c 0
 364.711914062 404.3359375 352.37890625 397.668945312 338.37890625 391.001953125 c 1
 350.37890625 370.334960938 370.711914062 339.66796875 399.37890625 299.000976562 c 0
 428.045898438 258.333984375 446.37890625 231.333984375 454.37890625 218.000976562 c 1
 459.045898438 227.333984375 464.37890625 238.166992188 470.37890625 250.5 c 0
 476.37890625 262.833007812 480.87890625 272.833007812 483.87890625 280.5 c 0
 486.87890625 288.166992188 489.711914062 293.666992188 492.37890625 297 c 0
 504.37890625 314.333007812 515.87890625 325.166015625 526.87890625 329.499023438 c 0
 531.211914062 331.206054688 535.673828125 332.059570312 540.265625 332.059570312 c 0
 547.330078125 332.059570312 554.701171875 330.0390625 562.37890625 325.998046875 c 0
 573.711914062 320.665039062 580.544921875 310.83203125 582.877929688 296.499023438 c 0
 583.373046875 293.458984375 583.620117188 290.336914062 583.620117188 287.131835938 c 0
 583.620117188 275.225585938 580.206054688 262.181640625 573.376953125 247.999023438 c 0
 570.043945312 241.999023438 560.043945312 228.666015625 543.376953125 207.999023438 c 0
 526.709960938 187.33203125 513.376953125 168.33203125 503.376953125 150.999023438 c 1
 510.709960938 138.33203125 520.876953125 120.165039062 533.876953125 96.498046875 c 0
 546.876953125 72.8310546875 554.709960938 58.998046875 557.376953125 54.998046875 c 0
 565.485351562 42.025390625 569.5390625 27.9560546875 569.5390625 12.7919921875 c 0
 569.5390625 9.25390625 569.318359375 5.65625 568.876953125 1.9990234375 c 0
 566.543945312 -17.333984375 560.376953125 -29.6669921875 550.376953125 -35 c 0xac
249.377929688 572 m 0
 249.377929688 555.333007812 253.7109375 537 262.377929688 517 c 0
 271.044921875 497 281.711914062 479.333007812 294.37890625 464 c 1
 309.045898438 468.666992188 321.545898438 473.5 331.87890625 478.5 c 0
 342.211914062 483.5 352.044921875 490 361.377929688 498 c 0
 370.7109375 506 377.377929688 515.833007812 381.377929688 527.5 c 0
 385.377929688 539.166992188 387.377929688 553 387.377929688 569 c 0
 387.377929688 593.666992188 379.877929688 612.5 364.877929688 625.5 c 0
 349.877929688 638.5 331.7109375 645 310.377929688 645 c 0
 269.7109375 645 249.377929688 620.666992188 249.377929688 572 c 0
167.377929688 174 m 0xb4
 167.377929688 139.333007812 176.708984375 110.33203125 195.375976562 86.9990234375 c 0
 214.04296875 63.666015625 238.375976562 51.9990234375 268.375976562 51.9990234375 c 0
 277.708984375 51.9990234375 286.875976562 52.9990234375 295.875976562 54.9990234375 c 0
 304.875976562 56.9990234375 312.54296875 58.9990234375 318.875976562 60.9990234375 c 0
 325.208984375 62.9990234375 331.875976562 66.33203125 338.875976562 70.9990234375 c 0
 345.875976562 75.666015625 351.375976562 79.4990234375 355.375976562 82.4990234375 c 0
 359.375976562 85.4990234375 364.208984375 90.166015625 369.875976562 96.4990234375 c 0
 375.54296875 102.83203125 379.209960938 107.33203125 380.876953125 109.999023438 c 0
 382.543945312 112.666015625 386.043945312 117.499023438 391.376953125 124.499023438 c 0
 396.709960938 131.499023438 399.709960938 135.666015625 400.376953125 136.999023438 c 0
 388.376953125 162.999023438 378.376953125 183.33203125 370.376953125 197.999023438 c 0
 362.376953125 213.33203125 346.209960938 238.33203125 321.876953125 272.999023438 c 0
 297.543945312 307.666015625 280.376953125 333.333007812 270.376953125 350 c 1
 250.376953125 341.333007812 233.209960938 330.5 218.876953125 317.5 c 0
 204.543945312 304.5 193.7109375 290.166992188 186.377929688 274.5 c 0
 179.044921875 258.833007812 174.044921875 243 171.377929688 227 c 0
 168.7109375 211 167.377929688 193.333007812 167.377929688 174 c 0xb4
EndSplineSet
Validated: 524289
EndChar

StartChar: quotesingle
Encoding: 39 39 7
Width: 650
GlyphClass: 2
Flags: HMW
HStem: 445.91 325.59
VStem: 271.834 106.332
LayerCount: 2
Fore
SplineSet
377.83203125 728 m 0
 378.0546875 719.106445312 378.166015625 708.600585938 378.166015625 696.482421875 c 0
 378.166015625 672.263671875 377.721679688 641.603515625 376.833007812 604.500976562 c 0
 375.5 548.833984375 373.166992188 509.333984375 369.833984375 486.000976562 c 0
 367.833984375 472.000976562 362.000976562 461.66796875 352.333984375 455.000976562 c 0
 343.545898438 448.940429688 334.344726562 445.91015625 324.73046875 445.91015625 c 0
 323.768554688 445.91015625 322.802734375 445.940429688 321.833007812 446.000976562 c 0
 308.5 446.66796875 296.666992188 451.000976562 286.333984375 459.000976562 c 0
 277.181640625 466.086914062 272.60546875 475.526367188 272.60546875 487.319335938 c 0
 272.60546875 490.916015625 275.083984375 520.942382812 275.083984375 578.998046875 c 0
 275.083984375 589.666015625 275.000976562 600.666992188 274.833984375 612.000976562 c 0
 274.166992188 657.333984375 273.166992188 697.666992188 271.833984375 733 c 0
 271.833984375 741 273.333984375 748 276.333984375 754 c 0
 279.333984375 760 284.000976562 764.166992188 290.333984375 766.5 c 0
 296.666992188 768.833007812 302.833984375 770.5 308.833984375 771.5 c 0
 314.833984375 772.5 320.833984375 772.666992188 326.833984375 772 c 0
 332.833984375 772 338.500976562 771.333007812 343.833984375 770 c 0
 349.166992188 768.666992188 354.5 766.5 359.833007812 763.5 c 0
 365.166015625 760.5 369.499023438 756 372.83203125 750 c 0
 376.165039062 744 377.83203125 736.666992188 377.83203125 728 c 0
EndSplineSet
Validated: 524289
EndChar

StartChar: parenleft
Encoding: 40 40 8
Width: 650
GlyphClass: 2
Flags: HMW
HStem: -130.998 83.998 733.002 81
VStem: 175.548 97.3819
LayerCount: 2
Fore
SplineSet
473.4296875 -93 m 0
 473.4296875 -103.666992188 469.09765625 -112.6640625 460.430664062 -119.997070312 c 0
 451.763671875 -127.330078125 442.763671875 -130.997070312 433.430664062 -130.997070312 c 0
 388.763671875 -130.997070312 348.263671875 -114.997070312 311.930664062 -82.9970703125 c 0
 275.59765625 -50.9970703125 245.930664062 -6.6640625 222.930664062 50.0029296875 c 0
 199.930664062 106.669921875 185.09765625 172.002929688 178.430664062 246.002929688 c 0
 176.508789062 266.04296875 175.547851562 288.569335938 175.547851562 313.58203125 c 0
 175.547851562 349.314453125 177.508789062 390.12109375 181.430664062 436.002929688 c 0
 188.09765625 514.002929688 201.09765625 578.3359375 220.430664062 629.002929688 c 0
 229.09765625 651.002929688 240.59765625 672.8359375 254.930664062 694.502929688 c 0
 269.263671875 716.169921875 285.596679688 736.002929688 303.9296875 754.002929688 c 0
 322.262695312 772.002929688 342.9296875 786.502929688 365.9296875 797.502929688 c 0
 388.9296875 808.502929688 411.762695312 814.002929688 434.4296875 814.002929688 c 0
 461.111328125 814.002929688 474.452148438 800.979492188 474.452148438 774.93359375 c 0
 474.452148438 767.493164062 474.306640625 751.90625 462.428710938 742.502929688 c 0
 454.428710938 736.169921875 444.428710938 733.002929688 432.428710938 733.002929688 c 0
 415.095703125 733.002929688 398.928710938 728.002929688 383.928710938 718.002929688 c 0
 368.928710938 708.002929688 355.76171875 694.3359375 344.428710938 677.002929688 c 0
 333.095703125 659.669921875 323.262695312 640.669921875 314.9296875 620.002929688 c 0
 306.596679688 599.3359375 299.4296875 577.002929688 293.4296875 553.002929688 c 0
 284.762695312 518.3359375 278.762695312 470.668945312 275.4296875 410.001953125 c 0
 273.763671875 379.66796875 272.930664062 352.16796875 272.930664062 327.500976562 c 0
 272.930664062 302.833984375 273.763671875 281.000976562 275.4296875 262.000976562 c 0
 278.762695312 221.333984375 285.9296875 181.833984375 296.9296875 143.500976562 c 0
 307.9296875 105.16796875 320.762695312 72.16796875 335.4296875 44.5009765625 c 0
 350.096679688 16.833984375 366.096679688 -5.3330078125 383.4296875 -22 c 0
 400.762695312 -38.6669921875 417.4296875 -47 433.4296875 -47 c 0
 446.762695312 -47 456.762695312 -50.3330078125 463.4296875 -57 c 0
 470.096679688 -63.6669921875 473.4296875 -75.6669921875 473.4296875 -93 c 0
EndSplineSet
Validated: 524289
EndChar

StartChar: parenright
Encoding: 41 41 9
Width: 650
GlyphClass: 2
Flags: HMW
HStem: -131.005 84 732.998 81.002
VStem: 375.192 99.2482
LayerCount: 2
Fore
SplineSet
471.55859375 246 m 0
 464.225585938 172 449.0625 106.662109375 426.0625 49.9951171875 c 0
 403.0625 -6.671875 373.5625 -51.0048828125 337.5625 -83.0048828125 c 0
 301.5625 -115.004882812 261.229492188 -131.004882812 216.5625 -131.004882812 c 0
 207.229492188 -131.004882812 198.229492188 -127.337890625 189.5625 -120.004882812 c 0
 180.89453125 -112.671875 176.5625 -103.671875 176.5625 -93.0048828125 c 0
 176.5625 -75.671875 180.0625 -63.671875 187.0625 -57.0048828125 c 0
 194.0625 -50.337890625 203.89453125 -47.0048828125 216.5625 -47.0048828125 c 0
 231.89453125 -47.0048828125 248.0625 -38.671875 265.0625 -22.0048828125 c 0
 282.0625 -5.337890625 297.89453125 16.8291015625 312.5625 44.49609375 c 0
 327.229492188 72.1630859375 340.229492188 105.330078125 351.5625 143.997070312 c 0
 362.89453125 182.6640625 369.89453125 221.997070312 372.5625 261.997070312 c 0
 374.31640625 281.998046875 375.193359375 305.137695312 375.193359375 331.416992188 c 0
 375.193359375 355.067382812 374.482421875 381.260742188 373.061523438 409.997070312 c 0
 370.061523438 470.6640625 363.89453125 518.331054688 354.561523438 552.998046875 c 0
 349.228515625 576.998046875 342.561523438 599.331054688 334.561523438 619.998046875 c 0
 326.561523438 640.665039062 316.728515625 659.665039062 305.061523438 676.998046875 c 0
 293.39453125 694.331054688 280.2265625 707.998046875 265.560546875 717.998046875 c 0
 250.893554688 727.998046875 235.2265625 732.998046875 218.55859375 732.998046875 c 0
 205.892578125 732.998046875 195.55859375 736.165039062 187.55859375 742.498046875 c 0
 179.55859375 748.831054688 175.55859375 758.998046875 175.55859375 772.998046875 c 0
 175.55859375 781.665039062 176.55859375 788.83203125 178.55859375 794.499023438 c 0
 180.55859375 800.166015625 184.05859375 804.333007812 189.05859375 807 c 0
 194.05859375 809.666992188 198.392578125 811.5 202.05859375 812.5 c 0
 205.7265625 813.5 210.2265625 814 215.55859375 814 c 0
 238.2265625 814 261.05859375 808.5 284.05859375 797.5 c 0
 307.05859375 786.5 327.55859375 772 345.55859375 754 c 0
 363.55859375 736 379.7265625 716.166992188 394.05859375 694.5 c 0
 408.392578125 672.833007812 420.225585938 651 429.55859375 629 c 0
 448.890625 578.333007812 461.890625 514 468.55859375 436 c 0
 472.48046875 390.118164062 474.44140625 349.311523438 474.44140625 313.579101562 c 0
 474.44140625 288.56640625 473.48046875 266.040039062 471.55859375 246 c 0
EndSplineSet
Validated: 524289
EndChar

StartChar: asterisk
Encoding: 42 42 10
Width: 650
GlyphClass: 2
Flags: HMW
HStem: 292.998 103.999 306.499 76.5001
LayerCount: 2
Fore
SplineSet
272.001953125 139 m 0x40
 269.333984375 131 264.83203125 124.999023438 258.498046875 120.999023438 c 0
 252.166015625 116.999023438 245.166015625 114.666015625 237.498046875 113.999023438 c 0
 229.83203125 113.33203125 222.498046875 113.83203125 215.498046875 115.499023438 c 0
 208.498046875 117.166015625 202.33203125 119.333007812 196.998046875 122 c 0
 190.998046875 125.333007812 185.998046875 130.166015625 181.998046875 136.499023438 c 0
 177.998046875 142.83203125 175.33203125 150.665039062 173.998046875 159.998046875 c 0
 172.666015625 169.331054688 174.666015625 178.998046875 179.998046875 188.998046875 c 2
 246.998046875 297.998046875 l 1
 192.33203125 294.665039062 151.998046875 292.998046875 125.998046875 292.998046875 c 0
 109.998046875 292.998046875 97.33203125 298.331054688 87.998046875 308.998046875 c 0
 78.666015625 319.665039062 73.998046875 330.998046875 73.998046875 342.998046875 c 0
 73.998046875 348.998046875 74.83203125 355.165039062 76.498046875 361.498046875 c 0
 78.166015625 367.831054688 80.666015625 373.831054688 83.998046875 379.498046875 c 0
 87.33203125 385.165039062 92.498046875 389.665039062 99.498046875 392.998046875 c 0
 106.498046875 396.331054688 114.33203125 397.6640625 122.998046875 396.997070312 c 0x80
 153.666015625 394.330078125 198.998046875 390.997070312 258.998046875 386.997070312 c 1
 230.33203125 435.6640625 206.665039062 472.997070312 187.998046875 498.997070312 c 0
 180.079101562 512.006835938 176.119140625 524.776367188 176.119140625 537.306640625 c 0
 176.119140625 539.544921875 176.24609375 541.775390625 176.498046875 543.998046875 c 0
 178.166015625 558.665039062 184.333007812 568.33203125 195 572.999023438 c 0
 201 576.999023438 208.5 579.166015625 217.5 579.499023438 c 0
 226.5 579.83203125 235.666015625 577.33203125 245 571.999023438 c 0
 254.333007812 566.666015625 261.666015625 558.666015625 266.998046875 547.999023438 c 0
 274.33203125 531.999023438 293.998046875 493.666015625 325.998046875 432.999023438 c 1
 352.666015625 478.33203125 372.666015625 516.33203125 385.998046875 546.999023438 c 0
 390.666015625 557.666015625 397.498046875 565.666015625 406.498046875 570.999023438 c 0
 415.498046875 576.33203125 424.166015625 578.83203125 432.498046875 578.499023438 c 0
 440.83203125 578.166015625 447.998046875 575.666015625 453.998046875 570.999023438 c 0
 460.666015625 567.666015625 466.166015625 562.333007812 470.498046875 555 c 0
 474.83203125 547.666992188 476.998046875 539 476.998046875 529 c 0
 476.998046875 519 473.666015625 509.333007812 466.998046875 500 c 0
 445.666015625 468.666992188 422.333007812 429.666992188 397 383 c 1
 455 383 496.333007812 386.666992188 521 394 c 0
 525.666015625 395.485351562 530.130859375 396.227539062 534.392578125 396.227539062 c 0
 543.525390625 396.227539062 551.728515625 392.818359375 559.000976562 386 c 0
 569.66796875 376 575.333984375 365.333007812 576.001953125 354 c 0
 576.001953125 348 575.333984375 342 574.001953125 336 c 0
 572.668945312 330 570.3359375 324 567.001953125 318 c 0
 563.669921875 312 559.001953125 307.333007812 553.001953125 304 c 0
 547.001953125 300.666992188 539.669921875 300 531.001953125 302 c 0
 514.001953125 305 484.813476562 306.5 443.4375 306.5 c 0
 429.646484375 306.5 414.500976562 306.333007812 398.001953125 306 c 1
 465.001953125 190 l 2
 470.9765625 177.506835938 473.962890625 166.23046875 473.962890625 156.170898438 c 0
 473.962890625 153.883789062 473.809570312 151.66015625 473.500976562 149.499023438 c 0
 471.833984375 137.83203125 467.000976562 129.33203125 459.000976562 123.999023438 c 0
 452.333984375 119.999023438 443.833984375 117.666015625 433.500976562 116.999023438 c 0
 432.208984375 116.916015625 430.916015625 116.874023438 429.625 116.874023438 c 2
 402.501953125 122.999023438 l 2
 392.168945312 127.666015625 385.668945312 135.333007812 383.001953125 146 c 0
 374.333984375 172.666992188 356.66796875 211 330.000976562 261 c 1
 298.66796875 199.666992188 279.333984375 159 272.001953125 139 c 0x40
EndSplineSet
Validated: 524289
EndChar

StartChar: plus
Encoding: 43 43 11
Width: 650
GlyphClass: 2
Flags: HMW
HStem: 359.8 79.1992
VStem: 283.04 80.9971
LayerCount: 2
Fore
SplineSet
364.037109375 250 m 0
 364.037109375 234.666992188 360.708007812 223.833007812 354.041015625 217.5 c 0
 347.374023438 211.166992188 338.041015625 208 326.041015625 208 c 0
 297.374023438 208 283.041015625 222 283.041015625 250 c 2
 283.041015625 357 l 1
 269.708007812 357 251.708007812 356.833007812 229.041015625 356.5 c 0
 206.374023438 356.166992188 190.70703125 356 182.040039062 356 c 0
 165.373046875 356 153.040039062 360.166992188 145.040039062 368.5 c 0
 133.399414062 380.625 132.962890625 393.616210938 132.962890625 401.888671875 c 0
 132.962890625 413.296875 136.655273438 423.000976562 144.040039062 431.000976562 c 0
 151.46875 439.048828125 162.6328125 443.072265625 177.533203125 443.072265625 c 0
 178.6796875 443.072265625 179.848632812 443.048828125 181.040039062 443.000976562 c 0
 227.70703125 441.66796875 261.70703125 441.000976562 283.040039062 441.000976562 c 1
 283.040039062 499.8203125 280.955078125 548.575195312 280.955078125 552.581054688 c 0
 280.955078125 578.860351562 295.31640625 592 324.040039062 592 c 0
 325.374023438 592.06640625 326.682617188 592.099609375 327.965820312 592.099609375 c 0
 339.514648438 592.099609375 349.0390625 589.399414062 356.538085938 584 c 0
 363.721679688 578.827148438 367.313476562 569.69140625 367.313476562 556.590820312 c 0
 367.313476562 554.495117188 367.221679688 552.297851562 367.038085938 549.999023438 c 0
 365.038085938 511.33203125 364.038085938 474.33203125 364.038085938 438.999023438 c 1
 474.038085938 438.999023438 l 2
 489.37109375 438.999023438 500.204101562 435.666015625 506.537109375 428.999023438 c 0
 512.870117188 422.33203125 516.370117188 413.33203125 517.037109375 401.999023438 c 0
 517.037109375 395.999023438 516.370117188 390.499023438 515.037109375 385.499023438 c 0
 513.704101562 380.499023438 511.704101562 375.666015625 509.037109375 370.999023438 c 0
 506.370117188 366.33203125 502.037109375 362.83203125 496.037109375 360.499023438 c 0
 490.037109375 358.166015625 482.704101562 357.333007812 474.037109375 358 c 0
 463.637695312 359.200195312 446.158203125 359.799804688 421.598632812 359.799804688 c 0
 405.224609375 359.799804688 385.704101562 359.533203125 363.037109375 359 c 1
 363.037109375 341 363.204101562 319.666992188 363.537109375 295 c 0
 363.870117188 270.333007812 364.037109375 255.333007812 364.037109375 250 c 0
EndSplineSet
Validated: 524289
EndChar

StartChar: comma
Encoding: 44 44 12
Width: 650
GlyphClass: 2
Flags: HMW
VStem: 222.51 204.501
LayerCount: 2
Fore
SplineSet
427.010742188 96 m 0
 420.34375 63.3330078125 406.010742188 12.9990234375 384.010742188 -55.0009765625 c 0
 362.010742188 -123.000976562 345.010742188 -165.000976562 333.010742188 -181.000976562 c 0
 322.34375 -195.000976562 308.84375 -205.000976562 292.510742188 -211.000976562 c 0
 282.7109375 -214.600585938 273.811523438 -216.400390625 265.811523438 -216.400390625 c 0
 260.478515625 -216.400390625 255.544921875 -215.600585938 251.01171875 -214.000976562 c 0
 244.344726562 -212.000976562 238.177734375 -208.000976562 232.510742188 -202.000976562 c 0
 226.84375 -196.000976562 223.510742188 -188.66796875 222.510742188 -180.000976562 c 0
 221.510742188 -171.333984375 224.010742188 -162.333984375 230.010742188 -153.000976562 c 0
 244.010742188 -133.000976562 263.34375 -89.0009765625 288.010742188 -21.0009765625 c 0
 312.677734375 46.9990234375 327.677734375 94.33203125 333.010742188 120.999023438 c 0
 335.010742188 130.33203125 339.677734375 137.665039062 347.010742188 142.998046875 c 0
 354.34375 148.331054688 362.010742188 150.998046875 370.010742188 150.998046875 c 0
 378.010742188 150.998046875 386.010742188 150.331054688 394.010742188 148.998046875 c 0
 404.677734375 145.665039062 413.344726562 139.33203125 420.01171875 129.999023438 c 0
 425.139648438 122.8203125 427.703125 114.458007812 427.703125 104.912109375 c 0
 427.703125 102.047851562 427.47265625 99.0771484375 427.010742188 96 c 0
EndSplineSet
Validated: 524289
EndChar

StartChar: hyphen
Encoding: 45 45 13
Width: 650
GlyphClass: 2
Flags: HMW
HStem: 243 87<199.763 225.429> 251 82<433.097 443.763 433.097 450.429>
VStem: 170.905 308.191
LayerCount: 2
Fore
SplineSet
212.095703125 330 m 0xa0
 250.095703125 330 295.4296875 330.5 348.096679688 331.5 c 0
 400.763671875 332.5 430.096679688 333 436.096679688 333 c 0
 451.4296875 333 462.262695312 329.5 468.595703125 322.5 c 0
 474.928710938 315.5 478.428710938 306.333007812 479.095703125 295 c 0
 479.095703125 265.666992188 464.762695312 251 436.095703125 251 c 0x60
 427.428710938 251 393.928710938 249.666992188 335.595703125 247 c 0
 277.262695312 244.333007812 236.762695312 243 214.095703125 243 c 0
 185.428710938 243 171.095703125 257.333007812 171.095703125 286 c 0
 170.967773438 287.872070312 170.904296875 289.684570312 170.904296875 291.4375 c 0
 170.904296875 317.145507812 184.634765625 330 212.095703125 330 c 0xa0
EndSplineSet
Validated: 524289
EndChar

StartChar: period
Encoding: 46 46 14
Width: 650
GlyphClass: 2
Flags: HMW
HStem: -14.5617 154.604
VStem: 242.999 164.001
LayerCount: 2
Fore
SplineSet
327 -14 m 0
 323.536132812 -14.3740234375 320.161132812 -14.5615234375 316.875 -14.5615234375 c 0
 296.7578125 -14.5615234375 279.965820312 -7.5439453125 266.5 6.49609375 c 0
 250.83203125 22.8291015625 243 41.99609375 243 63.99609375 c 0
 243 84.6630859375 251.83203125 102.330078125 269.5 116.997070312 c 0
 287.166015625 131.6640625 306.333007812 139.331054688 327 139.998046875 c 0
 328.037109375 140.02734375 329.06640625 140.041992188 330.087890625 140.041992188 c 0
 352.029296875 140.041992188 370.16796875 133.194335938 384.5 119.499023438 c 0
 399.5 105.166015625 407 86.9990234375 407 64.9990234375 c 0
 407 43.666015625 399.66796875 25.8330078125 385 11.5 c 0
 370.333007812 -2.8330078125 351 -11.3330078125 327 -14 c 0
EndSplineSet
Validated: 524289
EndChar

StartChar: slash
Encoding: 47 47 15
Width: 650
GlyphClass: 2
Flags: W
LayerCount: 2
Fore
SplineSet
566.029296875 676 m 0
 548.696289062 642 500.029296875 558.49609375 420.029296875 425.49609375 c 0
 340.029296875 292.49609375 291.362304688 209.99609375 274.029296875 177.99609375 c 0
 263.362304688 157.329101562 246.029296875 122.329101562 222.029296875 72.99609375 c 0
 198.029296875 23.6630859375 183.029296875 -6.3369140625 177.029296875 -17.00390625 c 0
 166.362304688 -35.6708984375 152.862304688 -48.6708984375 136.529296875 -56.00390625 c 0
 128.362304688 -59.669921875 120.737304688 -61.5029296875 113.654296875 -61.5029296875 c 0
 106.571289062 -61.5029296875 100.029296875 -59.669921875 94.029296875 -56.0029296875 c 0
 84.029296875 -50.669921875 78.029296875 -38.3369140625 76.029296875 -19.00390625 c 0
 75.6767578125 -15.5927734375 75.5 -12.2333984375 75.5 -8.92578125 c 0
 75.5 6.51171875 79.34375 20.8193359375 87.0302734375 33.99609375 c 0
 184.36328125 193.99609375 267.696289062 336.329101562 337.029296875 460.99609375 c 0
 380.362304688 537.663085938 426.362304688 624.330078125 475.029296875 720.997070312 c 0
 480.362304688 731.6640625 487.6953125 739.831054688 497.028320312 745.498046875 c 0
 506.361328125 751.165039062 515.361328125 753.83203125 524.028320312 753.499023438 c 0
 532.6953125 753.166015625 541.362304688 751.333007812 550.029296875 748 c 0
 562.029296875 742 569.696289062 732.666992188 573.029296875 720 c 0
 574.009765625 716.274414062 574.5 712.375976562 574.5 708.3046875 c 0
 574.5 698.533203125 571.676757812 687.764648438 566.029296875 676 c 0
EndSplineSet
Validated: 524289
EndChar

StartChar: zero
Encoding: 48 48 16
Width: 650
GlyphClass: 2
Flags: HMW
HStem: -24 83.999 636.999 81.001
VStem: 89.0782 95.502 464.082 96.8403
LayerCount: 2
Fore
SplineSet
303.076171875 -24 m 0
 271.743164062 -24 242.912109375 -18.33203125 216.579101562 -6.9990234375 c 0
 190.24609375 4.333984375 167.74609375 20.0009765625 149.079101562 40.0009765625 c 0
 130.412109375 60.0009765625 115.745117188 85.0009765625 105.078125 115.000976562 c 0
 95.0390625 143.235351562 90.01953125 174.126953125 90.01953125 207.67578125 c 0
 90.01953125 209.7734375 90.0390625 211.881835938 90.078125 214 c 0
 90.078125 220.666992188 89.9111328125 237.166992188 89.578125 263.5 c 0
 89.2451171875 289.833007812 89.078125 310.833007812 89.078125 326.5 c 0
 89.078125 342.166992188 89.578125 363.833984375 90.578125 391.500976562 c 0
 91.578125 419.16796875 93.4111328125 443.000976562 96.078125 463.000976562 c 0
 98.7451171875 483.000976562 102.245117188 504.500976562 106.578125 527.500976562 c 0
 110.911132812 550.500976562 116.744140625 570.66796875 124.077148438 588.000976562 c 0
 140.077148438 630.000976562 167.077148438 662.16796875 205.077148438 684.500976562 c 0
 243.077148438 706.833984375 289.41015625 718.000976562 344.077148438 718.000976562 c 0
 371.41015625 718.000976562 397.077148438 713.333984375 421.077148438 704.000976562 c 0
 445.077148438 694.66796875 466.41015625 681.000976562 485.077148438 663.000976562 c 0
 503.744140625 645.000976562 519.244140625 621.66796875 531.577148438 593.000976562 c 0
 543.91015625 564.333984375 551.743164062 531.333984375 555.076171875 494.000976562 c 0
 557.743164062 460.66796875 559.576171875 422.834960938 560.576171875 380.501953125 c 0
 560.806640625 370.733398438 560.921875 360.947265625 560.921875 351.143554688 c 0
 560.921875 318.459960938 559.639648438 285.579101562 557.076171875 252.500976562 c 0
 553.743164062 209.500976562 549.076171875 176.66796875 543.076171875 154.000976562 c 0
 537.076171875 131.333984375 530.409179688 111.333984375 523.076171875 94.0009765625 c 0
 515.743164062 76.66796875 507.91015625 61.66796875 499.577148438 49.0009765625 c 0
 491.244140625 36.333984375 481.911132812 25.6669921875 471.578125 17 c 0
 461.245117188 8.3330078125 450.245117188 1.3330078125 438.578125 -4 c 0
 426.911132812 -9.3330078125 413.744140625 -13.5 399.077148438 -16.5 c 0
 384.41015625 -19.5 369.743164062 -21.5 355.076171875 -22.5 c 0
 340.409179688 -23.5 323.076171875 -24 303.076171875 -24 c 0
188.078125 230.000976562 m 0
 188.078125 227.333984375 188.249023438 223.333984375 188.58203125 218.000976562 c 0
 188.915039062 212.66796875 189.08203125 209.000976562 189.08203125 207.000976562 c 1
 278.415039062 329.000976562 358.748046875 454.333984375 430.081054688 583.000976562 c 1
 418.081054688 600.333984375 403.4140625 613.666992188 386.081054688 623 c 0
 368.748046875 632.333007812 350.081054688 637 330.081054688 637 c 0
 292.748046875 637 263.581054688 626.666992188 242.581054688 606 c 0
 221.581054688 585.333007812 205.748046875 552 195.081054688 506 c 0
 191.081054688 489.333007812 188.248046875 469.833007812 186.581054688 447.5 c 0
 185.19140625 428.885742188 184.497070312 407.029296875 184.497070312 381.930664062 c 0
 184.497070312 376.916992188 184.524414062 371.7734375 184.580078125 366.500976562 c 0
 184.913085938 334.833984375 185.24609375 312.500976562 185.579101562 299.500976562 c 0
 185.912109375 286.500976562 186.745117188 263.333984375 188.078125 230.000976562 c 0
449.08203125 168.000976562 m 0
 451.749023438 176.000976562 454.58203125 198 457.58203125 234 c 0
 460.58203125 270 462.749023438 311.166992188 464.08203125 357.5 c 0
 464.462890625 370.736328125 464.653320312 383.823242188 464.653320312 396.760742188 c 0
 464.653320312 429.109375 463.462890625 460.522460938 461.08203125 491 c 1
 389.749023438 344.333007812 305.749023438 221.333007812 209.08203125 122 c 1
 227.08203125 80.6669921875 258.415039062 60 303.08203125 60 c 0
 321.08203125 60 337.249023438 61.5 351.58203125 64.5 c 0
 365.915039062 67.5 379.58203125 72.8330078125 392.58203125 80.5 c 0
 405.58203125 88.1669921875 416.58203125 99.333984375 425.58203125 114.000976562 c 0
 434.58203125 128.66796875 442.415039062 146.66796875 449.08203125 168.000976562 c 0
EndSplineSet
Validated: 524289
EndChar

StartChar: one
Encoding: 49 49 17
Width: 650
GlyphClass: 2
Flags: HMW
HStem: -9 85.5 -5 89<118.004 141.004 118.004 141.004> 511.539 21G
VStem: 277.337 96.6644 287.003 91.498
LayerCount: 2
Fore
SplineSet
568.08203125 34.8388671875 m 0xb0
 568.08203125 22.892578125 564.556640625 12.779296875 557.50390625 4.5 c 0
 549.837890625 -4.5 536.337890625 -9 517.00390625 -9 c 0xb0
 508.337890625 -9 448.837890625 -8.3330078125 338.50390625 -7 c 0
 228.170898438 -5.6669921875 157.00390625 -5 125.00390625 -5 c 0
 110.337890625 -5 99.50390625 -1 92.50390625 7 c 0
 85.50390625 15 82.00390625 25.3330078125 82.00390625 38 c 0
 81.947265625 39.16015625 81.91796875 40.302734375 81.91796875 41.4267578125 c 0
 81.91796875 53.2294921875 85.11328125 63.0869140625 91.50390625 71 c 0
 98.50390625 79.6669921875 110.00390625 84 126.00390625 84 c 0
 156.00390625 84 207.00390625 83.6669921875 279.00390625 83 c 1
 279.00390625 109.666992188 278.670898438 131 278.00390625 147 c 0
 277.55859375 150.556640625 277.3359375 159.600585938 277.3359375 174.131835938 c 0x70
 277.3359375 181.38671875 277.392578125 190.009765625 277.502929688 200 c 0
 277.8359375 230 278.002929688 251.666992188 278.002929688 265 c 0
 278.002929688 278.333007812 278.669921875 303 280.002929688 339 c 0
 281.3359375 375 282.3359375 401.833007812 283.002929688 419.5 c 0
 283.669921875 437.166992188 285.002929688 465.166992188 287.002929688 503.5 c 0
 289.002929688 541.833007812 290.3359375 570 291.002929688 588 c 1
 241.669921875 546.666992188 205.669921875 522 183.002929688 514 c 0
 178.900390625 512.359375 174.783203125 511.5390625 170.6484375 511.5390625 c 0
 161.346679688 511.5390625 151.96484375 515.692382812 142.502929688 524 c 0
 129.47265625 535.44140625 122.95703125 546.8828125 122.95703125 558.32421875 c 0
 122.95703125 558.8828125 122.97265625 559.44140625 123.00390625 560 c 0
 123.00390625 570.666992188 125.3359375 580.166992188 130.002929688 588.5 c 0
 134.669921875 596.833007812 143.002929688 605.333007812 155.002929688 614 c 0
 174.3359375 628.666992188 194.669921875 644.833984375 216.001953125 662.500976562 c 0
 237.334960938 680.16796875 252.66796875 693.000976562 262.001953125 701.000976562 c 0
 271.333984375 709.000976562 281.001953125 715.833984375 291.001953125 721.500976562 c 0
 301.001953125 727.16796875 309.66796875 730.000976562 317.001953125 730.000976562 c 0
 331.001953125 730.000976562 345.66796875 724.000976562 361.001953125 712.000976562 c 0
 376.333984375 700.000976562 384.001953125 690.000976562 384.001953125 682.000976562 c 0
 384.001953125 666.66796875 382.16796875 612.16796875 378.501953125 518.500976562 c 0x68
 374.833984375 424.833984375 373.001953125 370.000976562 373.001953125 354.000976562 c 0
 373.001953125 287.333984375 373.333984375 231.666992188 374.001953125 187 c 0
 374.001953125 162.333007812 374.66796875 126.333007812 376.001953125 79 c 1
 395.333984375 79 415.666992188 78.6669921875 437 78 c 0
 458.333984375 77.3330078125 475.833984375 76.8330078125 489.5 76.5 c 0
 503.166992188 76.1669921875 513 76 519 76 c 0
 537.666992188 76 550.333984375 72.5 557.001953125 65.5 c 0
 562.42578125 59.8046875 568.08203125 50.1865234375 568.08203125 34.8388671875 c 0xb0
EndSplineSet
Validated: 524289
EndChar

StartChar: two
Encoding: 50 50 18
Width: 650
GlyphClass: 2
Flags: HMW
HStem: -18.0049 84.0049 -14.0059 91.0059 637.997 83.999
VStem: 91.8353 99.9971 444.833 98.9971
LayerCount: 2
Fore
SplineSet
524.83203125 -12 m 0x78
 496.83203125 -12 462.001953125 -12.6728515625 420.334960938 -14.005859375 c 0x78
 378.66796875 -15.3388671875 341.834960938 -16.671875 309.834960938 -18.0048828125 c 0
 277.834960938 -19.337890625 245.001953125 -20.0048828125 211.334960938 -20.0048828125 c 0
 177.66796875 -20.0048828125 151.500976562 -18.671875 132.833984375 -16.0048828125 c 0
 118.166992188 -14.671875 107.666992188 -5.671875 101.333984375 10.9951171875 c 0
 95.0009765625 27.662109375 91.833984375 51.662109375 91.833984375 82.9951171875 c 0
 91.833984375 111.662109375 98.0009765625 141.829101562 110.333984375 173.49609375 c 0
 122.666992188 205.163085938 140.833984375 235.49609375 164.833984375 264.49609375 c 0
 188.833984375 293.49609375 216.833984375 316.99609375 248.833984375 334.99609375 c 0
 320.166992188 374.99609375 366.166992188 402.99609375 386.833984375 418.99609375 c 0
 414.166992188 440.329101562 431.5 462.99609375 438.833007812 486.99609375 c 0
 442.833007812 500.99609375 444.833007812 518.329101562 444.833007812 538.99609375 c 0
 444.833007812 573.663085938 434.666015625 598.830078125 414.333007812 614.497070312 c 0
 394 630.1640625 365.166992188 637.997070312 327.833984375 637.997070312 c 0
 301.833984375 637.997070312 277.000976562 629.997070312 253.333984375 613.997070312 c 0
 229.666992188 597.997070312 211.5 580.330078125 198.833007812 560.997070312 c 0
 192.833007812 552.330078125 187.166015625 545.497070312 181.833007812 540.497070312 c 0
 176.5 535.497070312 170.833007812 532.6640625 164.833007812 531.997070312 c 0
 158.833007812 531.330078125 153.5 531.663085938 148.833007812 532.99609375 c 0
 144.166015625 534.329101562 137.833007812 536.662109375 129.833007812 539.995117188 c 0
 118.5 545.995117188 111.5 554.662109375 108.833007812 565.995117188 c 0
 108.166015625 568.828125 107.833007812 571.870117188 107.833007812 575.120117188 c 0
 107.833007812 584.870117188 110.833007812 596.495117188 116.833007812 609.995117188 c 0
 123.5 622.662109375 133.5 635.329101562 146.833007812 647.99609375 c 0
 160.166015625 660.663085938 175.499023438 672.663085938 192.83203125 683.99609375 c 0
 210.165039062 695.329101562 230.498046875 704.49609375 253.831054688 711.49609375 c 0
 277.1640625 718.49609375 300.497070312 721.99609375 323.830078125 721.99609375 c 0
 395.830078125 721.99609375 450.497070312 705.329101562 487.830078125 671.99609375 c 0
 525.163085938 638.663085938 543.830078125 588.663085938 543.830078125 521.99609375 c 0
 543.830078125 466.663085938 529.830078125 422.330078125 501.830078125 388.997070312 c 0
 481.163085938 364.330078125 443.830078125 336.997070312 389.830078125 306.997070312 c 0
 376.497070312 298.997070312 353.497070312 286.6640625 320.830078125 269.997070312 c 0
 292.163085938 254.6640625 268.163085938 235.831054688 248.830078125 213.498046875 c 0
 229.497070312 191.165039062 215.6640625 168.33203125 207.331054688 144.999023438 c 0
 198.998046875 121.666015625 193.831054688 96.3330078125 191.831054688 69 c 1
 229.1640625 67 265.1640625 66 299.831054688 66 c 0xb8
 334.498046875 66 361.498046875 66.5 380.831054688 67.5 c 0
 400.1640625 68.5 422.497070312 70 447.830078125 72 c 0
 473.163085938 74 489.830078125 75.3330078125 497.830078125 76 c 0
 498.497070312 76 501.6640625 76.1669921875 507.331054688 76.5 c 0
 512.998046875 76.8330078125 516.831054688 77 518.831054688 77 c 2
 528.831054688 77 l 2
 533.498046875 77 536.998046875 76.3330078125 539.331054688 75 c 0
 541.6640625 73.6669921875 544.331054688 72 547.331054688 70 c 0
 550.331054688 68 552.6640625 65.3330078125 554.331054688 62 c 0
 555.998046875 58.6669921875 557.165039062 54.6669921875 557.83203125 50 c 0
 558.499023438 42 558.166015625 33.5 556.833007812 24.5 c 0
 555.5 15.5 552 7.1669921875 546.333007812 -0.5 c 0
 540.666015625 -8.1669921875 533.499023438 -12 524.83203125 -12 c 0x78
EndSplineSet
Validated: 524289
EndChar

StartChar: three
Encoding: 51 51 19
Width: 650
GlyphClass: 2
Flags: HMW
HStem: -23.9941 84 318.006 100 638.006 83.998
VStem: 432.02 99.0491 454.002 99.998
LayerCount: 2
Fore
SplineSet
554 199 m 0xe8
 554 130.333007812 532.830078125 76.0078125 490.497070312 36.0078125 c 0
 448.1640625 -3.9921875 388.6640625 -23.9921875 311.997070312 -23.9921875 c 0
 288.6640625 -23.9921875 265.33203125 -20.4921875 241.998046875 -13.4921875 c 0
 218.665039062 -6.4921875 198.498046875 2.5078125 181.498046875 13.5078125 c 0
 164.498046875 24.5078125 149.33203125 36.5078125 135.998046875 49.5078125 c 0
 122.666015625 62.5078125 112.33203125 75.3408203125 105 88.0078125 c 0
 99 99.5078125 96 110.2578125 96 120.2578125 c 0
 96 123.590820312 96.33203125 126.840820312 97 130.0078125 c 0
 99.666015625 142.674804688 107 151.674804688 119 157.0078125 c 0
 128.1953125 161.60546875 136.755859375 163.904296875 144.68359375 163.904296875 c 0
 148.25 163.904296875 151.689453125 163.438476562 155 162.5078125 c 0
 165.66796875 159.5078125 176.333984375 151.0078125 187.000976562 137.0078125 c 0
 201.66796875 117.0078125 220.3359375 99.1748046875 243.001953125 83.5078125 c 0
 265.668945312 67.8408203125 290.001953125 60.0078125 316.001953125 60.0078125 c 0
 356.001953125 60.0078125 389.001953125 71.3408203125 415.001953125 94.0078125 c 0
 441.001953125 116.674804688 454.001953125 146.0078125 454.001953125 182.0078125 c 0xe8
 454.001953125 204.0078125 450.668945312 223.0078125 444.001953125 239.0078125 c 0
 437.3359375 255.0078125 426.66796875 269.0078125 412.000976562 281.0078125 c 0
 397.333984375 293.0078125 377.16796875 302.174804688 351.5 308.5078125 c 0
 325.833007812 314.840820312 296 318.0078125 262 318.0078125 c 0
 248 318.0078125 235.833007812 323.5078125 225.5 334.5078125 c 0
 215.16796875 345.5078125 210 357.674804688 210 371.0078125 c 0
 210 385.0078125 213.66796875 396.340820312 221 405.0078125 c 0
 228.333007812 413.674804688 239 418.0078125 253 418.0078125 c 0
 309 418.0078125 353 429.174804688 385 451.5078125 c 0
 416.34765625 473.384765625 432.020507812 505.017578125 432.020507812 546.407226562 c 0
 432.020507812 547.26953125 432.013671875 548.13671875 432 549.0078125 c 0
 432.01953125 549.903320312 432.029296875 550.791992188 432.029296875 551.673828125 c 0
 432.029296875 580.333984375 421.51953125 601.778320312 400.5 616.006835938 c 0
 378.833007812 630.673828125 347.666015625 638.006835938 307 638.006835938 c 0
 299 638.006835938 291.166015625 637.173828125 283.5 635.506835938 c 0
 275.83203125 633.83984375 269.665039062 632.172851562 264.998046875 630.505859375 c 0
 260.33203125 628.838867188 255.33203125 626.005859375 249.998046875 622.005859375 c 0
 244.665039062 618.005859375 240.165039062 614.672851562 236.498046875 612.005859375 c 0
 232.83203125 609.338867188 228.83203125 605.005859375 224.498046875 599.005859375 c 0
 220.165039062 593.005859375 216.83203125 588.838867188 214.5 586.505859375 c 0
 212.166015625 584.172851562 209 579.33984375 205 572.006835938 c 0
 194.33203125 557.33984375 183.5 548.672851562 172.5 546.005859375 c 0
 169.356445312 545.244140625 166.118164062 544.86328125 162.78515625 544.86328125 c 0
 154.451171875 544.86328125 145.5234375 547.244140625 136 552.005859375 c 0
 124.666015625 557.338867188 117.833984375 566.171875 115.5 578.504882812 c 0
 114.896484375 581.702148438 114.59375 585.044921875 114.59375 588.533203125 c 0
 114.59375 598.500976562 117.0625 609.658203125 122.001953125 622.004882812 c 0
 128.66796875 635.337890625 137.3359375 647.504882812 148.001953125 658.504882812 c 0
 158.668945312 669.504882812 171.001953125 680.004882812 185.001953125 690.004882812 c 0
 199.001953125 700.004882812 216.168945312 707.837890625 236.501953125 713.504882812 c 0
 256.8359375 719.171875 278.66796875 722.004882812 302.000976562 722.004882812 c 0
 378.66796875 722.004882812 436.3359375 706.004882812 475.001953125 674.004882812 c 0
 512.379882812 643.071289062 531.0703125 597.809570312 531.0703125 538.21875 c 0xf0
 531.0703125 536.1640625 531.046875 534.092773438 531.00390625 532.00390625 c 0
 531.00390625 512.670898438 528.50390625 495.170898438 523.50390625 479.50390625 c 0
 518.50390625 463.836914062 511.669921875 450.50390625 503.00390625 439.50390625 c 0
 494.3359375 428.50390625 483.668945312 418.836914062 471.001953125 410.50390625 c 0
 458.3359375 402.170898438 445.501953125 395.670898438 432.501953125 391.00390625 c 0
 419.501953125 386.336914062 405.668945312 382.669921875 391.001953125 380.002929688 c 1
 418.3359375 374.002929688 441.66796875 366.669921875 461.000976562 358.002929688 c 0
 480.333984375 349.3359375 497.16796875 338.168945312 511.5 324.501953125 c 0
 525.833007812 310.834960938 536.5 293.66796875 543.5 273.000976562 c 0
 550.5 252.333984375 554 227.666992188 554 199 c 0xe8
EndSplineSet
Validated: 524289
EndChar

StartChar: four
Encoding: 52 52 20
Width: 650
GlyphClass: 2
Flags: HMW
HStem: -23.001 21G 224.234 80.335
VStem: 392.003 87.4971 399.002 88.998 399.002 97.0561
LayerCount: 2
Fore
SplineSet
494 55 m 0xd0
 495.372070312 47.68359375 496.057617188 40.71875 496.057617188 34.107421875 c 0
 496.057617188 21.4423828125 493.540039062 10.072265625 488.502929688 -0.001953125 c 0
 480.8359375 -15.3349609375 469.668945312 -23.001953125 455.001953125 -23.001953125 c 0
 442.334960938 -23.001953125 430.001953125 -18.1689453125 418.001953125 -8.501953125 c 0
 406.001953125 1.1650390625 399.668945312 10.998046875 399.001953125 20.998046875 c 2
 399.001953125 59.998046875 l 1
 399.001953125 137.498046875 l 1xc8
 399.001953125 223.998046875 l 1xd0
 384.729492188 224.155273438 370.973632812 224.233398438 357.734375 224.233398438 c 0
 258.423828125 224.233398438 188.1796875 219.822265625 147.001953125 210.999023438 c 0
 136.334960938 208.999023438 126.66796875 209.33203125 118.000976562 211.999023438 c 0
 109.333984375 214.666015625 102.500976562 219.333007812 97.5009765625 226 c 0
 92.5009765625 232.666992188 88.66796875 240.333984375 86.0009765625 249.000976562 c 0
 83.333984375 257.66796875 82.0009765625 266.66796875 82.0009765625 276.000976562 c 0
 82.0009765625 285.333984375 83.66796875 294.333984375 87.0009765625 303.000976562 c 0
 93.66796875 321.66796875 111.500976562 352.16796875 140.500976562 394.500976562 c 0
 169.500976562 436.833984375 207.16796875 489.166992188 253.500976562 551.5 c 0
 299.833984375 613.833007812 332.666992188 659 352 687 c 0
 360.666992188 699.666992188 370.5 709.166992188 381.5 715.5 c 0
 392.5 721.833007812 403 725 413 725 c 0
 415.423828125 725.2421875 417.809570312 725.36328125 420.15625 725.36328125 c 0
 430.71875 725.36328125 440.5 722.909179688 449.5 718 c 0
 460.5 712 467.333007812 701.666992188 470 687 c 0
 474 663.666992188 477.166992188 627.666992188 479.5 579 c 0xe0
 481.833007812 530.333007812 483.333007812 489.166015625 484 455.499023438 c 0
 484.666992188 421.83203125 485.666992188 370.999023438 487 302.999023438 c 1
 498.333007812 302.33203125 511 301.999023438 525 301.999023438 c 0
 540.333007812 301.999023438 551.166015625 298.499023438 557.499023438 291.499023438 c 0
 563.83203125 284.499023438 567.33203125 275.33203125 567.999023438 263.999023438 c 0
 567.999023438 234.666015625 553.666015625 219.999023438 524.999023438 219.999023438 c 0
 511.666015625 219.999023438 499.333007812 220.33203125 488 220.999023438 c 1
 489.333007812 123.666015625 491.333007812 68.3330078125 494 55 c 0xd0
392.001953125 601.997070312 m 1xe0
 293.334960938 472.6640625 226.334960938 372.330078125 191.001953125 300.997070312 c 1
 228.146484375 303.377929688 274.134765625 304.568359375 328.967773438 304.568359375 c 0
 350.897460938 304.568359375 374.2421875 304.377929688 399.001953125 303.997070312 c 1
 399.001953125 428.6640625 396.668945312 527.997070312 392.001953125 601.997070312 c 1xe0
EndSplineSet
Validated: 524289
EndChar

StartChar: five
Encoding: 53 53 21
Width: 650
GlyphClass: 2
Flags: HMW
HStem: -18.001 83.998 419.997 89.0029 619 88.998 630 79.998
VStem: 97.598 93.405 104.998 88.0029 462.996 100.006
LayerCount: 2
Fore
SplineSet
563.001953125 296 m 0xda
 563.001953125 246.666992188 556.827148438 202.166015625 544.494140625 162.499023438 c 0
 532.162109375 122.83203125 514.828125 89.83203125 492.495117188 63.4990234375 c 0
 470.162109375 37.166015625 443.330078125 16.9990234375 411.99609375 2.9990234375 c 0
 380.663085938 -11.0009765625 346.330078125 -18.0009765625 308.998046875 -18.0009765625 c 0
 279.6640625 -18.0009765625 252.6640625 -15.0009765625 227.998046875 -9.0009765625 c 0
 203.330078125 -3.0009765625 182.663085938 5.33203125 165.99609375 15.9990234375 c 0
 149.330078125 26.666015625 135.330078125 37.8330078125 123.99609375 49.5 c 0
 112.6640625 61.1669921875 103.330078125 73.333984375 95.998046875 86.0009765625 c 0
 89.998046875 99.5009765625 86.998046875 111.125976562 86.998046875 120.875976562 c 0
 86.998046875 124.125976562 87.330078125 127.16796875 87.998046875 130.000976562 c 0
 90.6640625 141.333984375 97.6640625 150.000976562 108.998046875 156.000976562 c 0
 116.330078125 159.333984375 122.498046875 161.666992188 127.498046875 163 c 0
 132.498046875 164.333007812 137.998046875 164.666015625 143.998046875 163.999023438 c 0
 149.998046875 163.33203125 155.6640625 160.665039062 160.998046875 155.998046875 c 0
 166.330078125 151.331054688 171.998046875 144.6640625 177.998046875 135.997070312 c 0
 207.998046875 89.9970703125 248.6640625 66.6640625 299.998046875 65.9970703125 c 0
 349.998046875 65.9970703125 389.6640625 85.830078125 418.998046875 125.497070312 c 0
 448.330078125 165.1640625 462.998046875 218.331054688 462.998046875 284.998046875 c 0
 462.998046875 326.331054688 453.830078125 359.1640625 435.498046875 383.497070312 c 0
 417.1640625 407.830078125 388.998046875 419.997070312 350.998046875 419.997070312 c 0
 340.998046875 419.997070312 331.330078125 419.497070312 321.998046875 418.497070312 c 0
 312.6640625 417.497070312 304.6640625 416.1640625 297.998046875 414.497070312 c 0
 291.330078125 412.830078125 284.330078125 410.330078125 276.998046875 406.997070312 c 0
 269.6640625 403.6640625 263.831054688 400.997070312 259.498046875 398.997070312 c 0
 255.166015625 396.997070312 249.83203125 393.330078125 243.499023438 387.997070312 c 0
 237.166015625 382.6640625 232.999023438 378.997070312 230.999023438 376.997070312 c 0
 228.999023438 374.997070312 224.666015625 370.830078125 217.999023438 364.497070312 c 0
 211.33203125 358.1640625 207.33203125 354.331054688 205.999023438 352.998046875 c 0
 200.666015625 348.331054688 194.166015625 344.331054688 186.499023438 340.998046875 c 0
 178.83203125 337.665039062 170.33203125 335.498046875 160.999023438 334.498046875 c 0
 151.666015625 333.498046875 142.333984375 334.998046875 133 338.998046875 c 0
 121.66796875 343.665039062 113.16796875 353.998046875 107.5 369.998046875 c 0
 101.833984375 385.998046875 98.666015625 405.665039062 98 428.998046875 c 0
 97.732421875 438.331054688 97.599609375 447.530273438 97.599609375 456.596679688 c 0xda
 97.599609375 470.197265625 97.8984375 483.498046875 98.498046875 496.499023438 c 0
 99.498046875 518.166015625 100.83203125 541.499023438 102.498046875 566.499023438 c 0
 104.166015625 591.499023438 104.998046875 608.666015625 104.998046875 617.999023438 c 1
 99.666015625 626.666015625 96.33203125 636.499023438 95 647.499023438 c 0
 93.666015625 658.499023438 94.166015625 668.666015625 96.5 677.999023438 c 0
 98.83203125 687.33203125 103.5 695.33203125 110.5 701.999023438 c 0
 117.5 708.666015625 125.666015625 711.999023438 134.999023438 711.999023438 c 0
 159.666015625 711.999023438 217.833984375 711.33203125 309.5 709.999023438 c 0xd6
 401.166992188 708.666015625 471 707.999023438 519 707.999023438 c 0
 527.666992188 707.999023438 534.833984375 704.33203125 540.501953125 696.999023438 c 0
 546.16796875 689.666015625 549.834960938 681.333007812 551.501953125 672 c 0
 553.169921875 662.666992188 553.3359375 654 552.002929688 646 c 0
 551.3359375 641.333007812 550.169921875 637.333007812 548.501953125 634 c 0
 546.834960938 630.666992188 544.501953125 628.166992188 541.501953125 626.5 c 0
 538.501953125 624.833007812 535.834960938 623.333007812 533.501953125 622 c 0
 531.169921875 620.666992188 527.669921875 619.833984375 523.001953125 619.500976562 c 0
 518.334960938 619.16796875 515.001953125 619.000976562 513.001953125 619.000976562 c 0xe6
 511.001953125 619.000976562 507.169921875 619.333984375 501.501953125 620.000976562 c 0
 495.834960938 620.66796875 492.66796875 621.000976562 492.001953125 621.000976562 c 0
 482.66796875 621.000976562 466.001953125 622.000976562 442.001953125 624.000976562 c 0
 418.001953125 626.000976562 396.66796875 627.500976562 378.001953125 628.500976562 c 0
 359.333984375 629.500976562 333.333984375 630.000976562 300.001953125 630.000976562 c 0
 266.66796875 630.000976562 231.66796875 629.000976562 195.001953125 627.000976562 c 1
 195.001953125 620.333984375 194.333984375 601.000976562 193.001953125 569.000976562 c 0xd6
 191.66796875 537.000976562 190.834960938 513.833984375 190.501953125 499.500976562 c 0
 190.390625 494.727539062 190.334960938 489.270507812 190.334960938 483.129882812 c 0
 190.334960938 470.830078125 190.557617188 455.787109375 191.002929688 438 c 1
 209.669921875 458.666992188 235.002929688 475.666992188 267.002929688 489 c 0
 299.002929688 502.333007812 335.669921875 509 377.002929688 509 c 0
 406.3359375 509 432.8359375 503.5 456.502929688 492.5 c 0
 480.169921875 481.5 499.669921875 466.333007812 515.002929688 447 c 0
 530.3359375 427.666992188 542.169921875 405.166992188 550.501953125 379.5 c 0
 558.834960938 353.833007812 563.001953125 326 563.001953125 296 c 0xda
EndSplineSet
Validated: 524289
EndChar

StartChar: six
Encoding: 54 54 22
Width: 650
GlyphClass: 2
Flags: HMW
HStem: -21.9971 84.0049 393.004 87.9961
VStem: 84.9672 91.0658 467.033 98<227.333 249.672>
LayerCount: 2
Fore
SplineSet
565.033203125 246 m 0
 565.033203125 208.666992188 558.866210938 173.502929688 546.533203125 140.502929688 c 0
 534.200195312 107.502929688 517.3671875 79.169921875 496.034179688 55.5029296875 c 0
 474.701171875 31.8359375 449.201171875 13.0029296875 419.534179688 -0.9970703125 c 0
 389.8671875 -14.9970703125 358.3671875 -21.9970703125 325.034179688 -21.9970703125 c 0
 283.701171875 -21.9970703125 247.701171875 -14.1640625 217.034179688 1.5029296875 c 0
 186.3671875 17.169921875 161.200195312 39.8369140625 141.533203125 69.50390625 c 0
 121.866210938 99.1708984375 107.366210938 134.670898438 98.033203125 176.00390625 c 0
 89.322265625 214.580078125 84.966796875 257.51171875 84.966796875 304.798828125 c 0
 84.966796875 308.177734375 84.9892578125 311.579101562 85.0341796875 315.002929688 c 0
 85.701171875 372.3359375 91.3681640625 424.002929688 102.03515625 470.002929688 c 0
 112.702148438 516.002929688 127.53515625 554.669921875 146.53515625 586.002929688 c 0
 165.53515625 617.3359375 189.03515625 643.8359375 217.03515625 665.502929688 c 0
 245.03515625 687.169921875 275.202148438 703.669921875 307.53515625 715.002929688 c 0
 339.868164062 726.3359375 375.701171875 733.668945312 415.034179688 737.001953125 c 0
 417.954101562 737.255859375 420.807617188 737.3828125 423.594726562 737.3828125 c 0
 435.442382812 737.3828125 446.088867188 735.088867188 455.534179688 730.500976562 c 0
 467.201171875 724.833984375 473.701171875 715.666992188 475.034179688 703 c 0
 475.701171875 695 471.701171875 686.166992188 463.034179688 676.5 c 0
 454.3671875 666.833007812 444.700195312 660.333007812 434.033203125 657 c 0
 426.700195312 655 415.533203125 652.333007812 400.533203125 649 c 0
 385.533203125 645.666992188 372.700195312 642.5 362.033203125 639.5 c 0
 351.366210938 636.5 338.69921875 632 324.032226562 626 c 0
 309.365234375 620 294.865234375 611.333007812 280.532226562 600 c 0
 266.19921875 588.666992188 252.032226562 575 238.032226562 559 c 0
 223.365234375 541.666992188 209.865234375 518 197.532226562 488 c 0
 185.19921875 458 177.366210938 431.333007812 174.033203125 408 c 1
 194.700195312 432.666992188 221.700195312 451 255.033203125 463 c 0
 288.366210938 475 325.366210938 481 366.033203125 481 c 0
 396.700195312 481 424.033203125 476.666992188 448.033203125 468 c 0
 472.033203125 459.333007812 492.866210938 445.666015625 510.533203125 426.999023438 c 0
 528.200195312 408.33203125 541.700195312 383.83203125 551.033203125 353.499023438 c 0
 560.366210938 323.166015625 565.033203125 287.333007812 565.033203125 246 c 0
176.033203125 230.002929688 m 0
 177.366210938 215.3359375 180.3671875 200.506835938 185.034179688 185.506835938 c 0
 189.701171875 170.506835938 196.201171875 155.33984375 204.534179688 140.006835938 c 0
 212.8671875 124.673828125 222.700195312 111.340820312 234.033203125 100.0078125 c 0
 245.366210938 88.6748046875 259.033203125 79.5078125 275.033203125 72.5078125 c 0
 291.033203125 65.5078125 308.033203125 62.0078125 326.033203125 62.0078125 c 0
 350.700195312 62.0078125 374.033203125 70.6748046875 396.033203125 88.0078125 c 0
 418.033203125 105.340820312 435.366210938 127.173828125 448.033203125 153.506835938 c 0
 460.700195312 179.83984375 467.033203125 206.672851562 467.033203125 234.005859375 c 0
 467.033203125 265.338867188 464.366210938 291.671875 459.033203125 313.004882812 c 0
 453.700195312 334.337890625 445.200195312 350.670898438 433.533203125 362.00390625 c 0
 421.866210938 373.336914062 408.69921875 381.336914062 394.032226562 386.00390625 c 0
 379.365234375 390.670898438 361.365234375 393.00390625 340.032226562 393.00390625 c 0
 306.69921875 393.00390625 275.366210938 384.336914062 246.033203125 367.00390625 c 0
 216.700195312 349.670898438 192.700195312 327.670898438 174.033203125 301.00390625 c 1
 174.033203125 272.336914062 174.700195312 248.669921875 176.033203125 230.002929688 c 0
EndSplineSet
Validated: 524289
EndChar

StartChar: seven
Encoding: 55 55 23
Width: 650
GlyphClass: 2
Flags: HMW
HStem: -22.9443 21G 622.497 90.5
LayerCount: 2
Fore
SplineSet
224.741210938 26 m 0
 216.741210938 8.6669921875 206.236328125 -4.3349609375 193.236328125 -13.001953125 c 0
 183.294921875 -19.6298828125 173.451171875 -22.943359375 163.705078125 -22.943359375 c 0
 160.706054688 -22.943359375 157.715820312 -22.6298828125 154.735351562 -22.001953125 c 0
 140.735351562 -18.6689453125 130.90234375 -10.6689453125 125.235351562 1.998046875 c 0
 122.631835938 7.818359375 121.330078125 13.919921875 121.330078125 20.302734375 c 0
 121.330078125 27.8115234375 123.131835938 35.7099609375 126.735351562 43.998046875 c 0
 160.735351562 112.665039062 197.235351562 180.998046875 236.235351562 248.998046875 c 0
 275.235351562 316.998046875 307.568359375 371.165039062 333.235351562 411.498046875 c 0
 358.90234375 451.831054688 382.569335938 490.998046875 404.236328125 528.998046875 c 0
 425.903320312 566.998046875 440.403320312 597.998046875 447.736328125 621.998046875 c 1
 416.098632812 623.088867188 383.370117188 623.634765625 349.55078125 623.634765625 c 0
 321.370117188 623.634765625 292.431640625 623.255859375 262.736328125 622.498046875 c 0
 197.403320312 620.831054688 154.736328125 617.331054688 134.736328125 611.998046875 c 0
 126.736328125 609.998046875 119.569335938 610.331054688 113.236328125 612.998046875 c 0
 106.903320312 615.665039062 101.736328125 619.665039062 97.736328125 624.998046875 c 0
 93.736328125 630.331054688 90.736328125 635.998046875 88.736328125 641.998046875 c 0
 86.736328125 647.998046875 85.736328125 653.998046875 85.736328125 659.998046875 c 0
 85.736328125 671.998046875 88.736328125 681.498046875 94.736328125 688.498046875 c 0
 100.736328125 695.498046875 111.736328125 700.665039062 127.736328125 703.998046875 c 0
 152.403320312 708.665039062 186.5703125 711.665039062 230.237304688 712.998046875 c 0
 252.071289062 713.6640625 273.030273438 713.997070312 293.114257812 713.997070312 c 0
 313.198242188 713.997070312 332.407226562 713.6640625 350.740234375 712.998046875 c 0
 387.407226562 711.665039062 423.407226562 710.33203125 458.740234375 708.999023438 c 0
 494.073242188 707.666015625 513.073242188 706.999023438 515.740234375 706.999023438 c 0
 522.407226562 706.999023438 529.240234375 705.499023438 536.240234375 702.499023438 c 0
 543.240234375 699.499023438 549.573242188 694.666015625 555.240234375 687.999023438 c 0
 559.575195312 682.8984375 564.263671875 674.20703125 564.263671875 660.463867188 c 0
 564.263671875 650.153320312 561.088867188 638.331054688 554.739257812 624.997070312 c 0
 545.40625 604.997070312 528.573242188 574.830078125 504.240234375 534.497070312 c 0
 479.907226562 494.1640625 454.57421875 452.831054688 428.241210938 410.498046875 c 0
 401.908203125 368.165039062 369.908203125 311.83203125 332.241210938 241.499023438 c 0
 294.57421875 171.166015625 258.741210938 99.3330078125 224.741210938 26 c 0
EndSplineSet
Validated: 524289
EndChar

StartChar: eight
Encoding: 56 56 24
Width: 650
GlyphClass: 2
Flags: W
HStem: -27.9922 85.9971<231.679 406.527> 646.004 72.001<247.915 381.632>
VStem: 78.998 85.998<120.066 256.492> 105.999 93.998<487.944 598.703> 436.997 90.002<483.938 592.01> 477.996 93.0059<121.363 264.134>
LayerCount: 2
Fore
SplineSet
571.001953125 204 m 0xc4
 571.001953125 182.666992188 568.1640625 161.338867188 562.497070312 140.005859375 c 0
 556.830078125 118.672851562 547.330078125 97.83984375 533.997070312 77.5068359375 c 0
 520.6640625 57.173828125 504.331054688 39.3408203125 484.998046875 24.0078125 c 0
 465.665039062 8.6748046875 440.998046875 -3.8251953125 410.998046875 -13.4921875 c 0
 380.998046875 -23.1591796875 347.665039062 -27.9921875 310.998046875 -27.9921875 c 0
 277.665039062 -27.9921875 247.33203125 -23.3251953125 219.999023438 -13.9921875 c 0
 192.666015625 -4.6591796875 170.499023438 7.173828125 153.499023438 21.5068359375 c 0
 136.499023438 35.83984375 122.166015625 53.0068359375 110.499023438 73.0068359375 c 0
 98.83203125 93.0068359375 90.6650390625 113.173828125 85.998046875 133.506835938 c 0
 81.3310546875 153.83984375 78.998046875 174.672851562 78.998046875 196.005859375 c 0xe4
 78.998046875 218.672851562 84.6650390625 243.005859375 95.998046875 269.005859375 c 0
 107.331054688 295.005859375 123.831054688 319.005859375 145.498046875 341.005859375 c 0
 167.165039062 363.005859375 191.33203125 378.338867188 217.999023438 387.005859375 c 1
 182.666015625 403.672851562 155.166015625 425.505859375 135.499023438 452.505859375 c 0
 115.83203125 479.505859375 105.999023438 507.005859375 105.999023438 535.005859375 c 0
 105.999023438 543.005859375 106.666015625 551.505859375 107.999023438 560.505859375 c 0
 109.33203125 569.505859375 111.83203125 580.172851562 115.499023438 592.505859375 c 0
 119.166015625 604.838867188 124.166015625 616.671875 130.499023438 628.004882812 c 0
 136.83203125 639.337890625 145.499023438 650.504882812 156.499023438 661.504882812 c 0
 167.499023438 672.504882812 179.999023438 682.171875 193.999023438 690.504882812 c 0
 207.999023438 698.837890625 225.499023438 705.504882812 246.499023438 710.504882812 c 0
 267.499023438 715.504882812 290.33203125 718.004882812 314.999023438 718.004882812 c 0
 340.999023438 718.004882812 364.499023438 715.504882812 385.499023438 710.504882812 c 0
 406.499023438 705.504882812 424.166015625 698.837890625 438.499023438 690.504882812 c 0
 452.83203125 682.171875 465.499023438 672.504882812 476.499023438 661.504882812 c 0
 487.499023438 650.504882812 495.999023438 639.337890625 501.999023438 628.004882812 c 0
 507.999023438 616.671875 512.999023438 604.671875 516.999023438 592.004882812 c 0
 520.999023438 579.337890625 523.666015625 568.170898438 524.999023438 558.50390625 c 0
 526.33203125 548.836914062 526.999023438 539.669921875 526.999023438 531.002929688 c 0xd8
 526.999023438 523.002929688 525.999023438 515.002929688 523.999023438 507.002929688 c 0
 521.999023438 499.002929688 519.33203125 492.002929688 515.999023438 486.002929688 c 0
 512.666015625 480.002929688 508.333007812 473.669921875 503 467.002929688 c 0
 497.666992188 460.3359375 492.666992188 454.668945312 488 450.001953125 c 0
 483.333007812 445.334960938 477.333007812 440.001953125 470 434.001953125 c 0
 462.666992188 428.001953125 456.833984375 423.501953125 452.500976562 420.501953125 c 0
 448.16796875 417.501953125 442.000976562 413.334960938 434.000976562 408.001953125 c 0
 426.000976562 402.668945312 420.66796875 399.001953125 418.000976562 397.001953125 c 1
 442.66796875 386.334960938 464.334960938 374.334960938 483.001953125 361.001953125 c 0
 501.668945312 347.668945312 516.501953125 334.501953125 527.501953125 321.501953125 c 0
 538.501953125 308.501953125 547.334960938 294.668945312 554.001953125 280.001953125 c 0
 560.668945312 265.334960938 565.168945312 252.16796875 567.501953125 240.500976562 c 0
 569.834960938 228.833984375 571.001953125 216.666992188 571.001953125 204 c 0xc4
199.997070312 538.004882812 m 0xd8
 199.997070312 516.004882812 210.1640625 496.504882812 230.497070312 479.504882812 c 0
 250.830078125 462.504882812 284.330078125 445.337890625 330.997070312 428.004882812 c 1
 358.997070312 439.337890625 383.6640625 454.670898438 404.997070312 474.00390625 c 0
 426.330078125 493.336914062 436.997070312 511.336914062 436.997070312 528.00390625 c 0
 436.997070312 546.670898438 431.6640625 565.00390625 420.997070312 583.00390625 c 0
 410.330078125 601.00390625 395.497070312 616.00390625 376.497070312 628.00390625 c 0
 357.497070312 640.00390625 336.997070312 646.00390625 314.997070312 646.00390625 c 0
 283.6640625 646.00390625 256.6640625 634.836914062 233.997070312 612.50390625 c 0
 211.330078125 590.170898438 199.997070312 565.337890625 199.997070312 538.004882812 c 0xd8
314.997070312 58.0048828125 m 0
 334.330078125 58.0048828125 353.662109375 60.8330078125 372.995117188 66.5 c 0
 392.328125 72.1669921875 409.828125 80.333984375 425.495117188 91.0009765625 c 0
 441.162109375 101.66796875 453.829101562 115.66796875 463.49609375 133.000976562 c 0
 473.163085938 150.333984375 477.99609375 168.666992188 477.99609375 188 c 0
 477.99609375 198.666992188 476.99609375 208.833984375 474.99609375 218.500976562 c 0
 472.99609375 228.16796875 468.99609375 239.334960938 462.99609375 252.001953125 c 0
 456.99609375 264.668945312 448.663085938 276.3359375 437.99609375 287.002929688 c 0
 427.329101562 297.669921875 412.49609375 308.836914062 393.49609375 320.50390625 c 0
 374.49609375 332.170898438 352.329101562 342.670898438 326.99609375 352.00390625 c 1
 278.99609375 339.336914062 239.99609375 317.336914062 209.99609375 286.00390625 c 0
 179.99609375 254.670898438 164.99609375 221.337890625 164.99609375 186.004882812 c 0xe4
 164.99609375 161.337890625 172.49609375 139.004882812 187.49609375 119.004882812 c 0
 202.49609375 99.0048828125 221.329101562 83.837890625 243.99609375 73.5048828125 c 0
 266.663085938 63.171875 290.330078125 58.0048828125 314.997070312 58.0048828125 c 0
EndSplineSet
Validated: 524289
EndChar

StartChar: nine
Encoding: 57 57 25
Width: 650
GlyphClass: 2
Flags: HMW
HStem: -22.3812 21G 234.998 89 654.995 84.0049
VStem: 84.4688 98.0049 477.639 87.8928
LayerCount: 2
Fore
SplineSet
211.466796875 -22 m 0
 208.543945312 -22.25390625 205.686523438 -22.3828125 202.897460938 -22.3828125 c 0
 191.0546875 -22.3828125 180.416015625 -20.091796875 170.973632812 -15.5048828125 c 0
 159.306640625 -9.837890625 152.806640625 -0.6708984375 151.473632812 11.99609375 c 0
 150.806640625 20.6630859375 154.639648438 29.6630859375 162.97265625 38.99609375 c 0
 171.305664062 48.3291015625 181.138671875 54.662109375 192.471679688 57.9951171875 c 0
 199.8046875 59.9951171875 211.637695312 62.662109375 227.970703125 65.9951171875 c 0
 244.303710938 69.328125 258.970703125 72.828125 271.970703125 76.4951171875 c 0
 284.970703125 80.162109375 299.637695312 84.9951171875 315.970703125 90.9951171875 c 0
 332.303710938 96.9951171875 348.13671875 105.328125 363.469726562 115.995117188 c 0
 378.802734375 126.662109375 392.802734375 139.329101562 405.469726562 153.99609375 c 0
 422.13671875 173.329101562 436.969726562 195.829101562 449.969726562 221.49609375 c 0
 462.969726562 247.163085938 472.13671875 270.330078125 477.469726562 290.997070312 c 1
 458.802734375 269.6640625 434.802734375 254.997070312 405.469726562 246.997070312 c 0
 376.13671875 238.997070312 340.13671875 234.997070312 297.469726562 234.997070312 c 0
 268.13671875 234.997070312 240.13671875 241.830078125 213.469726562 255.497070312 c 0
 186.802734375 269.1640625 164.135742188 287.331054688 145.46875 309.998046875 c 0
 126.801757812 332.665039062 111.96875 358.83203125 100.96875 388.499023438 c 0
 89.96875 418.166015625 84.46875 448.333007812 84.46875 479 c 0
 84.46875 516.333007812 90.8017578125 551.166015625 103.46875 583.499023438 c 0
 116.135742188 615.83203125 133.135742188 643.33203125 154.46875 665.999023438 c 0
 175.801757812 688.666015625 201.134765625 706.499023438 230.467773438 719.499023438 c 0
 259.80078125 732.499023438 291.133789062 738.999023438 324.466796875 738.999023438 c 0
 406.466796875 738.999023438 467.466796875 707.999023438 507.466796875 645.999023438 c 0
 546.176757812 585.999023438 565.53125 500.711914062 565.53125 390.138671875 c 0
 565.53125 386.454101562 565.509765625 382.741210938 565.466796875 379 c 0
 564.799804688 325.666992188 558.1328125 277.5 545.465820312 234.5 c 0
 532.798828125 191.5 515.798828125 155 494.465820312 125 c 0
 473.1328125 95 447.6328125 69.3330078125 417.965820312 48 c 0
 388.298828125 26.6669921875 356.298828125 10.5 321.965820312 -0.5 c 0
 287.6328125 -11.5 250.799804688 -18.6669921875 211.466796875 -22 c 0
182.47265625 490.993164062 m 0
 182.47265625 436.326171875 194.302734375 394.829101562 217.969726562 366.49609375 c 0
 241.63671875 338.163085938 276.803710938 323.99609375 323.470703125 323.99609375 c 0
 352.803710938 323.99609375 381.470703125 330.663085938 409.470703125 343.99609375 c 0
 437.470703125 357.329101562 460.137695312 375.662109375 477.470703125 398.995117188 c 0
 477.58203125 402.21875 477.637695312 405.720703125 477.637695312 409.500976562 c 0
 477.637695312 428.388671875 476.249023438 454.219726562 473.471679688 486.994140625 c 0
 472.138671875 501.661132812 469.305664062 516.494140625 464.97265625 531.494140625 c 0
 460.639648438 546.494140625 454.139648438 561.661132812 445.47265625 576.994140625 c 0
 436.805664062 592.327148438 426.805664062 605.66015625 415.47265625 616.993164062 c 0
 404.139648438 628.326171875 390.47265625 637.493164062 374.47265625 644.493164062 c 0
 358.47265625 651.493164062 341.47265625 654.993164062 323.47265625 654.993164062 c 0
 298.805664062 654.993164062 275.47265625 646.993164062 253.47265625 630.993164062 c 0
 231.47265625 614.993164062 214.139648438 594.493164062 201.47265625 569.493164062 c 0
 188.805664062 544.493164062 182.47265625 518.326171875 182.47265625 490.993164062 c 0
EndSplineSet
Validated: 524289
EndChar

StartChar: colon
Encoding: 58 58 26
Width: 650
GlyphClass: 2
Flags: HMW
HStem: 39.8998 155.096 306.91 155.09
VStem: 259.71 127.695
LayerCount: 2
Fore
SplineSet
387.041015625 417 m 0
 387.283203125 413 387.404296875 408.956054688 387.404296875 404.868164062 c 0
 387.404296875 386.470703125 384.951171875 367.1796875 380.041015625 346.997070312 c 0
 376.708984375 333.6640625 369.375 323.497070312 358.041992188 316.497070312 c 0
 347.694335938 310.106445312 337.625 306.91015625 327.833984375 306.91015625 c 0
 326.900390625 306.91015625 325.970703125 306.939453125 325.041992188 306.997070312 c 0
 285.041992188 308.997070312 263.708984375 324.330078125 261.041992188 352.997070312 c 0
 260.154296875 364.994140625 259.708984375 379.211914062 259.708984375 395.651367188 c 0
 259.708984375 403.876953125 259.8203125 412.659179688 260.04296875 421.997070312 c 0
 260.04296875 430.6640625 262.54296875 437.831054688 267.54296875 443.498046875 c 0
 272.54296875 449.165039062 278.709960938 453.33203125 286.04296875 455.999023438 c 0
 293.376953125 458.666015625 300.376953125 460.333007812 307.04296875 461 c 0
 313.709960938 461.666992188 320.04296875 462 326.04296875 462 c 0
 332.04296875 462 338.209960938 461.333007812 344.54296875 460 c 0
 350.876953125 458.666992188 357.208984375 456.5 363.541992188 453.5 c 0
 369.875 450.5 375.208984375 445.833007812 379.541015625 439.5 c 0
 383.874023438 433.166992188 386.374023438 425.666992188 387.041015625 417 c 0
388.041015625 149.997070312 m 0
 389.541015625 141.249023438 390.291015625 132.40625 390.291015625 123.469726562 c 0
 390.291015625 108.571289062 388.206054688 93.412109375 384.0390625 77.9931640625 c 0
 380.706054688 64.66015625 372.373046875 54.8271484375 359.041015625 48.494140625 c 0
 346.978515625 42.7646484375 335.733398438 39.8994140625 325.307617188 39.8994140625 c 0
 324.209960938 39.8994140625 323.12109375 39.931640625 322.041015625 39.9951171875 c 0
 308.708984375 40.662109375 295.708984375 44.8291015625 283.041015625 52.49609375 c 0
 270.374023438 60.1630859375 263.374023438 70.99609375 262.041015625 84.99609375 c 0
 261.374023438 98.99609375 260.874023438 107.829101562 260.541015625 111.49609375 c 0
 260.208984375 115.163085938 260.541015625 121.99609375 261.541015625 131.99609375 c 0
 262.541015625 141.99609375 263.041015625 149.663085938 263.041015625 154.99609375 c 0
 263.041015625 162.99609375 265.374023438 169.99609375 270.041015625 175.99609375 c 0
 274.708984375 181.99609375 280.541015625 186.163085938 287.541015625 188.49609375 c 0
 294.541015625 190.829101562 301.374023438 192.49609375 308.041015625 193.49609375 c 0
 314.708984375 194.49609375 321.041015625 194.99609375 327.041015625 194.99609375 c 0
 335.041015625 194.99609375 343.041015625 193.829101562 351.041015625 191.49609375 c 0
 359.041015625 189.163085938 366.708984375 184.330078125 374.041015625 176.997070312 c 0
 381.374023438 169.6640625 386.041015625 160.6640625 388.041015625 149.997070312 c 0
EndSplineSet
Validated: 524289
EndChar

StartChar: semicolon
Encoding: 59 59 27
Width: 650
GlyphClass: 2
Flags: HMW
HStem: 264.912 155.087
VStem: 290.098 127.698
LayerCount: 2
Fore
SplineSet
417.432617188 375 m 0
 417.674804688 371.000976562 417.795898438 366.958984375 417.795898438 362.872070312 c 0
 417.795898438 344.473632812 415.340820312 325.182617188 410.431640625 304.999023438 c 0
 407.098632812 291.666015625 399.931640625 281.499023438 388.931640625 274.499023438 c 0
 378.888671875 268.108398438 368.706054688 264.912109375 358.384765625 264.912109375 c 0
 357.401367188 264.912109375 356.416992188 264.94140625 355.431640625 264.999023438 c 0
 346.764648438 265.666015625 337.931640625 267.499023438 328.931640625 270.499023438 c 0
 319.931640625 273.499023438 311.598632812 278.666015625 303.931640625 285.999023438 c 0
 296.264648438 293.33203125 292.09765625 301.999023438 291.430664062 311.999023438 c 0
 290.541992188 323.99609375 290.09765625 338.213867188 290.09765625 354.653320312 c 0
 290.09765625 362.87890625 290.208984375 371.661132812 290.431640625 380.999023438 c 0
 290.431640625 388.999023438 292.764648438 395.999023438 297.431640625 401.999023438 c 0
 302.098632812 407.999023438 308.265625 412.166015625 315.932617188 414.499023438 c 0
 323.599609375 416.83203125 330.932617188 418.499023438 337.932617188 419.499023438 c 0
 344.932617188 420.499023438 351.099609375 420.666015625 356.432617188 419.999023438 c 0
 362.432617188 419.999023438 368.432617188 419.499023438 374.432617188 418.499023438 c 0
 380.432617188 417.499023438 386.765625 415.33203125 393.432617188 411.999023438 c 0
 400.099609375 408.666015625 405.599609375 403.833007812 409.932617188 397.5 c 0
 414.265625 391.166992188 416.765625 383.666992188 417.432617188 375 c 0
398.431640625 74 m 0
 397.098632812 52.6669921875 375.431640625 -34.333984375 333.431640625 -187.000976562 c 0
 330.098632812 -201.000976562 323.265625 -211.16796875 312.932617188 -217.500976562 c 0
 303.583984375 -223.23046875 294.098632812 -226.095703125 284.4765625 -226.095703125 c 0
 283.462890625 -226.095703125 282.448242188 -226.063476562 281.431640625 -226 c 0
 268.098632812 -225.333007812 256.265625 -221 245.932617188 -213 c 0
 236.780273438 -205.9140625 232.204101562 -196.474609375 232.204101562 -184.681640625 c 0
 232.204101562 -172.114257812 240.10546875 -128.228515625 253.431640625 -63 c 0
 266.098632812 -1 276.098632812 46.3330078125 283.431640625 79 c 0
 285.431640625 89 288.431640625 97 292.431640625 103 c 0
 296.431640625 109 300.931640625 113 305.931640625 115 c 0
 310.931640625 117 316.264648438 118.333007812 321.931640625 119 c 0
 327.598632812 119.666992188 332.431640625 119.666992188 336.431640625 119 c 0
 342.431640625 119 348.931640625 118.166992188 355.931640625 116.5 c 0
 362.931640625 114.833007812 369.931640625 112.5 376.931640625 109.5 c 0
 383.931640625 106.5 389.431640625 102 393.431640625 96 c 0
 397.431640625 90 399.098632812 82.6669921875 398.431640625 74 c 0
EndSplineSet
Validated: 524289
EndChar

StartChar: less
Encoding: 60 60 28
Width: 650
GlyphClass: 2
Flags: HMW
HStem: -12.3989 21G
LayerCount: 2
Fore
SplineSet
570.041015625 14 m 0
 566.708007812 7.3330078125 561.708007812 1.6689453125 555.041015625 -2.998046875 c 0
 548.374023438 -7.6650390625 539.541015625 -10.6650390625 528.541015625 -11.998046875 c 0
 526.341796875 -12.2646484375 524.041992188 -12.3974609375 521.642578125 -12.3974609375 c 0
 512.041992188 -12.3974609375 500.841796875 -10.2646484375 488.041015625 -5.998046875 c 0
 471.374023438 -0.6650390625 450.874023438 11.001953125 426.541015625 29.001953125 c 0
 402.208007812 47.001953125 375.875 68.501953125 347.541992188 93.501953125 c 0
 319.208984375 118.501953125 291.041992188 144.001953125 263.041992188 170.001953125 c 0
 235.041992188 196.001953125 205.541992188 222.834960938 174.541992188 250.501953125 c 0
 143.541992188 278.168945312 117.375 299.668945312 96.0419921875 315.001953125 c 0
 87.375 321.001953125 81.7080078125 330.001953125 79.041015625 342.001953125 c 0
 77.7861328125 347.6484375 77.158203125 353.184570312 77.158203125 358.610351562 c 0
 77.158203125 364.713867188 77.9521484375 370.677734375 79.5400390625 376.500976562 c 0
 82.5400390625 387.500976562 88.373046875 395.333984375 97.0400390625 400.000976562 c 0
 135.040039062 428.000976562 179.540039062 463.16796875 230.540039062 505.500976562 c 0
 281.540039062 547.833984375 328.20703125 586.166992188 370.540039062 620.5 c 0
 412.873046875 654.833007812 450.373046875 682 483.040039062 702 c 0
 493.70703125 708.666992188 503.540039062 712.166992188 512.540039062 712.5 c 0
 521.540039062 712.833007812 529.373046875 711.166015625 536.040039062 707.499023438 c 0
 542.70703125 703.83203125 548.540039062 699.33203125 553.540039062 693.999023438 c 0
 558.540039062 688.666015625 562.373046875 682.999023438 565.040039062 676.999023438 c 0
 567.673828125 672.0234375 568.991210938 667.015625 568.991210938 661.975585938 c 0
 568.991210938 655.536132812 566.840820312 649.043945312 562.540039062 642.499023438 c 0
 554.873046875 630.83203125 540.040039062 616.999023438 518.040039062 600.999023438 c 0
 480.70703125 574.999023438 423.874023438 532.33203125 347.541015625 472.999023438 c 0
 271.208007812 413.666015625 223.041015625 375.999023438 203.041015625 359.999023438 c 1
 229.041015625 339.999023438 257.708007812 315.83203125 289.041015625 287.499023438 c 0
 320.374023438 259.166015625 348.374023438 233.499023438 373.041015625 210.499023438 c 0
 397.708007812 187.499023438 424.041015625 163.999023438 452.041015625 139.999023438 c 0
 480.041015625 115.999023438 504.041015625 96.9990234375 524.041015625 82.9990234375 c 0
 545.374023438 68.9990234375 559.541015625 56.83203125 566.541015625 46.4990234375 c 0
 570.741210938 40.298828125 572.841796875 33.9189453125 572.841796875 27.359375 c 0
 572.841796875 22.986328125 571.908203125 18.533203125 570.041015625 14 c 0
EndSplineSet
Validated: 524289
EndChar

StartChar: equal
Encoding: 61 61 29
Width: 650
GlyphClass: 2
Flags: HMW
HStem: 246.996 83 442.999 85.0725
LayerCount: 2
Fore
SplineSet
181.038085938 528 m 0
 219.038085938 526.666992188 258.206054688 525.99609375 298.540039062 525.99609375 c 0
 338.873046875 525.99609375 376.540039062 526.329101562 411.540039062 526.99609375 c 0
 446.540039062 527.663085938 467.373046875 527.99609375 474.040039062 527.99609375 c 0
 489.373046875 527.99609375 500.206054688 524.663085938 506.538085938 517.99609375 c 0
 512.872070312 511.329101562 516.372070312 502.329101562 517.038085938 490.99609375 c 0
 517.038085938 484.99609375 516.372070312 479.49609375 515.038085938 474.49609375 c 0
 513.706054688 469.49609375 511.706054688 464.663085938 509.038085938 459.99609375 c 0
 506.372070312 455.329101562 502.038085938 451.829101562 496.038085938 449.49609375 c 0
 490.038085938 447.163085938 482.706054688 446.330078125 474.038085938 446.997070312 c 0
 458.030273438 447.442382812 441.502929688 447.665039062 424.458007812 447.665039062 c 0
 415.947265625 447.665039062 407.307617188 447.609375 398.538085938 447.498046875 c 0
 372.205078125 447.165039062 335.705078125 446.33203125 289.038085938 444.999023438 c 0
 242.370117188 443.666015625 208.038085938 442.999023438 186.038085938 442.999023438 c 0
 169.370117188 442.999023438 156.370117188 446.999023438 147.038085938 454.999023438 c 0
 133.095703125 466.950195312 132.959960938 479.587890625 132.959960938 486.887695312 c 0
 132.959960938 498.295898438 136.653320312 508 144.038085938 516 c 0
 151.466796875 524.047851562 162.630859375 528.071289062 177.530273438 528.071289062 c 0
 178.677734375 528.071289062 179.846679688 528.047851562 181.038085938 528 c 0
184.040039062 329.99609375 m 0
 201.626953125 329.7734375 220.180664062 329.662109375 239.700195312 329.662109375 c 0
 278.635742188 329.662109375 321.416015625 330.10546875 368.041015625 330.993164062 c 0
 438.041015625 332.326171875 473.374023438 332.993164062 474.041015625 332.993164062 c 0
 489.374023438 332.993164062 500.206054688 329.493164062 506.540039062 322.493164062 c 0
 512.873046875 315.493164062 516.373046875 306.326171875 517.040039062 294.993164062 c 0
 517.040039062 288.993164062 516.373046875 283.493164062 515.040039062 278.493164062 c 0
 513.706054688 273.493164062 511.706054688 268.66015625 509.040039062 263.993164062 c 0
 506.373046875 259.326171875 502.040039062 255.826171875 496.040039062 253.493164062 c 0
 490.040039062 251.16015625 482.706054688 250.327148438 474.040039062 250.994140625 c 0
 458.032226562 251.439453125 441.357421875 251.662109375 424.014648438 251.662109375 c 0
 415.356445312 251.662109375 406.530273438 251.606445312 397.540039062 251.495117188 c 0
 370.540039062 251.162109375 333.373046875 250.329101562 286.040039062 248.99609375 c 0
 238.706054688 247.663085938 204.040039062 246.99609375 182.040039062 246.99609375 c 0
 165.373046875 246.99609375 153.040039062 251.163085938 145.040039062 259.49609375 c 0
 133.663085938 271.346679688 132.967773438 284.059570312 132.967773438 292.397460938 c 0
 132.967773438 302.677734375 136.991210938 311.376953125 145.040039062 318.49609375 c 0
 153.706054688 326.163085938 166.706054688 329.99609375 184.040039062 329.99609375 c 0
EndSplineSet
Validated: 524289
EndChar

StartChar: greater
Encoding: 62 62 30
Width: 650
GlyphClass: 2
Flags: W
LayerCount: 2
Fore
SplineSet
166.842773438 5 m 0
 156.842773438 -1 147.174804688 -4.33203125 137.840820312 -4.9990234375 c 0
 128.5078125 -5.666015625 120.5078125 -4.166015625 113.840820312 -0.4990234375 c 0
 107.173828125 3.16796875 101.506835938 7.66796875 96.83984375 13.0009765625 c 0
 92.1728515625 18.333984375 88.505859375 24.0009765625 85.8388671875 30.0009765625 c 0
 83.138671875 35.1005859375 81.7890625 40.234375 81.7890625 45.4013671875 c 0
 81.7890625 51.716796875 83.8056640625 58.0830078125 87.8388671875 64.5 c 0
 95.171875 76.1669921875 110.171875 90 132.838867188 106 c 0
 170.171875 132 226.838867188 174.666992188 302.838867188 234 c 0
 378.838867188 293.333007812 427.506835938 331 448.838867188 347 c 1
 422.838867188 367 393.671875 391.166992188 361.338867188 419.5 c 0
 329.006835938 447.833007812 300.838867188 473.5 276.838867188 496.5 c 0
 252.838867188 519.5 226.838867188 543 198.838867188 567 c 0
 170.838867188 591 146.171875 610 124.838867188 624 c 0
 103.505859375 638 89.3388671875 650.166992188 82.3388671875 660.5 c 0
 78.3662109375 666.364257812 76.3798828125 672.389648438 76.3798828125 678.576171875 c 0
 76.3798828125 683.290039062 77.533203125 688.09765625 79.83984375 692.998046875 c 0
 83.1728515625 699.665039062 88.005859375 705.33203125 94.3388671875 709.999023438 c 0
 100.671875 714.666015625 109.671875 717.666015625 121.338867188 718.999023438 c 0
 123.671875 719.265625 126.078125 719.3984375 128.557617188 719.3984375 c 0
 138.479492188 719.3984375 149.573242188 717.265625 161.838867188 712.999023438 c 0
 178.506835938 707.666015625 199.172851562 696.166015625 223.83984375 678.499023438 c 0
 248.506835938 660.83203125 275.006835938 639.33203125 303.33984375 613.999023438 c 0
 331.672851562 588.666015625 359.83984375 562.999023438 387.83984375 536.999023438 c 0
 415.83984375 510.999023438 445.172851562 484.33203125 475.83984375 456.999023438 c 0
 506.506835938 429.666015625 533.174804688 407.999023438 555.840820312 391.999023438 c 0
 563.840820312 385.999023438 569.174804688 376.999023438 571.840820312 364.999023438 c 0
 573.026367188 359.665039062 573.620117188 354.4296875 573.620117188 349.29296875 c 0
 573.620117188 342.874023438 572.694335938 336.609375 570.842773438 330.499023438 c 0
 567.508789062 319.499023438 561.842773438 311.666015625 553.842773438 306.999023438 c 0
 515.842773438 278.999023438 471.342773438 243.83203125 420.342773438 201.499023438 c 0
 369.342773438 159.166015625 322.674804688 120.833007812 280.342773438 86.5 c 0
 238.008789062 52.1669921875 200.17578125 25 166.842773438 5 c 0
EndSplineSet
Validated: 524289
EndChar

StartChar: question
Encoding: 63 63 31
Width: 650
GlyphClass: 2
Flags: HMW
HStem: -14.5656 154.604 637.999 84.001
VStem: 221.326 163 433.328 99
LayerCount: 2
Fore
SplineSet
356.328125 262 m 0
 353.661132812 244.666992188 347.490234375 231.330078125 337.82421875 221.997070312 c 0
 331.37890625 215.775390625 323.083007812 212.6640625 312.935546875 212.6640625 c 0
 307.861328125 212.6640625 302.32421875 213.442382812 296.32421875 214.998046875 c 0
 277.657226562 219.665039062 265.32421875 228.33203125 259.32421875 240.999023438 c 0
 256.1484375 247.705078125 254.559570312 255.625 254.559570312 264.759765625 c 0
 254.559570312 272.879882812 255.814453125 281.959960938 258.32421875 291.999023438 c 0
 262.9921875 309.999023438 269.82421875 326.999023438 278.82421875 342.999023438 c 0
 287.82421875 358.999023438 297.657226562 372.666015625 308.32421875 383.999023438 c 0
 318.9921875 395.33203125 330.158203125 406.165039062 341.825195312 416.498046875 c 0
 353.4921875 426.831054688 364.66015625 436.498046875 375.326171875 445.498046875 c 0
 385.993164062 454.498046875 395.66015625 463.665039062 404.328125 472.998046875 c 0
 412.994140625 482.331054688 419.994140625 492.498046875 425.328125 503.498046875 c 0
 430.66015625 514.498046875 433.328125 526.331054688 433.328125 538.998046875 c 0
 433.328125 573.665039062 423.16015625 598.83203125 402.828125 614.499023438 c 0
 382.494140625 630.166015625 353.661132812 637.999023438 316.328125 637.999023438 c 0
 306.99609375 637.999023438 297.662109375 635.83203125 288.329101562 631.499023438 c 0
 278.99609375 627.166015625 270.829101562 622.333007812 263.829101562 617 c 0
 256.829101562 611.666992188 249.49609375 604.5 241.829101562 595.5 c 0
 234.162109375 586.5 228.162109375 578.833007812 223.829101562 572.5 c 0
 219.49609375 566.166992188 214.329101562 558.666992188 208.329101562 550 c 0
 202.329101562 541.333007812 196.662109375 534.5 191.329101562 529.5 c 0
 185.99609375 524.5 180.329101562 521.833007812 174.329101562 521.5 c 0
 168.329101562 521.166992188 162.99609375 521.5 158.329101562 522.5 c 0
 153.662109375 523.5 147.662109375 525.666992188 140.329101562 529 c 0
 128.99609375 535 121.829101562 543.666992188 118.829101562 555 c 0
 118.057617188 557.9140625 117.671875 561.048828125 117.671875 564.404296875 c 0
 117.671875 574.096679688 120.890625 585.62890625 127.329101562 599 c 0
 134.662109375 613 143.49609375 626.5 153.828125 639.5 c 0
 164.161132812 652.5 176.994140625 665.5 192.328125 678.5 c 0
 207.66015625 691.5 225.828125 702 246.828125 710 c 0
 267.828125 718 289.66015625 722 312.328125 722 c 0
 384.328125 722 438.994140625 705.333007812 476.328125 672 c 0
 513.66015625 638.666992188 532.328125 588.666992188 532.328125 522 c 0
 532.328125 504 529.494140625 487.666992188 523.828125 473 c 0
 518.16015625 458.333007812 510.66015625 445.666015625 501.328125 434.999023438 c 0
 491.994140625 424.33203125 481.494140625 414.33203125 469.828125 404.999023438 c 0
 458.16015625 395.666015625 446.16015625 386.333007812 433.828125 377 c 0
 421.494140625 367.666992188 410.161132812 358 399.828125 348 c 0
 389.49609375 338 380.328125 325.5 372.328125 310.5 c 0
 364.328125 295.5 358.99609375 279.333007812 356.328125 262 c 0
305.32421875 -14.00390625 m 0
 301.861328125 -14.3779296875 298.486328125 -14.5654296875 295.200195312 -14.5654296875 c 0
 275.083007812 -14.5654296875 258.291015625 -7.5478515625 244.82421875 6.4921875 c 0
 229.157226562 22.8251953125 221.32421875 41.9921875 221.32421875 63.9921875 c 0
 221.32421875 84.6591796875 229.82421875 102.326171875 246.82421875 116.993164062 c 0
 263.82421875 131.66015625 283.32421875 139.327148438 305.32421875 139.994140625 c 0
 306.361328125 140.0234375 307.390625 140.038085938 308.411132812 140.038085938 c 0
 330.33984375 140.038085938 348.309570312 133.190429688 362.32421875 119.495117188 c 0
 376.9921875 105.162109375 384.32421875 86.9951171875 384.32421875 64.9951171875 c 0
 384.32421875 43.662109375 377.157226562 25.8291015625 362.82421875 11.49609375 c 0
 348.4921875 -2.8369140625 329.32421875 -11.3369140625 305.32421875 -14.00390625 c 0
EndSplineSet
Validated: 524289
EndChar

StartChar: at
Encoding: 64 64 32
Width: 650
GlyphClass: 2
Flags: HMW
HStem: -129.182 85.178 102.002 77.9951 118.002 79.9941 381 77.1335 612.994 90.0078
VStem: 67.0004 87.0029 190.001 76.999 371.999 80.002 510.003 72.998
LayerCount: 2
Fore
SplineSet
532.005859375 5 m 0xdf80
 528.673828125 -4.3330078125 525.166015625 -12.5009765625 521.499023438 -19.5009765625 c 0
 517.83203125 -26.5009765625 512.83203125 -35.16796875 506.499023438 -45.5009765625 c 0
 500.166015625 -55.833984375 493.499023438 -64.6669921875 486.499023438 -72 c 0
 479.499023438 -79.3330078125 470.33203125 -86.8330078125 458.999023438 -94.5 c 0
 447.666015625 -102.166992188 435.499023438 -108.5 422.499023438 -113.5 c 0
 409.499023438 -118.5 393.999023438 -122.5 375.999023438 -125.5 c 0
 361.272460938 -127.954101562 345.654296875 -129.181640625 329.142578125 -129.181640625 c 0
 325.471679688 -129.181640625 321.7578125 -129.12109375 317.999023438 -129 c 0
 282.666015625 -129 249.666015625 -120.333007812 218.999023438 -103 c 0
 188.33203125 -85.6669921875 161.83203125 -61.5 139.499023438 -30.5 c 0
 117.166015625 0.5 99.5 38.1669921875 86.5 82.5 c 0
 73.5 126.833007812 67 175.333007812 67 228 c 0
 67 286.666992188 71.5 341.333984375 80.5 392.000976562 c 0
 89.5 442.66796875 102.33203125 486.834960938 119 524.501953125 c 0
 135.666015625 562.168945312 155.333984375 594.501953125 178 621.501953125 c 0
 200.666992188 648.501953125 225.666992188 668.834960938 253 682.501953125 c 0
 280.333984375 696.168945312 309 703.001953125 339 703.001953125 c 0
 361.666992188 703.001953125 382 701.168945312 400 697.501953125 c 0
 418 693.834960938 435.5 687.834960938 452.5 679.501953125 c 0
 469.5 671.168945312 484.5 660.001953125 497.5 646.001953125 c 0
 510.5 632.001953125 522.5 614.501953125 533.5 593.501953125 c 0
 544.5 572.501953125 553.5 548.001953125 560.5 520.001953125 c 0
 567.5 492.001953125 573 459.001953125 577 421.001953125 c 0
 581 383.001953125 583 340.334960938 583 293.001953125 c 0
 583 269.001953125 581.166992188 246.168945312 577.5 224.501953125 c 0
 573.833984375 202.834960938 568.5 182.501953125 561.5 163.501953125 c 0
 554.5 144.501953125 544.166992188 129.501953125 530.5 118.501953125 c 0
 516.833984375 107.501953125 501 102.001953125 483 102.001953125 c 0xdf80
 435 102.001953125 408 130.001953125 402 186.001953125 c 1
 386.666992188 140.668945312 357.666992188 118.001953125 315 118.001953125 c 0
 275.666992188 118.001953125 245 130.334960938 223 155.001953125 c 0
 201 179.668945312 190 217.3359375 190 268.002929688 c 0
 190 293.3359375 192.833984375 316.668945312 198.5 338.001953125 c 0
 204.166992188 359.334960938 211.833984375 377.501953125 221.501953125 392.501953125 c 0
 231.16796875 407.501953125 242.501953125 420.168945312 255.501953125 430.501953125 c 0
 268.501953125 440.834960938 282.66796875 448.16796875 298.001953125 452.500976562 c 0
 311.2890625 456.255859375 324.827148438 458.133789062 338.616210938 458.133789062 c 0
 340.73828125 458.133789062 342.8671875 458.088867188 345.001953125 458 c 0
 361.001953125 457.333007812 377.001953125 453.666015625 393.001953125 446.999023438 c 0
 408.334960938 440.999023438 420.66796875 432.999023438 430.001953125 422.999023438 c 0
 439.333984375 412.999023438 441.666992188 403.999023438 437 395.999023438 c 0
 434.333984375 390.666015625 431.333984375 386.333007812 428 383 c 0
 424.666992188 379.666992188 420.666992188 377.333984375 416 376.000976562 c 0
 411.333984375 374.66796875 407 373.66796875 403 373.000976562 c 0
 399 372.333984375 394 372.500976562 388 373.500976562 c 0
 382 374.500976562 377.333984375 375.333984375 374 376.000976562 c 0
 370.666992188 376.66796875 365.666992188 378.000976562 359 380.000976562 c 0
 350.333984375 381.333984375 341.833984375 381.666992188 333.5 381 c 0
 325.166992188 380.333007812 317 377.5 309 372.5 c 0
 301 367.5 294 361.166992188 288 353.5 c 0
 282 345.833007812 277 335.666015625 273 322.999023438 c 0
 269 310.33203125 267 295.999023438 267 279.999023438 c 0
 267 271.33203125 267.5 263.165039062 268.5 255.498046875 c 0
 269.5 247.831054688 271.5 239.1640625 274.5 229.497070312 c 0
 277.5 219.830078125 282.166992188 212.163085938 288.5 206.49609375 c 0
 294.833984375 200.829101562 302.666015625 197.99609375 311.999023438 197.99609375 c 0xbf80
 333.33203125 197.99609375 348.33203125 206.163085938 356.999023438 222.49609375 c 0
 365.666015625 238.829101562 370.666015625 265.99609375 371.999023438 303.99609375 c 0
 371.999023438 314.663085938 380.666015625 323.330078125 397.999023438 329.997070312 c 0
 408.806640625 334.2421875 418.608398438 336.365234375 427.404296875 336.365234375 c 0
 433.802734375 336.365234375 439.666992188 335.2421875 445 332.997070312 c 0
 453.666992188 329.6640625 457.333984375 322.997070312 456.001953125 312.997070312 c 0
 453.333984375 289.44140625 452.001953125 269.3671875 452.001953125 252.774414062 c 0
 452.001953125 244.478515625 452.333984375 237.052734375 453.001953125 230.497070312 c 0
 455.001953125 210.830078125 458.333984375 197.497070312 463.001953125 190.497070312 c 0
 467.66796875 183.497070312 474.334960938 179.997070312 483.001953125 179.997070312 c 0
 488.334960938 179.997070312 493.001953125 184.330078125 497.001953125 192.997070312 c 0
 501.001953125 201.6640625 503.834960938 212.997070312 505.501953125 226.997070312 c 0
 507.169921875 240.997070312 508.3359375 253.330078125 509.002929688 263.997070312 c 0
 509.669921875 274.6640625 510.002929688 284.997070312 510.002929688 294.997070312 c 0
 510.002929688 328.997070312 508.502929688 360.330078125 505.502929688 388.997070312 c 0
 502.502929688 417.6640625 498.8359375 442.1640625 494.502929688 462.497070312 c 0
 490.169921875 482.830078125 484.337890625 501.163085938 477.00390625 517.49609375 c 0
 469.670898438 533.829101562 462.670898438 547.162109375 456.00390625 557.495117188 c 0
 449.337890625 567.828125 441.337890625 576.661132812 432.00390625 583.994140625 c 0
 422.670898438 591.327148438 414.50390625 596.827148438 407.50390625 600.494140625 c 0
 400.50390625 604.161132812 392.50390625 606.994140625 383.50390625 608.994140625 c 0
 374.50390625 610.994140625 367.670898438 612.161132812 363.00390625 612.494140625 c 0
 358.337890625 612.827148438 352.669921875 612.994140625 346.002929688 612.994140625 c 0
 319.3359375 612.994140625 294.502929688 604.661132812 271.502929688 587.994140625 c 0
 248.502929688 571.327148438 228.169921875 548.16015625 210.502929688 518.493164062 c 0
 192.8359375 488.826171875 179.002929688 451.993164062 169.002929688 407.993164062 c 0
 159.002929688 363.993164062 154.002929688 315.993164062 154.002929688 263.993164062 c 0
 154.002929688 218.66015625 157.3359375 177.827148438 164.002929688 141.494140625 c 0
 170.669921875 105.161132812 179.669921875 75.828125 191.002929688 53.4951171875 c 0
 202.3359375 31.162109375 215.502929688 12.3291015625 230.502929688 -3.00390625 c 0
 245.502929688 -18.3369140625 260.502929688 -29.00390625 275.502929688 -35.00390625 c 0
 290.502929688 -41.00390625 306.002929688 -44.00390625 322.002929688 -44.00390625 c 0
 339.3359375 -44.00390625 355.3359375 -42.3369140625 370.002929688 -39.00390625 c 0
 384.669921875 -35.6708984375 396.837890625 -31.6708984375 406.50390625 -27.00390625 c 0
 416.170898438 -22.3369140625 425.337890625 -16.00390625 434.005859375 -8.00390625 c 0
 442.671875 -0.00390625 449.338867188 7.3291015625 454.005859375 13.99609375 c 0
 458.673828125 20.6630859375 464.005859375 29.330078125 470.005859375 39.9970703125 c 0
 472.673828125 44.6640625 475.005859375 48.3310546875 477.005859375 50.998046875 c 0
 479.005859375 53.6650390625 481.338867188 56.83203125 484.005859375 60.4990234375 c 0
 486.673828125 64.166015625 489.005859375 66.8330078125 491.005859375 68.5 c 0
 493.005859375 70.1669921875 495.505859375 71.6669921875 498.505859375 73 c 0
 501.505859375 74.3330078125 504.505859375 75 507.505859375 75 c 0
 510.505859375 75 513.673828125 74.3330078125 517.005859375 73 c 0
 522.338867188 71 526.838867188 68.5 530.505859375 65.5 c 0
 534.173828125 62.5 537.005859375 58.5 539.005859375 53.5 c 0
 541.005859375 48.5 541.338867188 41.8330078125 540.005859375 33.5 c 0
 538.673828125 25.1669921875 536.005859375 15.6669921875 532.005859375 5 c 0xdf80
EndSplineSet
Validated: 524289
EndChar

StartChar: A
Encoding: 65 65 33
Width: 650
GlyphClass: 2
Flags: HMW
HStem: -5.55122 21G 251 81.0059
VStem: 58.5711 90.5231
LayerCount: 2
Fore
SplineSet
149.094726562 41 m 2
 142.426757812 20.3330078125 133.094726562 6.6708984375 121.094726562 0.00390625 c 0
 114.427734375 -3.7001953125 107.658203125 -5.5517578125 100.78515625 -5.5517578125 c 0
 95.287109375 -5.5517578125 89.7236328125 -4.3671875 84.09375 -1.9970703125 c 0
 67.080078125 5.78125 58.5732421875 21.3564453125 58.5732421875 44.7294921875 c 0
 58.5732421875 53.4111328125 59.7470703125 63.1689453125 62.0947265625 74.0029296875 c 0
 66.0947265625 95.3359375 85.427734375 147.3359375 120.094726562 230.002929688 c 1
 108.094726562 238.002929688 102.094726562 247.669921875 102.094726562 259.002929688 c 0
 101.427734375 268.3359375 105.594726562 277.168945312 114.594726562 285.501953125 c 0
 123.594726562 293.834960938 135.426757812 300.334960938 150.094726562 305.001953125 c 1
 232.094726562 495.668945312 295.094726562 623.001953125 339.094726562 687.001953125 c 0
 349.094726562 700.334960938 357.926757812 710.001953125 365.594726562 716.001953125 c 0
 373.26171875 722.001953125 381.76171875 725.001953125 391.094726562 725.001953125 c 0
 393.397460938 725.244140625 395.661132812 725.365234375 397.887695312 725.365234375 c 0
 407.903320312 725.365234375 417.139648438 722.911132812 425.59375 718.001953125 c 0
 435.926757812 712.001953125 442.09375 701.668945312 444.09375 687.001953125 c 0
 458.09375 604.334960938 481.59375 487.16796875 514.59375 335.500976562 c 0
 547.59375 183.833984375 570.426757812 96.6669921875 583.09375 74 c 0
 588.649414062 63.443359375 591.426757812 53.697265625 591.426757812 44.76171875 c 0
 591.426757812 42.9755859375 591.31640625 41.2216796875 591.094726562 39.5 c 0
 589.76171875 29.1669921875 586.428710938 20.5 581.094726562 13.5 c 0
 575.762695312 6.5 569.4296875 1.3330078125 562.096679688 -2 c 0
 556.305664062 -4.4375 550.514648438 -5.65625 544.723632812 -5.65625 c 2
 524.094726562 -0.4990234375 l 2
 511.426757812 5.833984375 501.094726562 19.6669921875 493.094726562 41 c 0
 484.426757812 61.6669921875 467.760742188 131.666992188 443.09375 251 c 1
 357.760742188 247.666992188 281.426757812 240.666992188 214.094726562 230 c 1
 149.094726562 41 l 2
371.094726562 602.004882812 m 1
 341.76171875 557.337890625 300.094726562 462.671875 246.094726562 318.004882812 c 1
 314.094726562 326.004882812 374.426757812 330.671875 427.094726562 332.004882812 c 1
 371.094726562 602.004882812 l 1
EndSplineSet
Validated: 524289
EndChar

StartChar: B
Encoding: 66 66 34
Width: 650
GlyphClass: 2
Flags: HMW
HStem: -22.9961 21G 297.004 72 630.004 78.999
VStem: 83.0005 96.4978 436.997 90.0384 470.998 98.001
LayerCount: 2
Fore
SplineSet
274 -14 m 0xf4
 262.66796875 -14.6669921875 249.998046875 -15.6640625 235.998046875 -16.9970703125 c 0
 221.998046875 -18.330078125 210.665039062 -19.330078125 201.998046875 -19.9970703125 c 2
 175.998046875 -21.9970703125 l 2
 167.33203125 -22.6640625 159.498046875 -22.9970703125 152.498046875 -22.9970703125 c 0
 145.498046875 -22.9970703125 138.998046875 -22.330078125 132.998046875 -20.9970703125 c 2
 128.998046875 -20.9970703125 l 2
 115.665039062 -20.9970703125 104.83203125 -16.4970703125 96.4990234375 -7.4970703125 c 0
 88.783203125 0.8359375 84.92578125 12.1689453125 84.92578125 26.5029296875 c 0
 84.92578125 33.943359375 87.25 48.533203125 87.25 135.748046875 c 0
 87.25 152.249023438 87.1669921875 170.333984375 87 190.002929688 c 0
 86.3330078125 268.669921875 85 349.669921875 83 433.002929688 c 0
 81.6669921875 477.669921875 81 507.669921875 81 523.002929688 c 0
 81 538.3359375 81.5 559.002929688 82.5 585.002929688 c 0
 83.5 611.002929688 84 629.002929688 84 639.002929688 c 0
 84.6669921875 657.002929688 89.5 670.502929688 98.5 679.502929688 c 0
 107.5 688.502929688 119 693.002929688 133 693.002929688 c 2
 138 693.002929688 l 2
 148.66796875 696.3359375 159.66796875 699.168945312 171 701.501953125 c 0
 182.333007812 703.834960938 192.833007812 705.501953125 202.5 706.501953125 c 0
 212.16796875 707.501953125 222.66796875 708.168945312 234 708.501953125 c 0
 245.333007812 708.834960938 254.166015625 709.001953125 260.5 709.001953125 c 2
 281 709.001953125 l 1
 292 709.001953125 l 2
 337.33203125 709.001953125 377.5 700.668945312 412.5 684.001953125 c 0
 447.5 667.334960938 475.166015625 643.16796875 495.5 611.500976562 c 0
 517.921875 576.581054688 527.03515625 537.415039062 527.03515625 496.803710938 c 0xf8
 527.03515625 459.928710938 518.5234375 428.161132812 501.5 401.500976562 c 0
 483.83203125 373.833984375 459.33203125 353.666992188 428 341 c 1
 450.666015625 333.666992188 472.5 322.833984375 493.5 308.500976562 c 0
 514.5 294.16796875 532.33203125 278.16796875 547 260.500976562 c 0
 561.666015625 242.833984375 569 226.333984375 569 211.000976562 c 0
 569 185.66796875 562.666015625 160.500976562 550 135.500976562 c 0
 537.33203125 110.500976562 518.83203125 87.66796875 494.5 67.0009765625 c 0
 470.166015625 46.333984375 438.833007812 28.6669921875 400.5 14 c 0
 362.16796875 -0.6669921875 320 -10 274 -14 c 0xf4
289.998046875 630.002929688 m 0
 253.998046875 630.002929688 218.998046875 625.668945312 184.998046875 617.001953125 c 1
 184.998046875 604.334960938 184.33203125 584.001953125 182.998046875 556.001953125 c 0
 181.665039062 528.001953125 180.665039062 498.334960938 179.998046875 467.001953125 c 0
 179.6640625 451.3359375 179.497070312 435.502929688 179.497070312 419.502929688 c 0
 179.497070312 403.502929688 179.6640625 387.3359375 179.998046875 371.002929688 c 1
 211.33203125 369.669921875 240.998046875 369.002929688 268.998046875 369.002929688 c 0
 288.998046875 369.002929688 307.33203125 370.669921875 323.998046875 374.002929688 c 0
 340.665039062 377.3359375 354.498046875 381.668945312 365.498046875 387.001953125 c 0
 376.498046875 392.334960938 386.498046875 398.834960938 395.498046875 406.501953125 c 0
 404.498046875 414.168945312 411.33203125 422.001953125 415.998046875 430.001953125 c 0
 420.665039062 438.001953125 424.665039062 446.834960938 427.998046875 456.501953125 c 0
 431.33203125 466.168945312 433.6640625 474.8359375 434.997070312 482.502929688 c 0
 436.330078125 490.169921875 436.997070312 498.336914062 436.997070312 507.00390625 c 0
 436.997070312 524.336914062 433.497070312 540.336914062 426.497070312 555.00390625 c 0
 419.497070312 569.670898438 410.830078125 581.50390625 400.497070312 590.50390625 c 0
 390.1640625 599.50390625 378.33203125 607.170898438 364.998046875 613.50390625 c 0
 351.665039062 619.836914062 338.665039062 624.169921875 325.998046875 626.502929688 c 0
 313.33203125 628.8359375 301.33203125 630.002929688 289.998046875 630.002929688 c 0
275.998046875 297.001953125 m 1
 227.33203125 297.001953125 195.998046875 296.66796875 181.998046875 296.000976562 c 1
 184.665039062 188.66796875 186.665039062 112.334960938 187.998046875 67.001953125 c 1
 195.33203125 67.001953125 207.498046875 67.3349609375 224.498046875 68.001953125 c 0
 241.498046875 68.6689453125 254.33203125 69.001953125 262.998046875 69.001953125 c 0
 293.665039062 70.3349609375 322.498046875 75.66796875 349.498046875 85.0009765625 c 0
 376.498046875 94.333984375 398.33203125 105.500976562 414.998046875 118.500976562 c 0
 431.665039062 131.500976562 445.165039062 145.16796875 455.498046875 159.500976562 c 0
 465.83203125 173.833984375 470.998046875 187.000976562 470.998046875 199.000976562 c 0xf4
 470.998046875 207.66796875 467.33203125 216.334960938 459.998046875 225.001953125 c 0
 452.665039062 233.668945312 441.498046875 242.668945312 426.498046875 252.001953125 c 0
 411.498046875 261.334960938 390.998046875 270.001953125 364.998046875 278.001953125 c 0
 338.998046875 286.001953125 309.33203125 292.334960938 275.998046875 297.001953125 c 1
EndSplineSet
Validated: 524289
EndChar

StartChar: C
Encoding: 67 67 35
Width: 650
GlyphClass: 2
Flags: HMW
HStem: -31.0911 90.092 518.417 222.246 632.001 80.9961
VStem: 66.9985 100.998 480 103.001
LayerCount: 2
Fore
SplineSet
554.994140625 64 m 0xb8
 500.009765625 0.607421875 415.845703125 -31.091796875 302.490234375 -31.091796875 c 0
 299.01953125 -31.091796875 295.522460938 -31.0625 291.998046875 -31.0029296875 c 0
 264.666015625 -31.0029296875 238.666015625 -26.3359375 213.998046875 -17.0029296875 c 0
 189.331054688 -7.669921875 168.498046875 4.6630859375 151.498046875 19.99609375 c 0
 134.498046875 35.3291015625 119.33203125 53.162109375 105.998046875 73.4951171875 c 0
 92.666015625 93.828125 82.83203125 115.495117188 76.5 138.495117188 c 0
 70.166015625 161.495117188 67 184.662109375 67 207.995117188 c 0
 67 256.662109375 72 303.662109375 82 348.995117188 c 0
 92 394.328125 105.5 435.328125 122.5 471.995117188 c 0
 139.499023438 508.662109375 159.33203125 542.329101562 181.999023438 572.99609375 c 0
 204.666015625 603.663085938 228.833984375 629.163085938 254.5 649.49609375 c 0
 280.166992188 669.829101562 306.5 685.49609375 333.5 696.49609375 c 0
 360.5 707.49609375 386.333984375 712.99609375 411 712.99609375 c 0xb8
 435.666992188 712.99609375 458.333984375 710.329101562 479.001953125 704.99609375 c 1
 481.66796875 714.99609375 486.66796875 723.163085938 494.001953125 729.49609375 c 0
 501.333984375 735.829101562 510.001953125 739.329101562 520.001953125 739.99609375 c 0
 522.37109375 740.440429688 524.75 740.663085938 527.13671875 740.663085938 c 0
 535.490234375 740.663085938 543.944335938 737.940429688 552.5 732.49609375 c 0
 563.5 725.49609375 570.333984375 715.329101562 573 701.99609375 c 0
 575 691.99609375 577 682.163085938 579 672.49609375 c 0
 581 662.829101562 582.166992188 653.329101562 582.5 643.99609375 c 0
 582.833984375 634.663085938 583 626.99609375 583 620.99609375 c 2
 583 599.99609375 l 1
 583 584.99609375 l 2
 583 570.99609375 577.666992188 556.829101562 567 542.49609375 c 0
 556.333984375 528.163085938 545.666015625 520.330078125 534.999023438 518.997070312 c 0
 532.677734375 518.610351562 530.34765625 518.416992188 528.013671875 518.416992188 c 0xd8
 518.283203125 518.416992188 508.4453125 521.77734375 498.499023438 528.498046875 c 0
 486.166015625 536.831054688 479.999023438 547.998046875 479.999023438 561.998046875 c 0
 479.999023438 567.331054688 480.33203125 581.331054688 480.999023438 603.998046875 c 0
 480.33203125 604.665039062 477.166015625 606.83203125 471.498046875 610.499023438 c 0
 465.831054688 614.166015625 461.831054688 616.833007812 459.498046875 618.5 c 0
 457.166015625 620.166992188 453.33203125 622.333984375 447.999023438 625.000976562 c 0
 442.666015625 627.66796875 437.499023438 629.500976562 432.499023438 630.500976562 c 0
 427.499023438 631.500976562 422.666015625 632.000976562 417.999023438 632.000976562 c 0
 397.33203125 632.000976562 375.166015625 625.333984375 351.498046875 612.000976562 c 0
 327.831054688 598.66796875 305.1640625 579.66796875 283.498046875 555.000976562 c 0
 261.830078125 530.333984375 242.163085938 502.000976562 224.49609375 470.000976562 c 0
 206.830078125 438.000976562 192.99609375 401.833984375 182.99609375 361.500976562 c 0
 172.99609375 321.16796875 167.99609375 280.66796875 167.99609375 240.000976562 c 0
 167.99609375 210.66796875 173.663085938 182.000976562 184.99609375 154.000976562 c 0
 196.330078125 126.000976562 212.49609375 103.16796875 233.49609375 85.5009765625 c 0
 254.49609375 67.833984375 277.330078125 59.0009765625 301.99609375 59.0009765625 c 0
 323.330078125 59.0009765625 344.49609375 61.16796875 365.49609375 65.5009765625 c 0
 386.49609375 69.833984375 404.99609375 75.5009765625 420.99609375 82.5009765625 c 0
 436.99609375 89.5009765625 450.830078125 96.5009765625 462.49609375 103.500976562 c 0
 474.163085938 110.500976562 484.99609375 118.000976562 494.99609375 126.000976562 c 0
 503.663085938 132.000976562 511.163085938 136.66796875 517.49609375 140.000976562 c 0
 523.830078125 143.333984375 530.662109375 145.000976562 537.995117188 145.000976562 c 0
 545.328125 145.000976562 552.662109375 142.66796875 559.994140625 138.000976562 c 0
 571.21484375 129.2734375 576.826171875 119.234375 576.826171875 107.883789062 c 0
 576.826171875 94.95703125 569.548828125 80.3291015625 554.994140625 64 c 0xb8
EndSplineSet
Validated: 524289
EndChar

StartChar: D
Encoding: 68 68 36
Width: 650
GlyphClass: 2
Flags: HMW
HStem: -31 85.998 694.001 20G
VStem: 65.1877 98.6278 69.8135 102.002 488.815 95.9971
LayerCount: 2
Fore
SplineSet
164.815429688 348 m 0xe8
 165.482421875 319.333007812 166.645507812 276.1640625 168.3125 218.497070312 c 0
 169.979492188 160.830078125 171.1484375 117.330078125 171.815429688 87.9970703125 c 1
 199.1484375 75.9970703125 227.813476562 67.4970703125 257.813476562 62.4970703125 c 0
 287.813476562 57.4970703125 321.813476562 54.9970703125 359.813476562 54.9970703125 c 0
 378.48046875 54.9970703125 396.147460938 61.1640625 412.814453125 73.4970703125 c 0
 429.481445312 85.830078125 443.1484375 101.830078125 453.815429688 121.497070312 c 0
 464.482421875 141.1640625 472.982421875 162.831054688 479.315429688 186.498046875 c 0
 485.6484375 210.165039062 488.815429688 233.33203125 488.815429688 255.999023438 c 0
 488.815429688 381.33203125 437.482421875 476.999023438 334.815429688 542.999023438 c 0
 298.1484375 566.33203125 245.815429688 590.33203125 177.815429688 614.999023438 c 1
 176.815429688 615.999023438 l 1
 175.815429688 615.999023438 l 1
 174.815429688 615.999023438 l 1
 173.815429688 616.999023438 l 1
 172.815429688 616.999023438 l 1
 171.815429688 616.999023438 l 1
 171.815429688 617.999023438 l 1xd8
 170.815429688 617.999023438 l 1
 169.815429688 617.999023438 l 1
 168.815429688 618.999023438 l 1
 167.815429688 618.999023438 l 1
 166.815429688 618.999023438 l 1
 165.815429688 619.999023438 l 1
 164.815429688 619.999023438 l 1
 163.815429688 619.999023438 l 1
 163.815429688 620.999023438 l 1
 162.958007812 583.854492188 162.529296875 545.9140625 162.529296875 507.177734375 c 0
 162.529296875 455.533203125 163.291015625 402.473632812 164.815429688 348 c 0xe8
360.814453125 -31.0009765625 m 0
 327.481445312 -31.0009765625 294.982421875 -29.5 263.315429688 -26.5 c 0
 231.6484375 -23.5 206.481445312 -20 187.814453125 -16 c 0
 169.147460938 -12 152.814453125 -8.3330078125 138.814453125 -5 c 0
 124.814453125 -1.6669921875 116.481445312 0 113.814453125 0 c 0
 100.481445312 0 89.4814453125 4.5 80.814453125 13.5 c 0
 73.302734375 21.2998046875 69.546875 31.7294921875 69.546875 44.7880859375 c 0
 69.546875 46.796875 69.6357421875 48.8671875 69.8134765625 51 c 0xd8
 71.3134765625 74.9990234375 72.0634765625 112.965820312 72.0634765625 164.901367188 c 0
 72.0634765625 182.21484375 71.98046875 201.081054688 71.8134765625 221.5 c 0
 71.146484375 303.166992188 69.4794921875 391.666992188 66.8125 487 c 0
 66.1455078125 524.333007812 65.6455078125 548.833007812 65.3125 560.5 c 0
 65.2294921875 563.416015625 65.1875 566.73828125 65.1875 570.466796875 c 0xe8
 65.1875 581.654296875 65.5625 596.498046875 66.3125 614.999023438 c 0
 67.3125 639.666015625 67.8125 654.666992188 67.8125 660 c 0
 68.4794921875 678 73.4794921875 691.5 82.8125 700.5 c 0
 92.1455078125 709.5 103.8125 714 117.8125 714 c 0
 126.479492188 714 137.479492188 713.333007812 150.8125 712 c 0
 164.145507812 710.666992188 181.3125 708 202.3125 704 c 0
 223.3125 700 244.8125 694.5 266.8125 687.5 c 0
 288.8125 680.5 312.645507812 670.666992188 338.3125 658 c 0
 363.979492188 645.333007812 388.3125 630.666015625 411.3125 613.999023438 c 0
 434.3125 597.33203125 456.479492188 576.499023438 477.8125 551.499023438 c 0
 499.145507812 526.499023438 517.645507812 499.166015625 533.3125 469.499023438 c 0
 548.979492188 439.83203125 561.479492188 404.499023438 570.8125 363.499023438 c 0
 580.145507812 322.499023438 584.8125 278.33203125 584.8125 230.999023438 c 0
 584.8125 207.666015625 581.645507812 183.999023438 575.3125 159.999023438 c 0
 568.979492188 135.999023438 559.3125 112.499023438 546.3125 89.4990234375 c 0
 533.3125 66.4990234375 518.145507812 45.9990234375 500.8125 27.9990234375 c 0
 483.479492188 9.9990234375 462.646484375 -4.333984375 438.313476562 -15.0009765625 c 0
 413.98046875 -25.66796875 388.147460938 -31.0009765625 360.814453125 -31.0009765625 c 0
EndSplineSet
Validated: 524289
EndChar

StartChar: E
Encoding: 69 69 37
Width: 650
GlyphClass: 2
Flags: HMW
HStem: -17.498 85.4132 -6.2352 90.7323 312.001 85.999 332.001 80.999 615.159 82.8417
VStem: 78.3136 97.4971
LayerCount: 2
Fore
SplineSet
521.30859375 -6 m 0x4c
 519.124023438 -5.87890625 516.376953125 -5.818359375 513.06640625 -5.818359375 c 0
 498.189453125 -5.818359375 471.939453125 -7.044921875 434.311523438 -9.4990234375 c 0
 388.311523438 -12.4990234375 337.811523438 -15.166015625 282.811523438 -17.4990234375 c 0
 253.1953125 -18.7548828125 227.009765625 -19.3828125 204.255859375 -19.3828125 c 0
 184.75390625 -19.3828125 167.772460938 -18.9208984375 153.311523438 -17.998046875 c 0
 137.978515625 -17.3310546875 122.645507812 -9.8310546875 107.3125 4.501953125 c 0
 91.9794921875 18.8349609375 82.9794921875 36.3349609375 80.3125 57.001953125 c 0
 78.3125 74.3349609375 77.3125 105.501953125 77.3125 150.501953125 c 0
 77.3125 195.501953125 77.6455078125 243.334960938 78.3125 294.001953125 c 0
 78.53515625 310.899414062 78.646484375 328.500976562 78.646484375 346.806640625 c 0
 78.646484375 383.391601562 78.2021484375 422.790039062 77.3134765625 465.001953125 c 0
 76.646484375 505.001953125 76.146484375 531.501953125 75.8134765625 544.501953125 c 0
 75.73046875 547.750976562 75.6884765625 551.385742188 75.6884765625 555.405273438 c 0
 75.6884765625 567.467773438 76.0634765625 583 76.8134765625 602.000976562 c 0
 77.8134765625 627.333984375 78.3134765625 643.000976562 78.3134765625 649.000976562 c 0
 78.98046875 667.000976562 83.98046875 680.66796875 93.3134765625 690.000976562 c 0
 102.646484375 699.333984375 114.313476562 704.000976562 128.313476562 704.000976562 c 0
 129.2265625 704.036132812 130.127929688 704.053710938 131.018554688 704.053710938 c 0
 147.040039062 704.053710938 159.471679688 698.369140625 168.313476562 687.000976562 c 1
 206.313476562 692.333984375 250.813476562 695.666992188 301.813476562 697 c 0
 327.313476562 697.666015625 351.35546875 697.999023438 373.938476562 697.999023438 c 0
 396.521484375 697.999023438 417.646484375 697.666015625 437.3125 697 c 0
 476.645507812 695.666992188 507.978515625 693.666992188 531.311523438 691 c 0
 547.311523438 689 558.311523438 685 564.311523438 679 c 0
 570.311523438 673 573.64453125 664.666992188 574.311523438 654 c 0
 574.311523438 648 573.64453125 642.333007812 572.311523438 637 c 0
 570.978515625 631.666992188 568.811523438 626.833984375 565.811523438 622.500976562 c 0
 562.811523438 618.16796875 558.311523438 614.66796875 552.311523438 612.000976562 c 0
 546.311523438 609.333984375 539.311523438 608.666992188 531.311523438 610 c 0
 485.137695312 613.438476562 438.692382812 615.158203125 391.975585938 615.158203125 c 0
 375.2890625 615.158203125 358.567382812 614.938476562 341.811523438 614.5 c 0
 278.14453125 612.833007812 223.64453125 608.666015625 178.311523438 601.999023438 c 1
 175.64453125 532.666015625 174.311523438 464.666015625 174.311523438 397.999023438 c 1xac
 222.978515625 397.999023438 289.311523438 400.499023438 373.311523438 405.499023438 c 0
 457.311523438 410.499023438 504.64453125 412.999023438 515.311523438 412.999023438 c 0
 530.64453125 412.999023438 541.477539062 409.666015625 547.810546875 402.999023438 c 0
 554.143554688 396.33203125 557.310546875 386.999023438 557.310546875 374.999023438 c 0
 557.310546875 346.318359375 543.92578125 331.977539062 517.157226562 331.977539062 c 0
 516.548828125 331.977539062 515.93359375 331.985351562 515.311523438 332 c 0x1c
 503.311523438 332 451.811523438 328.666992188 360.811523438 322 c 0
 269.811523438 315.333007812 207.978515625 312 175.311523438 312 c 1
 175.311523438 297.333007812 175.478515625 278.166015625 175.811523438 254.499023438 c 0
 176.14453125 230.83203125 176.477539062 210.499023438 176.810546875 193.499023438 c 0
 177.143554688 176.499023438 177.4765625 158.999023438 177.809570312 140.999023438 c 0
 178.142578125 122.999023438 178.809570312 108.166015625 179.809570312 96.4990234375 c 0
 180.809570312 84.83203125 182.309570312 76.6650390625 184.309570312 71.998046875 c 0
 194.420898438 69.275390625 216.387695312 67.9140625 250.208984375 67.9140625 c 0xac
 274.36328125 67.9140625 304.563476562 68.6083984375 340.809570312 69.9970703125 c 0
 427.809570312 73.330078125 483.642578125 77.6630859375 508.309570312 82.99609375 c 0
 517.642578125 84.3291015625 525.642578125 84.8291015625 532.309570312 84.49609375 c 0
 538.9765625 84.1630859375 544.809570312 82.830078125 549.809570312 80.4970703125 c 0
 554.809570312 78.1640625 558.809570312 75.6640625 561.809570312 72.9970703125 c 0
 564.809570312 70.330078125 567.142578125 66.830078125 568.809570312 62.4970703125 c 0
 570.4765625 58.1640625 571.809570312 54.3310546875 572.809570312 50.998046875 c 0
 573.809570312 47.6650390625 574.309570312 44.33203125 574.309570312 40.9990234375 c 0
 574.309570312 28.33203125 569.809570312 16.9990234375 560.809570312 6.9990234375 c 0
 552.868164062 -1.82421875 541.682617188 -6.2353515625 527.252929688 -6.2353515625 c 0
 525.329101562 -6.2353515625 523.34765625 -6.1572265625 521.30859375 -6 c 0x4c
EndSplineSet
Validated: 524289
EndChar

StartChar: F
Encoding: 70 70 38
Width: 650
GlyphClass: 2
Flags: HMW
HStem: -21.0722 21G 322.534 84.6107 621.784 84.7164 694.192 20G
VStem: 80.2351 103.262 82.7521 93.745
LayerCount: 2
Fore
SplineSet
183.497070312 24 m 0xe8
 182.1640625 10 175.669921875 -1.166015625 164.002929688 -9.4990234375 c 0
 153.200195312 -17.21484375 141.112304688 -21.072265625 127.73828125 -21.072265625 c 0
 126.66796875 -21.072265625 125.588867188 -21.0478515625 124.501953125 -20.998046875 c 0
 111.168945312 -20.998046875 100.168945312 -16.498046875 91.501953125 -7.498046875 c 0
 83.990234375 0.302734375 80.234375 10.732421875 80.234375 23.791015625 c 0xe8
 80.234375 25.7998046875 80.3232421875 27.8701171875 80.5009765625 30.0029296875 c 0
 82.0009765625 52.001953125 82.7509765625 89.09375 82.7509765625 141.279296875 c 0
 82.7509765625 158.676757812 82.66796875 177.750976562 82.5009765625 198.502929688 c 0
 81.833984375 281.502929688 80.1669921875 367.002929688 77.5 455.002929688 c 0
 76.1669921875 499.669921875 75.5 529.669921875 75.5 545.002929688 c 0
 75.5 560.3359375 76 581.002929688 77 607.002929688 c 0
 78 633.002929688 78.5 650.669921875 78.5 660.002929688 c 0
 79.1669921875 678.002929688 84.1669921875 691.502929688 93.5 700.502929688 c 0
 102.833007812 709.502929688 114.5 714.002929688 128.5 714.002929688 c 0
 130.213867188 714.129882812 131.888671875 714.193359375 133.524414062 714.193359375 c 0xd4
 149.063476562 714.193359375 161.055664062 708.462890625 169.5 697.001953125 c 1
 234.833007812 701.668945312 301 704.668945312 368 706.001953125 c 0
 384.749023438 706.334960938 400.73828125 706.501953125 415.966796875 706.501953125 c 0
 461.655273438 706.501953125 500.5 705.001953125 532.500976562 702.001953125 c 0
 547.833984375 700.668945312 558.666992188 696.8359375 565 690.502929688 c 0
 571.333007812 684.169921875 574.5 675.336914062 574.5 664.00390625 c 0
 574.5 651.336914062 570.833007812 640.669921875 563.5 632.002929688 c 0
 556.166992188 623.3359375 544.5 619.002929688 528.5 619.002929688 c 0
 491.166992188 620.857421875 452.704101562 621.78515625 413.112304688 621.78515625 c 0
 338.877929688 621.78515625 260.673828125 618.524414062 178.5 612.002929688 c 1
 178.5 600.669921875 178.166992188 582.502929688 177.5 557.502929688 c 0
 176.833007812 532.502929688 176.166015625 507.002929688 175.499023438 481.002929688 c 0
 175.165039062 468.002929688 174.998046875 454.919921875 174.998046875 441.752929688 c 0
 174.998046875 428.5859375 175.165039062 415.3359375 175.499023438 402.001953125 c 1
 205.783203125 405.430664062 239.005859375 407.145507812 275.166992188 407.145507812 c 0
 281.1953125 407.145507812 287.305664062 407.09765625 293.498046875 407.001953125 c 0
 336.831054688 406.334960938 376.1640625 404.501953125 411.497070312 401.501953125 c 0
 446.830078125 398.501953125 474.497070312 395.334960938 494.497070312 392.001953125 c 0
 510.497070312 389.334960938 521.497070312 385.001953125 527.497070312 379.001953125 c 0
 533.497070312 373.001953125 536.830078125 364.668945312 537.497070312 354.001953125 c 0
 537.497070312 348.001953125 536.997070312 342.501953125 535.997070312 337.501953125 c 0
 534.997070312 332.501953125 533.1640625 327.668945312 530.497070312 323.001953125 c 0
 527.830078125 318.334960938 523.497070312 314.834960938 517.497070312 312.501953125 c 0
 511.497070312 310.168945312 503.830078125 309.3359375 494.497070312 310.002929688 c 0
 473.830078125 313.3359375 445.497070312 316.168945312 409.497070312 318.501953125 c 0
 373.497070312 320.834960938 332.997070312 322.16796875 287.997070312 322.500976562 c 0
 285 322.5234375 282.038085938 322.534179688 279.110351562 322.534179688 c 0
 238.081054688 322.534179688 203.875976562 320.356445312 176.497070312 316 c 1xe4
 180.497070312 139.333007812 182.830078125 42 183.497070312 24 c 0xe8
EndSplineSet
Validated: 524289
EndChar

StartChar: G
Encoding: 71 71 39
Width: 650
GlyphClass: 2
Flags: HMW
HStem: -31.0616 90.0616 278 81.8571 643.002 80.999
VStem: 65.665 100.001
LayerCount: 2
Fore
SplineSet
553.669921875 244 m 0
 552.336914062 230 548.162109375 213.669921875 541.162109375 195.002929688 c 0
 534.162109375 176.3359375 525.495117188 156.502929688 515.162109375 135.502929688 c 0
 504.829101562 114.502929688 491.49609375 94.169921875 475.163085938 74.5029296875 c 0
 458.830078125 54.8359375 441.663085938 37.0029296875 423.663085938 21.0029296875 c 0
 405.663085938 5.0029296875 384.663085938 -7.830078125 360.663085938 -17.4970703125 c 0
 338.211914062 -26.5400390625 316.052734375 -31.0615234375 294.185546875 -31.0615234375 c 0
 292.676757812 -31.0615234375 291.168945312 -31.0400390625 289.663085938 -30.9970703125 c 0
 262.330078125 -30.9970703125 236.497070312 -26.330078125 212.1640625 -16.9970703125 c 0
 187.831054688 -7.6640625 166.998046875 4.6689453125 149.665039062 20.001953125 c 0
 132.33203125 35.3349609375 117.165039062 53.16796875 104.165039062 73.5009765625 c 0
 91.1650390625 93.833984375 81.498046875 115.500976562 75.1650390625 138.500976562 c 0
 68.83203125 161.500976562 65.6650390625 184.66796875 65.6650390625 208.000976562 c 0
 65.6650390625 257.333984375 70.498046875 305.333984375 80.1650390625 352.000976562 c 0
 89.83203125 398.66796875 103.33203125 440.66796875 120.665039062 478.000976562 c 0
 137.998046875 515.333984375 157.998046875 549.500976562 180.665039062 580.500976562 c 0
 203.33203125 611.500976562 227.499023438 637.500976562 253.166015625 658.500976562 c 0
 278.833007812 679.500976562 305 695.66796875 331.666992188 707.000976562 c 0
 358.333984375 718.333984375 384.000976562 724.000976562 408.66796875 724.000976562 c 0
 436.66796875 724.000976562 467.834960938 717.500976562 502.16796875 704.500976562 c 0
 536.500976562 691.500976562 559.000976562 680.333984375 569.66796875 671.000976562 c 0
 579.446289062 661.22265625 584.334960938 649.518554688 584.334960938 635.888671875 c 0
 584.334960938 629.07421875 583.11328125 621.778320312 580.668945312 614.000976562 c 0
 578.001953125 605.333984375 571.668945312 599.000976562 561.668945312 595.000976562 c 0
 556.668945312 593.000976562 551.501953125 592.000976562 546.168945312 592.000976562 c 0
 540.8359375 592.000976562 535.3359375 593.000976562 529.669921875 595.000976562 c 0
 525.669921875 596.333984375 516.502929688 601.333984375 502.169921875 610.000976562 c 0
 487.836914062 618.66796875 473.169921875 626.334960938 458.169921875 633.001953125 c 0
 443.169921875 639.668945312 429.336914062 643.001953125 416.669921875 643.001953125 c 0
 396.002929688 643.001953125 373.8359375 636.168945312 350.168945312 622.501953125 c 0
 326.501953125 608.834960938 303.834960938 589.16796875 282.16796875 563.500976562 c 0
 260.500976562 537.833984375 240.833984375 508.666992188 223.166992188 476 c 0
 205.5 443.333007812 191.5 406.333007812 181.166992188 365 c 0
 170.833984375 323.666992188 165.666992188 282 165.666992188 240 c 0
 165.666992188 210.666992188 171.333984375 182 182.666992188 154 c 0
 194 126 210.166992188 103.166992188 231.166992188 85.5 c 0
 252.166992188 67.8330078125 275.333984375 59 300.666992188 59 c 0
 316.666992188 59 333.166992188 64.1669921875 350.166992188 74.5 c 0
 367.166992188 84.8330078125 382.333984375 98 395.666992188 114 c 0
 409 130 421.5 148 433.166992188 168 c 0
 444.833984375 188 454.833984375 207.333007812 463.166992188 226 c 0
 471.5 244.666992188 478 262 482.666992188 278 c 1
 440.666992188 276 399.5 272.333007812 359.166992188 267 c 0
 318.833984375 261.666992188 291.000976562 254.666992188 275.66796875 246 c 0
 270.299804688 243.158203125 265.043945312 241.737304688 259.900390625 241.737304688 c 0
 254.184570312 241.737304688 248.607421875 243.491210938 243.168945312 247 c 0
 232.8359375 253.666992188 227.002929688 262.666992188 225.669921875 274 c 0
 225.1796875 277.1015625 224.934570312 280.118164062 224.934570312 283.05078125 c 0
 224.934570312 304.064453125 237.512695312 320.713867188 262.668945312 333 c 0
 281.3359375 342.333007812 322.168945312 349.5 385.168945312 354.5 c 0
 430.168945312 358.071289062 468.111328125 359.857421875 498.99609375 359.857421875 c 0
 511.349609375 359.857421875 522.57421875 359.571289062 532.668945312 359 c 0
 549.3359375 358.333007812 560.8359375 355.5 567.168945312 350.5 c 0
 573.501953125 345.5 578.001953125 337.666992188 580.668945312 327 c 0
 581.024414062 323.7109375 581.202148438 320.587890625 581.202148438 317.630859375 c 0
 581.202148438 298.41015625 573.69140625 286.200195312 558.669921875 281 c 0
 558.669921875 279 557.836914062 273.666992188 556.169921875 265 c 0
 554.502929688 256.333007812 553.669921875 249.333007812 553.669921875 244 c 0
EndSplineSet
Validated: 524289
EndChar

StartChar: H
Encoding: 72 72 40
Width: 650
GlyphClass: 2
Flags: HMW
HStem: -21.0741 21G 311.999 86.001 694.074 20G
VStem: 92.63 98.002 463.723 99.5773
LayerCount: 2
Fore
SplineSet
556.633789062 24 m 0
 555.30078125 10 548.799804688 -1.169921875 537.1328125 -9.5029296875 c 0
 526.329101562 -17.21875 514.528320312 -21.076171875 501.725585938 -21.076171875 c 0
 500.700195312 -21.076171875 499.668945312 -21.0517578125 498.6328125 -21.001953125 c 0
 485.299804688 -21.001953125 474.299804688 -16.501953125 465.6328125 -7.501953125 c 0
 458.12109375 0.2978515625 454.364257812 10.7275390625 454.364257812 23.7861328125 c 0
 454.364257812 25.794921875 454.454101562 27.865234375 454.631835938 29.998046875 c 0
 460.692382812 114.237304688 463.72265625 207.841796875 463.72265625 310.811523438 c 0
 463.72265625 321.11328125 463.692382812 331.508789062 463.631835938 341.998046875 c 1
 452.297851562 341.331054688 411.465820312 336.1640625 341.1328125 326.497070312 c 0
 270.799804688 316.830078125 220.6328125 311.997070312 190.6328125 311.997070312 c 1
 190.6328125 309.997070312 190.465820312 306.497070312 190.1328125 301.497070312 c 0
 189.799804688 296.497070312 189.6328125 292.997070312 189.6328125 290.997070312 c 0
 187.6328125 257.997070312 186.6328125 219.247070312 186.6328125 174.747070312 c 0
 186.6328125 130.247070312 187.6328125 79.9970703125 189.6328125 23.9970703125 c 0
 188.299804688 9.9970703125 181.6328125 -1.169921875 169.6328125 -9.5029296875 c 0
 158.522460938 -17.21875 146.5546875 -21.076171875 133.729492188 -21.076171875 c 0
 132.703125 -21.076171875 131.670898438 -21.0517578125 130.633789062 -21.001953125 c 0
 117.30078125 -21.001953125 106.30078125 -16.501953125 97.6337890625 -7.501953125 c 0
 90.1220703125 0.298828125 86.3662109375 10.728515625 86.3662109375 23.787109375 c 0
 86.3662109375 25.7958984375 86.455078125 27.8662109375 86.6328125 29.9990234375 c 0
 87.2998046875 39.33203125 87.7998046875 54.33203125 88.1328125 74.9990234375 c 0
 88.4658203125 95.666015625 88.6328125 123.333007812 88.6328125 158 c 0
 88.6328125 192.666992188 88.9658203125 224 89.6328125 252 c 0
 89.6328125 274.666992188 90.2998046875 307.166992188 91.6328125 349.5 c 0
 92.9658203125 391.833007812 93.798828125 423.166015625 94.1318359375 443.499023438 c 0
 94.2431640625 450.270507812 94.298828125 458.168945312 94.298828125 467.1953125 c 0
 94.298828125 485.2734375 94.076171875 507.875 93.630859375 535 c 0
 92.9638671875 565 92.630859375 584.166992188 92.630859375 592.5 c 0
 92.630859375 600.833007812 92.9638671875 612.333007812 93.630859375 627 c 0
 94.2978515625 641.666992188 94.96484375 652.666992188 95.6318359375 660 c 0
 96.298828125 678 101.131835938 691.5 110.131835938 700.5 c 0
 119.131835938 709.5 130.631835938 714 144.631835938 714 c 0
 145.71875 714.049804688 146.791992188 714.07421875 147.8515625 714.07421875 c 0
 161.088867188 714.07421875 172.182617188 710.216796875 181.1328125 702.500976562 c 0
 190.799804688 694.16796875 195.6328125 681.000976562 195.6328125 663.000976562 c 0
 195.6328125 656.333984375 194.799804688 642.000976562 193.1328125 620.000976562 c 0
 191.465820312 598.000976562 190.6328125 577.66796875 190.6328125 559.000976562 c 0
 190.6328125 541.66796875 190.965820312 515.16796875 191.6328125 479.500976562 c 0
 192.299804688 443.833984375 192.6328125 416.666992188 192.6328125 398 c 1
 227.299804688 398 262.965820312 400 299.633789062 404 c 0
 336.30078125 408 369.633789062 412 399.633789062 416 c 0
 429.633789062 420 450.633789062 422.666992188 462.633789062 424 c 1
 462.633789062 428.666992188 462.30078125 435.5 461.633789062 444.5 c 0
 460.965820312 453.5 460.633789062 460.333007812 460.633789062 465 c 0
 459.965820312 506.333007812 459.633789062 533.666015625 459.633789062 546.999023438 c 0
 459.633789062 560.33203125 460.133789062 580.999023438 461.133789062 608.999023438 c 0
 462.133789062 636.999023438 462.965820312 653.999023438 463.633789062 659.999023438 c 0
 463.633789062 677.999023438 468.465820312 691.499023438 478.133789062 700.499023438 c 0
 487.80078125 709.499023438 499.30078125 713.999023438 512.633789062 713.999023438 c 0
 513.719726562 714.048828125 514.793945312 714.073242188 515.852539062 714.073242188 c 0
 529.090820312 714.073242188 540.184570312 710.215820312 549.133789062 702.5 c 0
 558.801757812 694.166992188 563.633789062 681 563.633789062 663 c 0
 563.633789062 650.333007812 563.301757812 624.333007812 562.633789062 585 c 0
 561.967773438 545.666992188 561.467773438 511.166992188 561.133789062 481.5 c 0
 561.067382812 475.5703125 561.03515625 469.114257812 561.03515625 462.131835938 c 0
 561.03515625 434.18359375 561.567382812 397.806640625 562.633789062 353 c 0
 563.079101562 337.448242188 563.30078125 320.267578125 563.30078125 301.458007812 c 0
 563.30078125 263.825195312 562.411132812 219.672851562 560.633789062 169 c 0
 557.965820312 93 556.633789062 44.6669921875 556.633789062 24 c 0
EndSplineSet
Validated: 524289
EndChar

StartChar: I
Encoding: 73 73 41
Width: 650
GlyphClass: 2
Flags: HMW
HStem: -13.998 80.001 -6.39919 77.8992 612.001 89.001 625.002 85.3327
VStem: 270.043 101.995 278.109 100.596
LayerCount: 2
Fore
SplineSet
533.036132812 -11 m 0x68
 515.703125 -8.3330078125 487.213867188 -6.8310546875 447.546875 -6.498046875 c 0
 439.618164062 -6.431640625 431.743164062 -6.3984375 423.920898438 -6.3984375 c 0x68
 392.609375 -6.3984375 362.151367188 -6.931640625 332.546875 -7.998046875 c 0
 295.546875 -9.3310546875 255.879882812 -10.6640625 213.546875 -11.9970703125 c 0
 171.213867188 -13.330078125 141.713867188 -13.9970703125 125.046875 -13.9970703125 c 0
 107.713867188 -13.9970703125 95.046875 -10.6640625 87.046875 -3.9970703125 c 0
 75.25 5.833984375 74.9638671875 17.4921875 74.9638671875 24.966796875 c 0
 74.9638671875 35.6865234375 78.32421875 44.865234375 85.0458984375 52.50390625 c 0
 92.37890625 60.8369140625 104.711914062 65.3369140625 122.044921875 66.00390625 c 0
 150.043945312 67.3369140625 199.377929688 69.00390625 270.043945312 71.00390625 c 1x88
 275.421875 154.600585938 278.110351562 241.782226562 278.110351562 332.547851562 c 0
 278.110351562 365.559570312 277.754882812 399.044921875 277.043945312 433.004882812 c 0
 276.375976562 457.004882812 275.875976562 479.671875 275.543945312 501.004882812 c 0
 275.2109375 522.337890625 275.043945312 537.670898438 275.043945312 547.00390625 c 0
 275.043945312 556.336914062 275.7109375 570.836914062 277.043945312 590.50390625 c 0
 278.375976562 610.170898438 279.043945312 621.670898438 279.043945312 625.00390625 c 0
 248.709960938 625.669921875 221.375976562 626.002929688 197.041992188 626.002929688 c 0
 172.708007812 626.002929688 151.374023438 625.669921875 133.040039062 625.002929688 c 0
 116.374023438 625.002929688 103.541015625 628.669921875 94.541015625 636.002929688 c 0
 81.2666015625 646.818359375 80.966796875 659.26953125 80.966796875 666.641601562 c 0
 80.966796875 677.5234375 84.82421875 686.9765625 92.5400390625 695.000976562 c 0
 100.873046875 703.66796875 114.040039062 708.000976562 132.040039062 708.000976562 c 0
 187.598632812 709.556640625 239.305664062 710.334960938 287.161132812 710.334960938 c 0x94
 382.860351562 710.334960938 463.153320312 707.223632812 528.040039062 701.001953125 c 0
 557.372070312 698.334960938 572.706054688 684.66796875 574.0390625 660.000976562 c 0
 574.0390625 654.000976562 573.206054688 648.16796875 571.5390625 642.500976562 c 0
 569.872070312 636.833984375 567.0390625 631.333984375 563.0390625 626.000976562 c 0
 559.0390625 620.66796875 553.706054688 616.500976562 547.0390625 613.500976562 c 0
 540.372070312 610.500976562 533.372070312 610.000976562 526.0390625 612.000976562 c 0
 506.0390625 615.333984375 457.0390625 619.000976562 379.0390625 623.000976562 c 1
 379.0390625 617.66796875 378.706054688 602.66796875 378.0390625 578.000976562 c 0
 377.372070312 553.333984375 377.0390625 533.666992188 377.0390625 519 c 2
 377.0390625 456 l 2
 377.0390625 428.666992188 377.372070312 401.666992188 378.0390625 375 c 0
 378.483398438 359.2265625 378.704101562 342.157226562 378.704101562 323.791992188 c 0x24
 378.704101562 287.047851562 377.81640625 245.1171875 376.038085938 198 c 0
 373.37109375 127.333007812 372.038085938 85.3330078125 372.038085938 72 c 1
 400.704101562 72 434.038085938 71.8330078125 472.038085938 71.5 c 0
 510.038085938 71.1669921875 530.37109375 71 533.038085938 71 c 0
 548.37109375 71 559.204101562 67.5 565.536132812 60.5 c 0
 571.870117188 53.5 575.036132812 44.3330078125 575.036132812 33 c 0
 575.036132812 27 574.704101562 21.5 574.036132812 16.5 c 0
 573.370117188 11.5 571.370117188 6.5 568.036132812 1.5 c 0
 564.704101562 -3.5 560.204101562 -7.1669921875 554.536132812 -9.5 c 0
 548.870117188 -11.8330078125 541.703125 -12.3330078125 533.036132812 -11 c 0x68
EndSplineSet
Validated: 524289
EndChar

StartChar: J
Encoding: 74 74 42
Width: 650
GlyphClass: 2
Flags: HMW
HStem: -35.001 101.001 625 82.999
VStem: 72.168 89 335.168 93.9971
LayerCount: 2
Fore
SplineSet
426.165039062 215 m 0
 420.83203125 155 412.833007812 106.33203125 402.166015625 68.9990234375 c 0
 391.499023438 31.666015625 378.499023438 4.9990234375 363.166015625 -11.0009765625 c 0
 347.833007812 -27.0009765625 329.833007812 -35.0009765625 309.166015625 -35.0009765625 c 0
 286.499023438 -35.0009765625 264.166015625 -31.0009765625 242.166015625 -23.0009765625 c 0
 220.166015625 -15.0009765625 200.999023438 -4.333984375 184.666015625 8.9990234375 c 0
 168.333007812 22.33203125 153.166015625 36.83203125 139.166015625 52.4990234375 c 0
 125.166015625 68.166015625 113.499023438 83.8330078125 104.166015625 99.5 c 0
 94.8330078125 115.166992188 87.5 129.166992188 82.1669921875 141.5 c 0
 76.833984375 153.833007812 73.833984375 163.666015625 73.1669921875 170.999023438 c 0
 71.833984375 176.999023438 71.5009765625 184.166015625 72.16796875 192.499023438 c 0
 72.8349609375 200.83203125 74.3349609375 208.665039062 76.66796875 215.998046875 c 0
 79.0009765625 223.331054688 83.0009765625 229.831054688 88.66796875 235.498046875 c 0
 94.3349609375 241.165039062 102.16796875 244.665039062 112.16796875 245.998046875 c 0
 115.723632812 246.64453125 119.11328125 246.967773438 122.3359375 246.967773438 c 0
 132.40625 246.967773438 140.849609375 243.811523438 147.66796875 237.499023438 c 0
 156.66796875 229.166015625 161.16796875 218.666015625 161.16796875 205.999023438 c 0
 161.16796875 198.666015625 162.500976562 189.833007812 165.16796875 179.5 c 0
 167.834960938 169.166992188 172.334960938 157.166992188 178.66796875 143.5 c 0
 185.000976562 129.833007812 192.833984375 117.333007812 202.166992188 106 c 0
 211.5 94.6669921875 224.666992188 85.1669921875 241.666992188 77.5 c 0
 258.666992188 69.8330078125 276.833984375 66 296.166992188 66 c 0
 320.166992188 66 333.833984375 124 337.166992188 240 c 0
 337.166992188 254.666992188 336.5 301.666992188 335.166992188 381 c 0
 334.500976562 420.666015625 334.16796875 460.749023438 334.16796875 501.249023438 c 0
 334.16796875 541.749023438 334.500976562 582.666015625 335.166992188 624 c 1
 290.368164062 625.200195312 248.688476562 625.799804688 210.12890625 625.799804688 c 0
 184.421875 625.799804688 160.1015625 625.533203125 137.16796875 625 c 0
 120.500976562 625 107.833984375 628.666992188 99.1669921875 636 c 0
 86.4384765625 646.76953125 86.0927734375 659.155273438 86.0927734375 666.639648438 c 0
 86.0927734375 677.521484375 89.9501953125 686.974609375 97.666015625 694.999023438 c 0
 105.999023438 703.666015625 118.83203125 707.999023438 136.165039062 707.999023438 c 0
 191.724609375 709.5546875 243.39453125 710.333007812 291.174804688 710.333007812 c 0
 386.7265625 710.333007812 466.723632812 707.221679688 531.166015625 701 c 0
 560.499023438 698.333007812 576.166015625 684.666015625 578.166015625 659.999023438 c 0
 578.166015625 653.999023438 577.166015625 648.166015625 575.166015625 642.499023438 c 0
 573.166015625 636.83203125 570.499023438 631.33203125 567.166015625 625.999023438 c 0
 563.833007812 620.666015625 558.833007812 616.499023438 552.166015625 613.499023438 c 0
 545.499023438 610.499023438 537.83203125 609.999023438 529.165039062 611.999023438 c 0
 505.83203125 615.33203125 470.165039062 618.33203125 422.165039062 620.999023438 c 1
 422.165039062 601.666015625 422.83203125 572.333007812 424.165039062 533 c 0
 425.498046875 493.666992188 426.665039062 457.833984375 427.665039062 425.500976562 c 0
 428.665039062 393.16796875 429.165039062 357.16796875 429.165039062 317.500976562 c 0
 429.165039062 277.833984375 428.165039062 243.666992188 426.165039062 215 c 0
EndSplineSet
Validated: 524289
EndChar

StartChar: K
Encoding: 75 75 43
Width: 650
GlyphClass: 2
Flags: HMW
HStem: -21.0751 21G 694.072 20G
VStem: 81.7335 95.2646
LayerCount: 2
Fore
SplineSet
184.999023438 24 m 0
 183.666015625 10 177.170898438 -1.16796875 165.502929688 -9.5009765625 c 0
 154.701171875 -17.216796875 142.612304688 -21.07421875 129.239257812 -21.07421875 c 0
 128.168945312 -21.07421875 127.08984375 -21.0498046875 126.002929688 -21 c 0
 112.669921875 -21 101.669921875 -16.5 93.0029296875 -7.5 c 0
 85.4912109375 0.30078125 81.7353515625 10.73046875 81.7353515625 23.7890625 c 0
 81.7353515625 25.7978515625 81.82421875 27.8681640625 82.001953125 30.0009765625 c 0
 83.501953125 52 84.251953125 89.091796875 84.251953125 141.276367188 c 0
 84.251953125 158.673828125 84.1689453125 177.748046875 84.001953125 198.5 c 0
 83.3349609375 281.5 81.66796875 367 79.0009765625 455 c 0
 77.66796875 497.666992188 77.0009765625 526.5 77.0009765625 541.5 c 0
 77.0009765625 556.5 77.5009765625 578.166992188 78.5009765625 606.5 c 0
 79.5009765625 634.833007812 80.0009765625 652.666015625 80.0009765625 659.999023438 c 0
 80.66796875 677.999023438 85.66796875 691.499023438 95.0009765625 700.499023438 c 0
 104.333984375 709.499023438 116.000976562 713.999023438 130.000976562 713.999023438 c 0
 131.087890625 714.048828125 132.161132812 714.073242188 133.220703125 714.073242188 c 0
 146.458007812 714.073242188 157.551757812 710.215820312 166.501953125 702.5 c 0
 176.168945312 694.166992188 181.001953125 681 181.001953125 663 c 0
 181.001953125 647 180.334960938 612 179.001953125 558 c 0
 177.668945312 504 177.001953125 459.333007812 177.001953125 424 c 1
 201.001953125 447.333007812 237.001953125 482.666015625 285.001953125 529.999023438 c 0
 333.001953125 577.33203125 371.334960938 614.83203125 400.001953125 642.499023438 c 0
 428.668945312 670.166015625 447.001953125 687.333007812 455.001953125 694 c 0
 464.334960938 702.666992188 473.334960938 708.5 482.001953125 711.5 c 0
 490.668945312 714.5 498.168945312 715.166992188 504.501953125 713.5 c 0
 510.834960938 711.833007812 516.666992188 708.333007812 522.000976562 703 c 0
 529.510742188 694.911132812 533.267578125 685.946289062 533.267578125 676.10546875 c 0
 533.267578125 663.235351562 526.844726562 648.8671875 513.999023438 633 c 0
 503.999023438 621 468.666992188 584.5 407.999023438 523.5 c 0
 347.333007812 462.5 293.333007812 409.333007812 245.999023438 364 c 1
 268.666992188 340 307.166992188 302.5 361.499023438 251.5 c 0
 415.833007812 200.5 462.999023438 155.666992188 502.999023438 117 c 0
 542.999023438 78.3330078125 565.333007812 54 569.999023438 44 c 0
 571.999023438 37.666015625 572.999023438 31.666015625 572.999023438 25.9990234375 c 0
 572.999023438 20.33203125 571.999023438 14.9990234375 569.999023438 9.9990234375 c 0
 565.999023438 -0.0009765625 559.999023438 -7.66796875 551.999023438 -13.0009765625 c 0
 543.724609375 -18.5986328125 535.494140625 -21.3974609375 527.307617188 -21.3974609375 c 0
 513.069335938 -21.3974609375 498.967773438 -12.931640625 484.999023438 4 c 0
 478.331054688 12.6669921875 454.499023438 35.6669921875 413.499023438 73 c 0
 372.499023438 110.333007812 328.331054688 151.5 280.999023438 196.5 c 0
 233.666015625 241.5 198.999023438 277.333007812 176.999023438 304 c 1
 176.999023438 284 l 2
 176.999023438 272.666992188 179.666015625 186 184.999023438 24 c 0
EndSplineSet
Validated: 524289
EndChar

StartChar: L
Encoding: 76 76 44
Width: 650
GlyphClass: 2
Flags: HMW
HStem: -15.0049 86.9159
VStem: 77.1323 103.002 106.932 91.7021
LayerCount: 2
Fore
SplineSet
530.134765625 10 m 0xc0
 484.801757812 1.3330078125 416.133789062 -5.005859375 324.133789062 -9.005859375 c 0
 232.133789062 -13.005859375 164.466796875 -15.005859375 121.1328125 -15.005859375 c 0
 107.80078125 -15.005859375 96.80078125 -10.505859375 88.1328125 -1.505859375 c 0
 80.62109375 6.294921875 76.865234375 16.724609375 76.865234375 29.783203125 c 0
 76.865234375 31.7919921875 76.955078125 33.8623046875 77.1328125 35.9951171875 c 0xc0
 77.1328125 41.328125 80.96484375 79.4951171875 88.6328125 150.495117188 c 0
 96.298828125 221.495117188 101.798828125 289.995117188 105.1328125 355.995117188 c 0
 106.33203125 373.995117188 106.931640625 400.994140625 106.931640625 436.993164062 c 0
 106.931640625 460.993164062 106.666015625 488.994140625 106.1328125 520.995117188 c 0
 104.798828125 600.995117188 104.1328125 644.328125 104.1328125 650.995117188 c 0
 104.798828125 668.995117188 109.966796875 682.662109375 119.6328125 691.995117188 c 0
 129.30078125 701.328125 140.80078125 705.995117188 154.133789062 705.995117188 c 0
 155.220703125 706.044921875 156.293945312 706.069335938 157.353515625 706.069335938 c 0
 170.590820312 706.069335938 181.684570312 702.211914062 190.634765625 694.49609375 c 0
 200.301757812 686.163085938 205.134765625 672.99609375 205.134765625 654.99609375 c 0
 205.134765625 635.663085938 204.466796875 609.330078125 203.134765625 575.997070312 c 0
 201.801757812 542.6640625 200.301757812 500.6640625 198.634765625 449.997070312 c 0xa0
 196.966796875 399.330078125 195.466796875 355.330078125 194.134765625 317.997070312 c 0
 193.466796875 289.997070312 190.966796875 249.330078125 186.634765625 195.997070312 c 0
 182.301757812 142.6640625 180.134765625 101.331054688 180.134765625 71.998046875 c 1
 185.005859375 71.9404296875 189.946289062 71.9111328125 194.955078125 71.9111328125 c 0
 247.541015625 71.9111328125 307.767578125 75.107421875 375.634765625 81.498046875 c 0
 449.966796875 88.498046875 499.466796875 95.3310546875 524.134765625 101.998046875 c 0
 532.134765625 103.998046875 539.301757812 103.665039062 545.634765625 100.998046875 c 0
 551.966796875 98.3310546875 556.966796875 94.3310546875 560.634765625 88.998046875 c 0
 564.301757812 83.6650390625 567.301757812 77.83203125 569.634765625 71.4990234375 c 0
 571.966796875 65.166015625 573.134765625 59.3330078125 573.134765625 54 c 0
 573.134765625 42 570.134765625 32.3330078125 564.134765625 25 c 0
 558.134765625 17.6669921875 546.801757812 12.6669921875 530.134765625 10 c 0xc0
EndSplineSet
Validated: 524289
EndChar

StartChar: M
Encoding: 77 77 45
Width: 650
GlyphClass: 2
Flags: HMW
HStem: -9.99414 21G<94.999 101.665>
VStem: 58.9975 83.001 271 104.999
LayerCount: 2
Fore
SplineSet
141.998046875 59 m 0
 142.04296875 57.578125 142.06640625 56.17578125 142.06640625 54.7939453125 c 0
 142.06640625 35.443359375 137.708984375 20.0166015625 128.998046875 8.505859375 c 0
 119.666015625 -3.8271484375 108.33203125 -9.994140625 95 -9.994140625 c 0
 71 -9.3271484375 59 15.33984375 59 64.0068359375 c 0
 59 72.0068359375 60 85.673828125 62 105.006835938 c 0
 64 124.33984375 66.5 149.672851562 69.5 181.005859375 c 0
 72.5 212.338867188 75 239.671875 77 263.004882812 c 0
 77.666015625 271.004882812 78.666015625 283.337890625 80 300.004882812 c 0
 84 349.337890625 87.166015625 387.837890625 89.5 415.504882812 c 0
 91.83203125 443.171875 95.33203125 477.671875 100 519.004882812 c 0
 104.666015625 560.337890625 108.833984375 592.837890625 112.5 616.504882812 c 0
 116.16796875 640.171875 120.66796875 656.671875 126 666.004882812 c 0
 132.666992188 680.004882812 142.833984375 690.171875 156.501953125 696.504882812 c 0
 167.791015625 701.736328125 178.740234375 704.352539062 189.349609375 704.352539062 c 0
 191.581054688 704.352539062 193.798828125 704.236328125 196.001953125 704.004882812 c 0
 226.001953125 704.004882812 244.66796875 691.671875 252.001953125 667.004882812 c 0
 260.001953125 637.671875 268.66796875 589.171875 278.001953125 521.504882812 c 0
 287.333984375 453.837890625 296.833984375 376.670898438 306.501953125 290.00390625 c 0
 316.16796875 203.336914062 323.001953125 146.00390625 327.001953125 118.00390625 c 1
 333.66796875 212.00390625 341.334960938 296.670898438 350.001953125 372.00390625 c 0
 356.001953125 427.336914062 364.169921875 483.00390625 374.501953125 539.00390625 c 0
 384.834960938 595.00390625 394.001953125 637.670898438 402.001953125 667.00390625 c 0
 404.669921875 677.00390625 410.169921875 685.170898438 418.501953125 691.50390625 c 0
 426.834960938 697.836914062 435.66796875 701.669921875 445.001953125 703.002929688 c 0
 451.221679688 703.891601562 456.998046875 704.3359375 462.330078125 704.3359375 c 0
 464.998046875 704.3359375 467.5546875 704.224609375 470 704.001953125 c 2
 474 704.001953125 l 1
 487.5 704.001953125 l 2
 491.166992188 704.001953125 496.166992188 703.168945312 502.5 701.501953125 c 0
 508.833984375 699.834960938 514 697.66796875 518 695.000976562 c 0
 522 692.333984375 525.666992188 688.166992188 529 682.5 c 0
 532.333984375 676.833007812 534.666015625 670 535.999023438 662 c 0
 538.666015625 642 546.333984375 544.333007812 559 369 c 0
 571.666992188 193.666992188 581 94.6669921875 587 72 c 0
 589.666992188 60.5712890625 591 50.33984375 591 41.3056640625 c 0
 591 18.720703125 582.666992188 3.6181640625 566 -4.0009765625 c 0
 560.208984375 -6.4384765625 554.41796875 -7.6572265625 548.626953125 -7.6572265625 c 2
 527.998046875 -2.5 l 2
 515.331054688 3.8330078125 505.998046875 17.666015625 499.998046875 38.9990234375 c 0
 485.998046875 83.666015625 473.666015625 278.333007812 462.998046875 623 c 1
 443.666015625 526.333007812 430.998046875 438.333007812 424.998046875 359 c 0
 418.998046875 283 410.831054688 210.833007812 400.498046875 142.5 c 0
 390.166015625 74.1669921875 381.998046875 32.333984375 375.998046875 17.0009765625 c 0
 368.666015625 1.0009765625 349.998046875 -6.9990234375 319.998046875 -6.9990234375 c 0
 318.331054688 -7.08203125 316.703125 -7.1240234375 315.115234375 -7.1240234375 c 0
 303.995117188 -7.1240234375 294.791015625 -5.08203125 287.499023438 -0.9990234375 c 0
 279.166015625 3.66796875 273.666015625 10.3349609375 270.999023438 19.001953125 c 0
 262.999023438 51.001953125 249.666015625 124.501953125 230.999023438 239.501953125 c 0
 212.33203125 354.501953125 195.33203125 464.668945312 179.999023438 570.001953125 c 1
 177.999023438 548.668945312 176.166015625 524.668945312 174.499023438 498.001953125 c 0
 172.83203125 471.334960938 171.33203125 448.16796875 169.999023438 428.500976562 c 0
 168.666015625 408.833984375 166.499023438 379.666992188 163.499023438 341 c 0
 160.499023438 302.333007812 158.33203125 273 156.999023438 253 c 0
 155.666015625 225 153.666015625 196.166992188 150.999023438 166.5 c 0
 148.33203125 136.833007812 146.166015625 113.5 144.498046875 96.5 c 0
 142.831054688 79.5 141.998046875 67 141.998046875 59 c 0
EndSplineSet
Validated: 524289
EndChar

StartChar: N
Encoding: 78 78 46
Width: 650
GlyphClass: 2
Flags: HMW
HStem: -14.1178 21G
VStem: 78.9102 82.7479 478.33 92.5787 487.911 83.18
LayerCount: 2
Fore
SplineSet
496.909179688 -14 m 0xd0
 495.416992188 -14.078125 493.955078125 -14.1181640625 492.5234375 -14.1181640625 c 0
 481.797851562 -14.1181640625 472.7578125 -11.9140625 465.40625 -7.5029296875 c 0
 457.073242188 -2.5029296875 451.240234375 4.330078125 447.907226562 12.9970703125 c 0
 441.907226562 26.330078125 425.907226562 55.6630859375 399.907226562 100.99609375 c 0
 373.907226562 146.329101562 347.07421875 193.49609375 319.407226562 242.49609375 c 0
 291.740234375 291.49609375 262.740234375 346.329101562 232.407226562 406.99609375 c 0
 202.07421875 467.663085938 179.241210938 519.330078125 163.908203125 561.997070312 c 1
 167.108398438 503.86328125 168.708007812 448.9296875 168.708007812 397.196289062 c 0
 168.708007812 384.262695312 168.608398438 371.529296875 168.408203125 358.99609375 c 0
 167.408203125 296.329101562 165.908203125 232.49609375 163.908203125 167.49609375 c 0
 162.408203125 118.748046875 161.658203125 84.3427734375 161.658203125 64.2802734375 c 0
 161.658203125 55.919921875 161.974609375 44.9990234375 161.974609375 44.8046875 c 0
 161.974609375 25.599609375 157.619140625 11.330078125 148.908203125 1.9970703125 c 0
 140.159179688 -7.3779296875 129.65234375 -12.0654296875 117.387695312 -12.0654296875 c 0
 116.569335938 -12.0654296875 115.743164062 -12.044921875 114.909179688 -12.0029296875 c 0
 100.909179688 -12.0029296875 91.4091796875 -6.3359375 86.4091796875 4.9970703125 c 0
 81.4091796875 16.330078125 78.9091796875 32.9970703125 78.9091796875 54.9970703125 c 0
 78.9091796875 68.330078125 79.9091796875 119.997070312 81.9091796875 209.997070312 c 0
 83.9091796875 299.997070312 85.2421875 378.6640625 85.9091796875 445.997070312 c 0
 86.076171875 462.83203125 86.1591796875 479.5 86.1591796875 496.001953125 c 0
 86.1591796875 545.5 85.4091796875 593.499023438 83.9091796875 639.998046875 c 0
 83.8134765625 641.903320312 83.765625 643.767578125 83.765625 645.590820312 c 0
 83.765625 656.528320312 85.48046875 665.997070312 88.9091796875 673.99609375 c 0
 92.9091796875 683.329101562 98.576171875 690.162109375 105.909179688 694.495117188 c 0
 113.2421875 698.828125 120.909179688 701.828125 128.909179688 703.495117188 c 0
 136.909179688 705.162109375 145.576171875 705.329101562 154.909179688 703.99609375 c 0
 183.576171875 703.99609375 201.576171875 691.663085938 208.909179688 666.99609375 c 0
 222.909179688 622.99609375 261.576171875 541.99609375 324.909179688 423.99609375 c 0
 388.2421875 305.99609375 441.909179688 210.663085938 485.909179688 137.99609375 c 1
 487.6875 179.779296875 488.576171875 234.232421875 488.576171875 301.35546875 c 0
 488.576171875 334.904296875 488.354492188 371.618164062 487.91015625 411.497070312 c 0xd0
 486.577148438 531.1640625 483.577148438 609.997070312 478.91015625 647.997070312 c 0
 478.5234375 651.09375 478.330078125 654.096679688 478.330078125 657.005859375 c 0
 478.330078125 669.12890625 481.690429688 679.625976562 488.411132812 688.497070312 c 0
 496.744140625 699.497070312 507.577148438 704.997070312 520.91015625 704.997070312 c 0
 528.243164062 704.997070312 534.576171875 704.1640625 539.909179688 702.497070312 c 0
 545.2421875 700.830078125 549.409179688 698.830078125 552.409179688 696.497070312 c 0
 555.409179688 694.1640625 557.909179688 690.331054688 559.909179688 684.998046875 c 0
 561.909179688 679.665039062 563.409179688 674.83203125 564.409179688 670.499023438 c 0
 565.409179688 666.166015625 566.576171875 659.333007812 567.909179688 650 c 0
 569.2421875 639.333007812 570.2421875 585.833007812 570.909179688 489.5 c 0xe0
 571.030273438 471.981445312 571.090820312 454.34765625 571.090820312 436.59765625 c 0
 571.090820312 356.741210938 569.86328125 274.541992188 567.409179688 190 c 0
 564.409179688 86.6669921875 559.2421875 27 551.909179688 11 c 0
 545.2421875 -5.6669921875 526.909179688 -14 496.909179688 -14 c 0xd0
EndSplineSet
Validated: 524289
EndChar

StartChar: O
Encoding: 79 79 47
Width: 650
GlyphClass: 2
Flags: HMW
HStem: -24 83.998 636.997 81.001
VStem: 80.2358 96.3855 473.736 96.0643
LayerCount: 2
Fore
SplineSet
292.237304688 -24 m 0
 250.904296875 -23.3330078125 213.904296875 -10.8369140625 181.237304688 13.49609375 c 0
 148.569335938 37.8291015625 123.403320312 70.49609375 105.736328125 111.49609375 c 0
 88.7119140625 151.004882812 80.2001953125 194.072265625 80.2001953125 240.700195312 c 0
 80.2001953125 242.4609375 80.2119140625 244.2265625 80.236328125 245.997070312 c 2
 80.236328125 262.997070312 l 2
 80.236328125 292.997070312 80.4033203125 316.997070312 80.736328125 334.997070312 c 0
 81.0693359375 352.997070312 82.40234375 376.997070312 84.7353515625 406.997070312 c 0
 87.068359375 436.997070312 91.068359375 465.497070312 96.7353515625 492.497070312 c 0
 102.40234375 519.497070312 109.569335938 544.997070312 118.236328125 568.997070312 c 0
 134.903320312 612.330078125 164.569335938 647.997070312 207.237304688 675.997070312 c 0
 249.904296875 703.997070312 297.237304688 717.997070312 349.237304688 717.997070312 c 0
 375.904296875 717.997070312 401.571289062 712.830078125 426.237304688 702.497070312 c 0
 450.905273438 692.1640625 472.905273438 677.331054688 492.237304688 657.998046875 c 0
 511.571289062 638.665039062 527.737304688 613.998046875 540.737304688 583.998046875 c 0
 553.737304688 553.998046875 561.905273438 520.331054688 565.237304688 482.998046875 c 0
 567.905273438 449.665039062 569.405273438 413.998046875 569.737304688 375.998046875 c 0
 569.780273438 371.251953125 569.799804688 366.498046875 569.799804688 361.736328125 c 0
 569.799804688 328.374023438 568.780273438 294.627929688 566.737304688 260.499023438 c 0
 564.405273438 221.499023438 559.905273438 190.666015625 553.237304688 167.999023438 c 0
 544.571289062 136.666015625 533.904296875 109.666015625 521.237304688 86.9990234375 c 0
 508.569335938 64.33203125 494.569335938 45.83203125 479.237304688 31.4990234375 c 0
 463.904296875 17.166015625 446.237304688 5.8330078125 426.237304688 -2.5 c 0
 406.237304688 -10.8330078125 385.737304688 -16.5 364.737304688 -19.5 c 0
 343.737304688 -22.5 319.569335938 -24 292.237304688 -24 c 0
292.237304688 59.99609375 m 0
 310.237304688 59.99609375 327.233398438 62.1640625 343.233398438 66.4970703125 c 0
 359.233398438 70.830078125 374.901367188 77.830078125 390.233398438 87.4970703125 c 0
 405.567382812 97.1640625 419.233398438 109.997070312 431.233398438 125.997070312 c 0
 443.233398438 141.997070312 452.567382812 160.6640625 459.233398438 181.997070312 c 0
 461.901367188 190.6640625 464.568359375 210.6640625 467.235351562 241.997070312 c 0
 469.901367188 273.330078125 472.069335938 310.663085938 473.736328125 353.99609375 c 0
 474.225585938 366.741210938 474.471679688 379.428710938 474.471679688 392.05859375 c 0
 474.471679688 422.370117188 473.059570312 452.349609375 470.236328125 481.99609375 c 0
 466.236328125 525.99609375 452.069335938 562.829101562 427.736328125 592.49609375 c 0
 403.403320312 622.163085938 373.569335938 636.99609375 338.237304688 636.99609375 c 0
 302.237304688 636.99609375 272.069335938 623.829101562 247.737304688 597.49609375 c 0
 223.404296875 571.163085938 205.904296875 534.330078125 195.237304688 486.997070312 c 0
 182.827148438 433.408203125 176.622070312 371.466796875 176.622070312 301.171875 c 0
 176.622070312 288.389648438 176.827148438 275.331054688 177.237304688 261.99609375 c 0
 177.904296875 240.663085938 179.737304688 220.99609375 182.737304688 202.99609375 c 0
 185.737304688 184.99609375 189.904296875 166.99609375 195.237304688 148.99609375 c 0
 200.569335938 130.99609375 207.569335938 115.49609375 216.237304688 102.49609375 c 0
 224.904296875 89.49609375 235.737304688 79.1630859375 248.737304688 71.49609375 c 0
 261.737304688 63.8291015625 276.237304688 59.99609375 292.237304688 59.99609375 c 0
EndSplineSet
Validated: 524289
EndChar

StartChar: P
Encoding: 80 80 48
Width: 650
GlyphClass: 2
Flags: HMW
HStem: -19.0771 21G 230.001 81.9374 630.003 80.998
VStem: 99.7118 94.3366 104.788 102.314 469.046 92.0029
LayerCount: 2
Fore
SplineSet
207.102539062 21.7568359375 m 0xec
 207.102539062 8.837890625 201.583984375 -1.2421875 190.547851562 -8.4951171875 c 0
 179.814453125 -15.548828125 167.811523438 -19.0751953125 154.5390625 -19.0751953125 c 0
 153.384765625 -19.0751953125 152.220703125 -19.048828125 151.046875 -18.9951171875 c 0
 137.046875 -18.9951171875 125.546875 -14.828125 116.546875 -6.4951171875 c 0
 108.708007812 0.7626953125 104.7890625 10.9287109375 104.7890625 24.0029296875 c 0xec
 104.7890625 25.939453125 104.875 27.939453125 105.046875 30.00390625 c 0
 105.713867188 40.6708984375 106.046875 56.50390625 106.046875 77.50390625 c 0
 106.046875 98.50390625 105.879882812 124.50390625 105.546875 155.50390625 c 0
 105.213867188 186.50390625 104.713867188 216.50390625 104.046875 245.50390625 c 0
 103.379882812 274.50390625 102.546875 310.00390625 101.546875 352.00390625 c 0
 100.546875 394.00390625 100.046875 429.00390625 100.046875 457.00390625 c 0
 99.82421875 471.455078125 99.712890625 487.463867188 99.712890625 505.029296875 c 0xf4
 99.712890625 540.134765625 100.157226562 581.458984375 101.045898438 629.002929688 c 0
 97.712890625 632.3359375 95.712890625 634.002929688 95.0458984375 634.002929688 c 0
 89.712890625 642.002929688 87.8798828125 650.169921875 89.546875 658.502929688 c 0
 91.2138671875 666.8359375 94.880859375 674.3359375 100.547851562 681.002929688 c 0
 106.21484375 687.669921875 112.381835938 691.669921875 119.048828125 693.002929688 c 0
 143.048828125 698.3359375 178.215820312 702.668945312 224.548828125 706.001953125 c 0
 270.881835938 709.334960938 303.381835938 711.001953125 322.048828125 711.001953125 c 0
 367.381835938 711.001953125 407.881835938 703.001953125 443.548828125 687.001953125 c 0
 479.215820312 671.001953125 507.548828125 646.834960938 528.548828125 614.501953125 c 0
 549.548828125 582.168945312 560.381835938 543.668945312 561.048828125 499.001953125 c 0
 561.048828125 461.668945312 554.881835938 426.501953125 542.548828125 393.501953125 c 0
 530.215820312 360.501953125 513.548828125 332.001953125 492.548828125 308.001953125 c 0
 471.548828125 284.001953125 445.715820312 265.001953125 415.048828125 251.001953125 c 0
 384.381835938 237.001953125 351.048828125 230.001953125 315.048828125 230.001953125 c 0
 263.048828125 230.001953125 222.048828125 233.668945312 192.048828125 241.001953125 c 1
 193.381835938 213.001953125 195.048828125 186.168945312 197.048828125 160.501953125 c 0
 199.048828125 134.834960938 201.048828125 108.16796875 203.048828125 80.5009765625 c 0
 205.313476562 49.16796875 207.102539062 24.41796875 207.102539062 21.7568359375 c 0xec
322.047851562 630.005859375 m 0
 298.71484375 630.005859375 256.716796875 627.336914062 196.049804688 622.00390625 c 1
 196.049804688 608.670898438 195.3828125 584.00390625 194.049804688 548.00390625 c 0xf4
 192.716796875 512.00390625 191.716796875 475.00390625 191.049804688 437.00390625 c 0
 190.3828125 399.00390625 190.049804688 362.00390625 190.049804688 326.00390625 c 1
 215.673828125 316.62890625 245.399414062 311.94140625 279.2265625 311.94140625 c 0
 281.482421875 311.94140625 283.756835938 311.961914062 286.049804688 312.00390625 c 0
 305.3828125 312.00390625 322.8828125 313.336914062 338.549804688 316.00390625 c 0
 354.216796875 318.670898438 367.883789062 322.337890625 379.55078125 327.004882812 c 0
 391.217773438 331.671875 401.717773438 337.838867188 411.05078125 345.505859375 c 0
 420.383789062 353.172851562 428.216796875 360.83984375 434.549804688 368.506835938 c 0
 440.8828125 376.173828125 446.215820312 385.173828125 450.548828125 395.506835938 c 0
 454.881835938 405.83984375 458.21484375 415.172851562 460.547851562 423.505859375 c 0
 462.880859375 431.838867188 464.713867188 441.505859375 466.046875 452.505859375 c 0
 467.379882812 463.505859375 468.212890625 472.505859375 468.545898438 479.505859375 c 0
 468.87890625 486.505859375 469.045898438 495.005859375 469.045898438 505.005859375 c 0
 469.045898438 523.672851562 465.545898438 540.505859375 458.545898438 555.505859375 c 0
 451.545898438 570.505859375 442.87890625 582.505859375 432.545898438 591.505859375 c 0
 422.212890625 600.505859375 410.379882812 608.005859375 397.046875 614.005859375 c 0
 383.713867188 620.005859375 370.880859375 624.172851562 358.547851562 626.505859375 c 0
 346.21484375 628.838867188 334.047851562 630.005859375 322.047851562 630.005859375 c 0
EndSplineSet
Validated: 524289
EndChar

StartChar: Q
Encoding: 81 81 49
Width: 650
GlyphClass: 2
Flags: HMW
HStem: -24.1963 84.2021 637.005 80.9971
VStem: 75.8145 95.6075 280.602 73.1323 473.845 93.3379
LayerCount: 2
Fore
SplineSet
550.744140625 -206 m 0
 543.634765625 -210.443359375 536.225585938 -212.6640625 528.521484375 -212.6640625 c 0
 524.666015625 -212.6640625 520.737304688 -212.108398438 516.735351562 -210.997070312 c 0
 504.735351562 -207.6640625 494.068359375 -199.997070312 484.735351562 -187.997070312 c 0
 475.40234375 -175.997070312 459.40234375 -153.6640625 436.735351562 -120.997070312 c 0
 414.068359375 -88.330078125 392.068359375 -54.9970703125 370.735351562 -20.9970703125 c 1
 356.870117188 -23.130859375 341.938476562 -24.197265625 325.939453125 -24.197265625 c 0
 321.938476562 -24.197265625 317.870117188 -24.130859375 313.735351562 -23.9970703125 c 0
 284.40234375 -23.9970703125 257.069335938 -19.330078125 231.736328125 -9.9970703125 c 0
 206.403320312 -0.6640625 184.5703125 12.3359375 166.237304688 29.0029296875 c 0
 147.904296875 45.669921875 132.071289062 65.5029296875 118.73828125 88.5029296875 c 0
 105.405273438 111.502929688 95.4052734375 136.169921875 88.73828125 162.502929688 c 0
 82.0712890625 188.8359375 78.0712890625 216.668945312 76.73828125 246.001953125 c 0
 76.1220703125 263.084960938 75.8134765625 279.766601562 75.8134765625 296.046875 c 0
 75.8134765625 403.024414062 89.1220703125 492.67578125 115.73828125 565.001953125 c 0
 133.071289062 609.001953125 162.73828125 645.501953125 204.73828125 674.501953125 c 0
 246.73828125 703.501953125 293.73828125 718.001953125 345.73828125 718.001953125 c 0
 373.071289062 718.001953125 398.571289062 713.334960938 422.23828125 704.001953125 c 0
 445.905273438 694.668945312 467.405273438 681.001953125 486.73828125 663.001953125 c 0
 506.071289062 645.001953125 522.23828125 620.668945312 535.23828125 590.001953125 c 0
 548.23828125 559.334960938 557.071289062 523.66796875 561.73828125 483.000976562 c 0
 565.368164062 447.220703125 567.18359375 405.2890625 567.18359375 357.20703125 c 0
 567.18359375 343.473632812 567.03515625 329.23828125 566.739257812 314.500976562 c 0
 565.40625 248.16796875 561.073242188 197.66796875 553.740234375 163.000976562 c 0
 539.740234375 91.0009765625 507.073242188 39.66796875 455.740234375 9.0009765625 c 1
 469.073242188 -10.33203125 483.240234375 -29.9990234375 498.240234375 -49.9990234375 c 0
 513.240234375 -69.9990234375 527.573242188 -88.666015625 541.240234375 -105.999023438 c 0
 554.907226562 -123.33203125 564.07421875 -134.999023438 568.741210938 -140.999023438 c 0
 573.408203125 -148.33203125 575.075195312 -156.33203125 573.7421875 -164.999023438 c 0
 572.409179688 -173.666015625 569.576171875 -181.833007812 565.243164062 -189.5 c 0
 560.91015625 -197.166992188 556.077148438 -202.666992188 550.744140625 -206 c 0
173.735351562 262.004882812 m 0
 175.735351562 224.004882812 182.901367188 189.837890625 195.234375 159.504882812 c 0
 207.567382812 129.171875 224.067382812 105.004882812 244.734375 87.0048828125 c 0
 265.401367188 69.0048828125 288.401367188 60.0048828125 313.734375 60.0048828125 c 2
 323.734375 60.0048828125 l 1
 307.734375 90.0048828125 296.401367188 113.337890625 289.734375 130.004882812 c 0
 283.646484375 146.33203125 280.602539062 160.706054688 280.602539062 173.127929688 c 0
 280.602539062 190.630859375 286.646484375 204.256835938 298.734375 214.005859375 c 0
 304.734375 218.672851562 311.234375 221.505859375 318.234375 222.505859375 c 0
 325.234375 223.505859375 331.901367188 221.505859375 338.234375 216.505859375 c 0
 344.567382812 211.505859375 349.734375 204.005859375 353.734375 194.005859375 c 0
 365.734375 160.672851562 383.067382812 124.33984375 405.734375 85.0068359375 c 1
 434.401367188 104.33984375 453.401367188 135.33984375 462.734375 178.006835938 c 0
 464.734375 188.006835938 466.901367188 208.173828125 469.234375 238.506835938 c 0
 471.567382812 268.83984375 473.067382812 306.672851562 473.734375 352.005859375 c 0
 473.80859375 357.044921875 473.845703125 362.059570312 473.845703125 367.049804688 c 0
 473.845703125 406.948242188 471.475585938 445.266601562 466.735351562 482.004882812 c 0
 461.40234375 529.337890625 446.90234375 567.004882812 423.235351562 595.004882812 c 0
 399.568359375 623.004882812 370.068359375 637.004882812 334.735351562 637.004882812 c 0
 298.068359375 637.004882812 267.568359375 624.004882812 243.235351562 598.004882812 c 0
 218.90234375 572.004882812 201.40234375 535.671875 190.735351562 489.004882812 c 0
 177.859375 437.5 171.420898438 382.5 171.420898438 324.004882812 c 0
 171.420898438 303.756835938 172.192382812 283.08984375 173.735351562 262.004882812 c 0
EndSplineSet
Validated: 524289
EndChar

StartChar: R
Encoding: 82 82 50
Width: 650
GlyphClass: 2
Flags: HMW
HStem: -19.0801 21G 694.06 20G
VStem: 81.0342 95 85.4892 102.598 85.5342 93.498 89.0342 81 466.034 92
LayerCount: 2
Fore
SplineSet
188.0859375 21.755859375 m 0xd2
 188.0859375 8.8369140625 182.571289062 -1.248046875 171.53515625 -8.5 c 0
 160.801757812 -15.5537109375 148.517578125 -19.080078125 134.681640625 -19.080078125 c 0
 133.477539062 -19.080078125 132.26171875 -19.0537109375 131.034179688 -19 c 0
 117.034179688 -19 105.534179688 -14.8330078125 96.5341796875 -6.5 c 0
 89.1708984375 0.318359375 85.4892578125 9.703125 85.4892578125 21.6533203125 c 0xd2
 85.4892578125 24.30859375 85.6708984375 27.0908203125 86.0341796875 30 c 0
 88.701171875 64.6669921875 90.0341796875 94.1669921875 90.0341796875 118.5 c 0
 90.0341796875 142.833007812 89.701171875 202.666015625 89.0341796875 297.999023438 c 0xc6
 89.0341796875 310.666015625 89.701171875 337.833007812 91.0341796875 379.5 c 0
 91.7001953125 400.333984375 92.033203125 420.625976562 92.033203125 440.375976562 c 0
 92.033203125 460.125976562 91.7001953125 479.333984375 91.0341796875 498 c 0
 90.3671875 520.666992188 88.5341796875 551.333984375 85.5341796875 590.000976562 c 0xca
 82.5341796875 628.66796875 81.0341796875 652.000976562 81.0341796875 660.000976562 c 2
 81.0341796875 666.000976562 l 2xe2
 80.9892578125 666.845703125 80.966796875 667.68359375 80.966796875 668.513671875 c 0
 80.966796875 680.127929688 85.322265625 690.290039062 94.033203125 699.000976562 c 0
 102.190429688 709.040039062 113.299804688 714.059570312 127.361328125 714.059570312 c 0
 128.240234375 714.059570312 129.130859375 714.040039062 130.033203125 714.000976562 c 0
 143.366210938 714.000976562 154.033203125 711.333984375 162.033203125 706.000976562 c 1
 217.366210938 703.333984375 267.533203125 696.166992188 312.533203125 684.5 c 0
 357.533203125 672.833007812 395.033203125 658.333007812 425.033203125 641 c 0
 455.033203125 623.666992188 480.366210938 604 501.033203125 582 c 0
 521.700195312 560 536.3671875 538 545.034179688 516 c 0
 553.701171875 494 558.034179688 471.666992188 558.034179688 449 c 0
 558.034179688 432.333007812 555.8671875 417 551.534179688 403 c 0
 547.201171875 389 541.034179688 376.833007812 533.034179688 366.5 c 0
 525.034179688 356.166992188 514.701171875 347 502.034179688 339 c 0
 489.3671875 331 475.8671875 324.166992188 461.534179688 318.5 c 0
 447.201171875 312.833007812 430.201171875 307.833007812 410.534179688 303.5 c 0
 390.8671875 299.166992188 371.3671875 295.833984375 352.034179688 293.500976562 c 0
 332.701171875 291.16796875 311.034179688 289.000976562 287.034179688 287.000976562 c 1
 354.3671875 252.333984375 413.700195312 211.833984375 465.033203125 165.500976562 c 0
 516.366210938 119.16796875 550.033203125 79.66796875 566.033203125 47.0009765625 c 0
 568.033203125 41.0009765625 569.033203125 35.2509765625 569.033203125 29.7509765625 c 0
 569.033203125 24.2509765625 568.033203125 19.0009765625 566.033203125 14.0009765625 c 0
 562.033203125 4.0009765625 555.700195312 -3.9990234375 547.033203125 -9.9990234375 c 0
 539.700195312 -15.3759765625 531.918945312 -18.064453125 523.689453125 -18.064453125 c 0
 520.696289062 -18.064453125 517.643554688 -17.708984375 514.532226562 -16.998046875 c 0
 502.865234375 -14.3310546875 492.032226562 -6.3310546875 482.032226562 7.001953125 c 0
 471.365234375 21.001953125 456.198242188 38.1689453125 436.53125 58.501953125 c 0
 416.864257812 78.8349609375 393.197265625 101.501953125 365.530273438 126.501953125 c 0
 337.86328125 151.501953125 306.36328125 176.168945312 271.030273438 200.501953125 c 0
 235.697265625 224.834960938 201.364257812 244.334960938 168.03125 259.001953125 c 1
 170.03125 220.334960938 173.698242188 174.66796875 179.03125 122.000976562 c 0xca
 181.907226562 93.6025390625 188.0859375 31.578125 188.0859375 21.755859375 c 0xd2
181.036132812 498 m 0
 181.036132812 490.666992188 180.538085938 480.833984375 179.538085938 468.500976562 c 0
 178.538085938 456.16796875 177.705078125 445.16796875 177.038085938 435.500976562 c 0
 176.37109375 425.833984375 175.204101562 412.500976562 173.537109375 395.500976562 c 0
 171.870117188 378.500976562 170.703125 366.333984375 170.036132812 359.000976562 c 1xc6
 178.036132812 357.4765625 188.321289062 356.71484375 200.891601562 356.71484375 c 0
 210.3203125 356.71484375 221.03515625 357.143554688 233.036132812 358.000976562 c 0
 260.369140625 359.333984375 283.369140625 360.833984375 302.036132812 362.500976562 c 0
 320.703125 364.16796875 339.536132812 366.500976562 358.536132812 369.500976562 c 0
 377.536132812 372.500976562 393.036132812 376.000976562 405.036132812 380.000976562 c 0
 417.036132812 384.000976562 428.036132812 389.000976562 438.036132812 395.000976562 c 0
 448.036132812 401.000976562 455.203125 408.16796875 459.536132812 416.500976562 c 0
 463.869140625 424.833984375 466.036132812 434.333984375 466.036132812 445.000976562 c 0
 466.036132812 463.66796875 459.203125 481.66796875 445.536132812 499.000976562 c 0
 431.869140625 516.333984375 414.536132812 531.666992188 393.536132812 545 c 0
 372.536132812 558.333007812 348.703125 570.5 322.036132812 581.5 c 0
 295.369140625 592.5 269.869140625 601.333007812 245.536132812 608 c 0
 221.203125 614.666992188 198.036132812 620 176.036132812 624 c 1xe2
 178.036132812 575.333007812 179.703125 533.333007812 181.036132812 498 c 0
EndSplineSet
Validated: 524289
EndChar

